SplineFontDB: 1.0
FontName: Loma
FullName: Loma
FamilyName: Loma
Weight: Book
Copyright: Copyright (c) NECTEC, 2003. All rights reserved.
Version: 0.9.1; 2003
ItalicAngle: 0
UnderlinePosition: -170
UnderlineWidth: 20
Ascent: 1638
Descent: 410
NeedsXUIDChange: 1
FSType: 0
PfmFamily: 33
TTFWeight: 400
TTFWidth: 5
Panose: 2 11 5 4 2 2 2 2 2 4
LineGap: 0
VLineGap: 0
OS2TypoAscent: 2089
OS2TypoDescent: -430
OS2TypoLinegap: 0
OS2WinAscent: 2089
OS2WinAOffset: 1
OS2WinDescent: 430
OS2WinDOffset: 1
HheadAscent: 0
HheadAOffset: 1
HheadDescent: 0
HheadDOffset: 1
ScriptLang: 3
 1 latn 1 dflt 
 1 thai 4 KUY  PAL  THA  dflt 
 1 thai 1 PAL  
ContextSub: glyph 0 2 ' RQD' 0 0 0 1
 String: 15 uni0E0D uni0E10
 BString: 0 
 FString: 0 
 1
  SeqLookup: 0 'ndsc'
EndFPST
ChainSub: coverage 0 1 'ccmp' 0 0 0 1
 2 0 0
  Coverage: 19 uni0E4B uni0E4B.low
  Coverage: 7 uni0E4D
 2
  SeqLookup: 0 'amni'
  SeqLookup: 1 'G007'
EndFPST
ChainSub: coverage 0 1 'ccmp' 0 0 0 1
 2 0 0
  Coverage: 19 uni0E4A uni0E4A.low
  Coverage: 7 uni0E4D
 2
  SeqLookup: 0 'amni'
  SeqLookup: 1 'G006'
EndFPST
ChainSub: coverage 0 1 'ccmp' 0 0 0 1
 2 0 0
  Coverage: 19 uni0E49 uni0E49.low
  Coverage: 7 uni0E4D
 2
  SeqLookup: 0 'amni'
  SeqLookup: 1 'G005'
EndFPST
ChainSub: coverage 0 1 'ccmp' 0 0 0 1
 2 0 0
  Coverage: 19 uni0E48 uni0E48.low
  Coverage: 7 uni0E4D
 2
  SeqLookup: 0 'amni'
  SeqLookup: 1 'G004'
EndFPST
ChainSub: coverage 0 1 'ccmp' 0 0 0 1
 1 0 1
  Coverage: 15 uni0E0D uni0E10
  FCoverage: 23 uni0E38 uni0E39 uni0E3A
 1
  SeqLookup: 0 'nds0'
EndFPST
ChainSub: coverage 0 1 'ccmp' 0 0 0 1
 1 2 0
  Coverage: 39 uni0E48 uni0E49 uni0E4A uni0E4B uni0E4C
  BCoverage: 23 uni0E38 uni0E39 uni0E3A

StartChar: .notdef
Encoding: 0 -1 0
OldEncoding: 0
Width: 1536
Flags: W
HStem: 0 32<288 1280> 1248 32<256 1248>
VStem: 256 32<0 1248> 1248 32<32 1280>
Fore
256 0 m 1
 256 1280 l 1
 1280 1280 l 1
 1280 0 l 1
 256 0 l 1
288 32 m 1
 1248 32 l 1
 1248 1248 l 1
 288 1248 l 1
 288 32 l 1
EndSplineSet
EndChar
StartChar: exclam
Encoding: 3 33 5
OldEncoding: 33
Width: 569
Flags: W
HStem: 0 21G<206 370> 1430 20G<198 378>
VStem: 206 164<0 194>
Fore
198 999 m 1
 198 1450 l 1
 378 1450 l 1
 378 999 l 1
 335 365 l 1
 242 365 l 1
 198 999 l 1
206 194 m 1
 370 194 l 1
 370 0 l 1
 206 0 l 1
 206 194 l 1
EndSplineSet
EndChar
StartChar: quotedbl
Encoding: 4 34 6
OldEncoding: 34
Width: 727
Flags: W
HStem: 1430 20G<106 286 439 619>
VStem: 106 180<1216 1450> 439 180<1216 1450>
Fore
156 947 m 1
 106 1217 l 1
 106 1450 l 1
 286 1450 l 1
 286 1217 l 1
 241 947 l 1
 156 947 l 1
487 947 m 1
 439 1217 l 1
 439 1450 l 1
 619 1450 l 1
 619 1217 l 1
 572 947 l 1
 487 947 l 1
EndSplineSet
EndChar
StartChar: numbersign
Encoding: 5 35 7
OldEncoding: 35
Width: 1139
Flags: W
HStem: -10 21G<87 267 546 725> 385 180<21 174 384 632 842 1113> 895 180<21 278 488 737 947 1113> 895 575<395 737 854 1113>
DStem: 174 385 354 385 87 -10 267 -10 278 895 458 895 204 565 384 565 395 1470 575 1470 308 1075 488 1075 632 385 812 385 546 -10 725 -10 737 895 917 895 662 565 842 565 854 1470 1034 1470 767 1075 947 1075
Fore
87 -10 m 1xd0
 174 385 l 1
 21 385 l 1
 21 565 l 1
 204 565 l 1
 278 895 l 1
 21 895 l 1
 21 1075 l 1
 308 1075 l 1xe0
 395 1470 l 1
 575 1470 l 1xd0
 488 1075 l 1
 767 1075 l 1xe0
 854 1470 l 1
 1034 1470 l 1xd0
 947 1075 l 1
 1113 1075 l 1
 1113 895 l 1xe0
 917 895 l 1
 842 565 l 1
 1113 565 l 1
 1113 385 l 1
 812 385 l 1
 725 -10 l 1
 546 -10 l 1
 632 385 l 1
 354 385 l 1
 267 -10 l 1
 87 -10 l 1xd0
384 565 m 1
 662 565 l 1
 737 895 l 1xe0
 458 895 l 1xd0
 384 565 l 1
EndSplineSet
EndChar
StartChar: dollar
Encoding: 6 36 8
OldEncoding: 36
Width: 1139
Flags: W
VStem: 106 180<1029 1052> 491 143<-118 -15 123 629 810 1269 1408 1488> 858 184<365 411>
Fore
491 -17 m 1
 418 -8 352 11 292 40 c 0
 236 67 187 110 146 169 c 0
 140 178 l 0
 104 233 83 296 76 367 c 1
 76 417 l 1
 255 417 l 1
 268 330 293 265 329 221 c 1
 342 207 353 195 363 185 c 0
 401 147 444 126 491 123 c 1
 491 651 l 1
 484 652 478 654 472 655 c 0
 425 665 362 690 284 731 c 1
 227 760 183 800 152 851 c 0
 121 903 106 963 106 1031 c 0
 106 1148 151 1243 241 1318 c 0
 245 1321 249 1323 252 1326 c 0
 312 1371 392 1399 491 1409 c 1
 491 1488 l 1
 634 1488 l 1
 634 1409 l 1
 648 1408 l 2
 732 1399 804 1370 864 1323 c 0
 877 1313 890 1302 902 1290 c 0
 959 1232 994 1167 1005 1094 c 1
 1008 1050 l 1
 833 1050 l 1
 826 1103 800 1153 755 1200 c 2
 745 1211 l 1
 714 1242 677 1261 634 1269 c 1
 634 790 l 1
 635 789 l 1
 730 762 l 2
 759 754 782 747 797 741 c 0
 879 708 940 662 981 604 c 0
 1022 545 1042 476 1042 397 c 0
 1042 281 1003 185 924 108 c 0
 916 100 908 93 899 86 c 0
 826 25 738 -9 634 -15 c 1
 634 -118 l 1
 491 -118 l 1
 491 -17 l 1
491 1271 m 1
 477 1269 464 1266 452 1263 c 0
 416 1252 381 1229 347 1192 c 1
 306 1150 286 1101 286 1044 c 0
 286 987 303 940 337 902 c 0
 340 899 342 896 345 893 c 0
 381 855 430 827 491 810 c 1
 491 1271 l 1
641 124 m 2
 658 127 682 136 714 151 c 0
 743 165 769 184 790 207 c 0
 811 230 827 257 840 287 c 0
 852 318 858 351 858 386 c 0
 858 446 842 494 809 531 c 1
 774 572 716 605 634 629 c 1
 634 123 l 1
 641 124 l 2
EndSplineSet
EndChar
StartChar: percent
Encoding: 7 37 9
OldEncoding: 37
Width: 1821
Flags: W
HStem: -53 123<1366 1399> 598 123<1366 1397> 717 123<422 440> 1366 125<422 440>
VStem: 119 157<1082 1132> 590 155<1082 1132> 1067 158<314 364> 1538 158<298 364>
DStem: 1217 1491 1397 1491 458 -10 638 -10
Fore
119 1114 m 0xbf
 119 1219 145 1308 197 1380 c 0
 250 1454 326 1491 426 1491 c 0
 521 1491 598 1458 655 1392 c 0
 715 1323 745 1227 745 1104 c 1
 744 986 713 890 654 817 c 1
 597 750 521 717 428 717 c 0
 337 717 264 750 208 815 c 0
 149 884 119 984 119 1114 c 0xbf
432 1366 m 0
 385 1366 347 1347 320 1308 c 0
 291 1266 276 1195 276 1096 c 0
 276 1001 291 935 322 897 c 0
 352 859 389 840 432 840 c 0
 477 840 515 859 545 898 c 128
 575 937 590 1007 590 1110 c 0
 590 1204 575 1270 545 1308 c 0
 515 1347 477 1366 432 1366 c 0
1217 1491 m 1
 1397 1491 l 1
 638 -10 l 1
 458 -10 l 1
 1217 1491 l 1
1067 344 m 0
 1067 449 1093 538 1145 610 c 0
 1198 684 1275 721 1376 721 c 0xdf
 1471 721 1547 688 1604 622 c 0
 1665 552 1696 456 1696 334 c 0
 1696 213 1665 117 1604 47 c 0
 1545 -20 1469 -53 1376 -53 c 0
 1283 -53 1209 -20 1155 46 c 0
 1096 117 1067 217 1067 344 c 0
1380 598 m 0
 1332 598 1295 579 1268 540 c 0
 1239 497 1225 426 1225 326 c 0
 1225 233 1240 167 1270 128 c 0
 1300 89 1337 70 1380 70 c 0
 1427 70 1465 89 1494 128 c 0
 1523 167 1538 237 1538 340 c 0
 1538 434 1523 500 1493 540 c 128
 1463 578 1425 598 1380 598 c 0
EndSplineSet
EndChar
StartChar: ampersand
Encoding: 8 38 10
OldEncoding: 38
Width: 1366
Flags: W
HStem: -25 158<528 569> 1343 148<606 641>
VStem: 88 195<396 430> 272 185<1163 1184> 793 184<1161 1184>
DStem: 530 725 700 821 860 315 963 485
Fore
973 172 m 1xd8
 856 41 716 -25 553 -25 c 0
 403 -25 284 26 195 127 c 1
 124 210 88 302 88 403 c 0xe8
 88 586 204 733 436 842 c 1
 403 880 377 914 356 944 c 0
 335 974 318 1002 306 1027 c 0
 293 1052 284 1076 280 1098 c 128
 274 1119 272 1141 272 1163 c 0
 272 1252 306 1328 375 1393 c 0
 444 1458 532 1491 637 1491 c 0
 735 1491 816 1460 880 1399 c 0
 945 1338 977 1264 977 1178 c 0
 977 1039 885 920 700 821 c 1
 963 485 l 1
 993 542 1016 611 1032 690 c 1
 1221 649 l 1
 1188 522 1144 417 1090 334 c 1
 1157 247 1233 172 1319 109 c 1
 1198 -35 l 1
 1126 13 1051 82 973 172 c 1xd8
606 938 m 1
 684 982 735 1022 758 1057 c 0
 781 1092 793 1131 793 1174 c 0
 793 1223 777 1263 746 1295 c 0
 714 1327 674 1343 627 1343 c 0
 579 1343 539 1327 506 1296 c 0
 473 1265 457 1227 457 1182 c 0xd8
 457 1135 480 1085 526 1030 c 1
 606 938 l 1
530 725 m 1
 433 666 368 612 334 562 c 0
 300 512 283 463 283 416 c 0xe8
 283 355 306 292 352 229 c 1
 400 165 468 133 555 133 c 0
 581 133 609 137 638 146 c 0
 667 155 696 168 723 184 c 0
 750 201 776 220 800 242 c 0
 824 263 844 288 860 315 c 1
 530 725 l 1
EndSplineSet
EndChar
StartChar: quotesingle
Encoding: 9 39 11
OldEncoding: 39
Width: 391
Flags: W
HStem: 1446 20G<90 295>
VStem: 90 205<1220 1466>
Fore
136 947 m 1
 90 1221 l 1
 90 1466 l 1
 295 1466 l 1
 295 1221 l 1
 247 947 l 1
 136 947 l 1
EndSplineSet
EndChar
StartChar: parenleft
Encoding: 10 40 12
OldEncoding: 40
Width: 682
Flags: W
VStem: 124 185<480 578>
Fore
479 -431 m 1
 344 -260 245 -71 184 135 c 0
 144 268 124 400 124 531 c 0
 124 773 181 999 295 1209 c 0
 341 1294 402 1388 479 1491 c 1
 608 1491 l 1
 515 1332 452 1211 418 1130 c 0
 354 978 318 809 311 622 c 0
 310 592 309 561 309 530 c 0
 309 209 409 -111 608 -431 c 1
 479 -431 l 1
EndSplineSet
EndChar
StartChar: parenright
Encoding: 11 41 13
OldEncoding: 41
Width: 682
Flags: W
VStem: 423 185<480 578>
Fore
253 -431 m 1
 124 -431 l 1
 323 -111 423 209 423 530 c 0
 423 742 391 931 326 1097 c 0
 290 1190 226 1316 133 1475 c 0
 129 1482 129 1482 124 1491 c 1
 253 1491 l 1
 380 1321 470 1165 523 1022 c 0
 580 871 608 707 608 531 c 0
 608 283 539 36 401 -209 c 0
 356 -288 307 -362 253 -431 c 1
EndSplineSet
EndChar
StartChar: asterisk
Encoding: 12 42 14
OldEncoding: 42
Width: 797
Flags: W
Fore
64 1197 m 1
 110 1339 l 1
 216 1302 293 1269 341 1242 c 1
 328 1363 322 1446 321 1491 c 1
 466 1491 l 1
 464 1425 456 1342 443 1243 c 1
 512 1278 590 1310 679 1339 c 1
 725 1197 l 1
 640 1169 557 1150 476 1141 c 1
 517 1106 574 1043 648 952 c 1
 528 867 l 1
 489 920 444 991 391 1082 c 1
 342 988 298 916 261 867 c 1
 143 952 l 1
 220 1047 276 1110 309 1141 c 1
 223 1158 141 1176 64 1197 c 1
EndSplineSet
EndChar
StartChar: plus
Encoding: 13 43 15
OldEncoding: 43
Width: 1196
Flags: W
HStem: 639 168<114 513 683 1082>
VStem: 513 170<237 639 807 1206>
Fore
513 237 m 1
 513 639 l 1
 114 639 l 1
 114 807 l 1
 513 807 l 1
 513 1206 l 1
 683 1206 l 1
 683 807 l 1
 1082 807 l 1
 1082 639 l 1
 683 639 l 1
 683 237 l 1
 513 237 l 1
EndSplineSet
EndChar
StartChar: comma
Encoding: 14 44 16
OldEncoding: 44
Width: 569
Flags: W
HStem: -20 20G<182 284>
VStem: 182 205<-1 205>
Fore
182 0 m 1
 182 205 l 1
 387 205 l 1
 387 0 l 2
 387 -75 374 -136 347 -182 c 0
 320 -229 278 -265 220 -290 c 1
 170 -213 l 1
 208 -196 236 -172 254 -140 c 0
 272 -107 282 -61 284 0 c 1
 182 0 l 1
EndSplineSet
EndChar
StartChar: hyphen
Encoding: 15 45 17
OldEncoding: 45
Width: 682
Flags: W
HStem: 440 181<65 618>
Fore
65 440 m 1
 65 621 l 1
 618 621 l 1
 618 440 l 1
 65 440 l 1
EndSplineSet
EndChar
StartChar: period
Encoding: 16 46 18
OldEncoding: 46
Width: 569
Flags: W
HStem: 0 205<186 391>
VStem: 186 205<0 205>
Fore
186 0 m 1
 186 205 l 1
 391 205 l 1
 391 0 l 1
 186 0 l 1
EndSplineSet
EndChar
StartChar: slash
Encoding: 17 47 19
OldEncoding: 47
Width: 595
Flags: W
HStem: -10 21G<-81 102> 1450 20G<506 688>
DStem: 506 1470 688 1470 -81 -10 102 -10
Fore
-81 -10 m 1
 506 1470 l 1
 688 1470 l 1
 102 -10 l 1
 -81 -10 l 1
EndSplineSet
EndChar
StartChar: zero
Encoding: 18 48 20
OldEncoding: 48
Width: 1139
Flags: W
HStem: 1309 150<549 583>
VStem: 86 184<723 791> 856 184<723 775>
Fore
86 723 m 0
 86 890 102 1026 135 1133 c 0
 202 1350 345 1459 563 1459 c 0
 881 1459 1040 1214 1040 723 c 0
 1040 540 1020 394 979 285 c 0
 908 96 770 -2 563 -10 c 1
 499 -10 442 -0 391 19 c 0
 188 95 86 330 86 723 c 0
270 723 m 0
 270 662 272 607 277 557 c 0
 301 279 396 140 563 140 c 0
 758 141 856 335 856 723 c 0
 856 1114 758 1309 561 1309 c 0
 486 1309 425 1283 380 1231 c 0
 307 1145 270 976 270 723 c 0
EndSplineSet
EndChar
StartChar: one
Encoding: 19 49 21
OldEncoding: 49
Width: 1139
Flags: W
HStem: 0 21G<583 763> 1452 20G<583 763>
VStem: 583 180<0 1472>
Fore
763 0 m 1
 583 0 l 1
 583 1135 l 1
 540 1069 474 1013 385 966 c 0
 331 937 277 918 223 907 c 1
 223 1104 l 1
 328 1153 417 1221 490 1306 c 0
 538 1363 569 1419 583 1472 c 1
 763 1472 l 1
 763 0 l 1
EndSplineSet
KernsSLIF: 19 -152 0 0
EndChar
StartChar: two
Encoding: 20 50 22
OldEncoding: 50
Width: 1139
Flags: W
HStem: 0 173<312 1031> 1333 149<541 596>
VStem: 96 185<1039 1064.12> 844 185<1049 1089>
Fore
1031 173 m 1
 1031 0 l 1
 62 0 l 1
 74 145 163 295 330 450 c 0
 361 478 396 509 437 542 c 0
 558 641 640 714 685 759 c 0
 782 858 834 955 843 1049 c 0
 844 1059 844 1069 844 1079 c 0
 844 1161 813 1226 752 1274 c 0
 702 1313 641 1333 568 1333 c 0
 459 1333 379 1294 329 1217 c 0
 298 1169 282 1110 281 1039 c 1
 96 1039 l 1
 96 1168 139 1274 224 1356 c 0
 312 1440 428 1482 572 1482 c 0
 713 1482 825 1442 910 1363 c 0
 989 1289 1029 1193 1029 1075 c 0
 1029 945 977 822 873 705 c 0
 829 656 755 588 650 501 c 2
 596 455 l 1
 430 317 l 1
 386 278 347 230 312 173 c 1
 1031 173 l 1
EndSplineSet
EndChar
StartChar: three
Encoding: 21 51 23
OldEncoding: 51
Width: 1139
Flags: W
HStem: -10 166<533 578> 1070 21G<104 284> 1317 165<533 576>
VStem: 789 185<1093 1123> 855 191<421 471>
Fore
86 427 m 1xe8
 266 427 l 1
 269 383 l 1
 281 312 317 255 377 211 c 0
 428 174 486 156 553 156 c 0
 648 156 725 187 782 248 c 0
 831 301 855 366 855 445 c 0xe8
 855 547 818 622 744 669 c 0
 698 698 642 713 576 713 c 0
 533 713 488 707 441 694 c 1
 441 852 l 1
 495 850 l 1
 582 853 654 880 711 932 c 0
 763 979 789 1037 789 1105 c 0
 789 1188 755 1248 688 1285 c 0
 649 1306 603 1317 549 1317 c 0
 407 1317 320 1244 289 1099 c 1
 284 1070 l 1
 104 1070 l 1
 104 1170 139 1259 210 1337 c 0
 283 1417 374 1464 485 1478 c 0
 505 1481 525 1482 545 1482 c 0
 662 1482 761 1448 842 1380 c 0
 923 1312 967 1226 973 1123 c 0
 974 1116 974 1108 974 1101 c 0xf0
 974 1002 936 919 861 852 c 0
 834 829 805 809 772 794 c 1
 919 760 1007 677 1036 546 c 0
 1043 516 1046 484 1046 449 c 0
 1046 325 1004 220 920 135 c 1
 881 100 l 1
 790 27 681 -10 552 -10 c 0
 429 -10 324 29 236 106 c 0
 153 178 105 267 90 372 c 0
 87 391 86 409 86 427 c 1xe8
EndSplineSet
EndChar
StartChar: four
Encoding: 22 52 24
OldEncoding: 52
Width: 1139
Flags: W
HStem: 0 21G<662 842> 347 175<251 662 842 1040> 1452 20G<662 842>
VStem: 662 180<0 347 522 1472>
Fore
662 0 m 1
 662 347 l 1
 26 347 l 1
 26 522 l 1
 662 1472 l 1
 842 1472 l 1
 842 522 l 1
 1040 522 l 1
 1040 347 l 1
 842 347 l 1
 842 0 l 1
 662 0 l 1
662 522 m 1
 662 1117 l 1
 251 522 l 1
 662 522 l 1
EndSplineSet
EndChar
StartChar: five
Encoding: 23 53 25
OldEncoding: 53
Width: 1139
Flags: W
HStem: -10 164<556 582> 817 170<553 591> 1292 180<259 988>
VStem: 866 191<485 519>
DStem: 259 1472 423 1292 117 708 344 920
Fore
85 415 m 1
 274 415 l 1
 294 284 354 202 454 169 c 0
 485 159 519 154 556 154 c 0
 658 154 738 191 795 265 c 0
 842 326 866 403 866 496 c 0
 866 619 825 708 744 764 c 0
 693 799 629 817 553 817 c 0
 454 817 372 773 306 686 c 1
 117 708 l 1
 259 1472 l 1
 988 1472 l 1
 988 1292 l 1
 423 1292 l 1
 344 920 l 1
 397 964 480 986 591 987 c 0
 601 987 l 0
 727 987 832 946 917 864 c 0
 1003 781 1049 673 1056 542 c 0
 1057 532 1057 522 1057 512 c 0
 1057 370 1015 251 932 155 c 0
 848 57 738 3 603 -8 c 0
 588 -9 572 -10 556 -10 c 0
 395 -10 272 43 187 148 c 0
 130 219 96 308 85 415 c 1
EndSplineSet
EndChar
StartChar: six
Encoding: 24 54 26
OldEncoding: 54
Width: 1139
Flags: W
HStem: -10 165<572 605> 807 170<556 603> 1305 177<572 622>
VStem: 77 194<701 842> 861 184<453 503>
Fore
1019 1103 m 1
 840 1103 l 1
 814 1220 748 1286 641 1302 c 0
 626 1304 609 1305 592 1305 c 0
 383 1305 276 1151 271 842 c 1
 332 918 415 962 522 973 c 0
 545 976 569 977 594 977 c 0
 709 977 808 937 893 858 c 0
 976 779 1026 679 1041 559 c 0
 1044 536 1045 514 1045 491 c 0
 1045 354 1006 240 929 147 c 0
 850 51 746 -1 618 -9 c 0
 607 -10 597 -10 586 -10 c 0
 363 -10 213 97 135 312 c 0
 96 418 77 548 77 701 c 0
 77 1078 171 1320 360 1425 c 0
 429 1463 510 1482 603 1482 c 0
 719 1482 817 1446 897 1374 c 0
 972 1307 1012 1225 1018 1128 c 0
 1019 1120 1019 1112 1019 1103 c 1
306 490 m 0
 306 381 336 296 395 233 c 0
 444 181 506 155 583 155 c 0
 676 155 749 191 800 263 c 0
 841 321 861 393 861 480 c 0
 861 593 828 679 762 739 c 0
 713 784 651 807 576 807 c 0
 480 807 407 769 358 692 c 0
 323 637 306 570 306 490 c 0
EndSplineSet
EndChar
StartChar: seven
Encoding: 25 55 27
OldEncoding: 55
Width: 1139
Flags: W
HStem: 0 21G<293 511> 1292 180<97 795>
VStem: 293 218<0 45.99>
Fore
97 1292 m 1
 97 1472 l 1
 1046 1472 l 1
 1046 1292 l 1
 895 1111 772 911 675 692 c 0
 566 446 511 215 511 0 c 1
 293 0 l 1
 294 235 359 494 486 776 c 0
 577 979 680 1151 795 1292 c 1
 97 1292 l 1
EndSplineSet
EndChar
StartChar: eight
Encoding: 26 56 28
OldEncoding: 56
Width: 1139
Flags: W
HStem: -10 157<546 596> 699 181<546 580> 1326 156<546 580>
VStem: 83 185<421 455> 142 184<1093 1110> 804 185<1077 1112> 865 184<432 459.272>
Fore
362 805 m 1xf2
 215 859 142 959 142 1104 c 0
 142 1218 183 1310 264 1381 c 0
 342 1448 442 1482 563 1482 c 0
 689 1482 792 1445 872 1372 c 0
 950 1301 989 1210 989 1099 c 0xec
 989 967 926 873 799 816 c 2
 773 805 l 1
 911 760 997 677 1032 556 c 0
 1043 519 1049 478 1049 434 c 1
 1045 368 l 1
 1030 233 968 132 859 65 c 0
 778 15 681 -10 566 -10 c 0
 425 -10 309 31 220 113 c 0
 130 195 84 302 83 434 c 0
 83 437 83 437 83 439 c 0
 83 588 140 696 255 762 c 0
 287 781 323 795 362 805 c 1xf2
326 1110 m 1
 326 1026 357 963 419 921 c 0
 460 894 509 880 567 880 c 0
 648 880 710 907 755 960 c 0
 788 999 804 1045 804 1100 c 0
 804 1176 775 1236 718 1279 c 0
 675 1310 624 1326 565 1326 c 0
 486 1326 424 1301 378 1250 c 1
 357 1222 l 1
 340 1189 l 1
 330 1151 l 1
 326 1110 l 1
268 438 m 0xf2
 268 347 300 273 365 218 c 0
 420 171 488 147 568 147 c 0
 666 147 743 179 799 242 c 0
 843 293 865 356 865 432 c 0
 865 535 824 610 742 657 c 0
 693 685 633 699 562 699 c 0
 453 699 373 666 320 601 c 0
 285 558 268 503 268 438 c 0xf2
EndSplineSet
EndChar
StartChar: nine
Encoding: 27 57 29
OldEncoding: 57
Width: 1139
Flags: W
HStem: -10 177<538 584> 495 170<555 594> 1317 165<553 594>
VStem: 113 184<965 1015> 887 194<630 771>
Fore
139 369 m 1
 318 369 l 1
 344 252 410 186 517 170 c 0
 532 168 549 167 566 167 c 0
 775 167 882 321 887 630 c 1
 826 554 743 510 636 499 c 0
 613 496 589 495 564 495 c 0
 449 495 350 535 265 614 c 0
 182 693 132 793 117 913 c 0
 114 936 113 958 113 981 c 0
 113 1118 152 1232 229 1325 c 0
 308 1421 412 1473 540 1481 c 0
 551 1482 561 1482 572 1482 c 0
 795 1482 945 1375 1023 1160 c 0
 1062 1054 1081 924 1081 771 c 0
 1081 394 987 152 798 47 c 0
 729 9 648 -10 555 -10 c 0
 439 -10 341 26 261 98 c 0
 186 165 146 247 140 344 c 0
 139 352 139 360 139 369 c 1
852 982 m 0
 852 1091 822 1176 763 1239 c 0
 714 1291 652 1317 575 1317 c 0
 482 1317 409 1281 358 1209 c 1
 335 1170 l 1
 310 1119 297 1060 297 992 c 0
 297 879 330 793 396 733 c 0
 445 688 507 665 582 665 c 0
 678 665 751 703 800 780 c 0
 835 835 852 902 852 982 c 0
EndSplineSet
EndChar
StartChar: colon
Encoding: 28 58 30
OldEncoding: 58
Width: 569
Flags: W
HStem: 0 205<185 390> 857 205<185 390>
VStem: 185 205<0 205 857 1062>
Fore
185 857 m 1
 185 1062 l 1
 390 1062 l 1
 390 857 l 1
 185 857 l 1
185 0 m 1
 185 205 l 1
 390 205 l 1
 390 0 l 1
 185 0 l 1
EndSplineSet
EndChar
StartChar: semicolon
Encoding: 29 59 31
OldEncoding: 59
Width: 569
Flags: W
HStem: -20 20G<182 284> 857 205<182 387>
VStem: 182 205<-1 205 857 1062>
Fore
182 857 m 1
 182 1062 l 1
 387 1062 l 1
 387 857 l 1
 182 857 l 1
182 0 m 1
 182 205 l 1
 387 205 l 1
 387 0 l 2
 387 -120 351 -206 278 -257 c 1
 261 -270 242 -281 220 -290 c 1
 170 -213 l 1
 225 -189 259 -147 273 -87 c 0
 279 -63 283 -34 284 0 c 1
 182 0 l 1
EndSplineSet
EndChar
StartChar: less
Encoding: 30 60 32
OldEncoding: 60
Width: 1196
Flags: W
DStem: 112 641 313 724 1083 226 1083 405 1083 1219 1083 1040 112 809 313 724
Fore
112 641 m 1
 112 809 l 1
 1083 1219 l 1
 1083 1040 l 1
 313 724 l 1
 1083 405 l 1
 1083 226 l 1
 112 641 l 1
EndSplineSet
EndChar
StartChar: equal
Encoding: 31 61 33
OldEncoding: 61
Width: 1196
Flags: W
HStem: 417 168<114 1082> 862 168<114 1082>
Fore
1082 862 m 1
 114 862 l 1
 114 1030 l 1
 1082 1030 l 1
 1082 862 l 1
1082 417 m 1
 114 417 l 1
 114 585 l 1
 1082 585 l 1
 1082 417 l 1
EndSplineSet
EndChar
StartChar: greater
Encoding: 32 62 34
OldEncoding: 62
Width: 1196
Flags: W
DStem: 112 1040 112 1219 881 724 1083 809
Fore
1083 641 m 1
 112 226 l 1
 112 405 l 1
 881 724 l 1
 112 1040 l 1
 112 1219 l 1
 1083 809 l 1
 1083 641 l 1
EndSplineSet
EndChar
StartChar: question
Encoding: 33 63 35
OldEncoding: 63
Width: 1139
Flags: W
HStem: 0 205<461 666> 1341 163<553 591>
VStem: 461 205<0 205> 853 182<1088 1110.19>
Fore
472 361 m 1
 474 436 l 1
 482 547 520 641 589 719 c 0
 606 738 643 773 700 826 c 0
 759 879 800 928 823 972 c 0
 842 1009 852 1048 853 1088 c 0
 853 1127 844 1164 825 1199 c 0
 792 1263 738 1306 665 1328 c 0
 634 1337 602 1341 568 1341 c 0
 428 1340 336 1268 292 1123 c 0
 285 1099 279 1073 275 1046 c 1
 90 1046 l 1
 97 1175 142 1282 223 1367 c 0
 311 1458 425 1504 565 1504 c 0
 696 1504 806 1467 896 1392 c 0
 979 1323 1025 1239 1035 1138 c 1
 1036 1084 l 1
 1033 1027 1018 971 991 914 c 0
 972 875 934 830 878 780 c 0
 819 729 782 694 766 676 c 0
 693 597 653 502 646 389 c 0
 645 380 645 370 645 361 c 1
 472 361 l 1
461 0 m 1
 461 205 l 1
 666 205 l 1
 666 0 l 1
 461 0 l 1
EndSplineSet
EndChar
StartChar: at
Encoding: 34 64 36
OldEncoding: 64
Width: 2079
Flags: W
HStem: -431 157<1070 1168> -3 164<854 891> 925 159<1006 1040> 1338 155<1054 1135>
VStem: 111 158<448 514> 502 181<432 487> 1799 157<688 754>
Fore
1161 121 m 1
 1090 38 987 -3 854 -3 c 0
 747 -3 661 44 595 138 c 0
 533 225 502 333 502 461 c 0
 502 570 526 671 574 764 c 0
 629 873 702 957 792 1015 c 0
 862 1061 935 1084 1011 1084 c 0
 1153 1084 1254 1035 1313 938 c 1
 1347 1079 l 1
 1526 1079 l 1
 1380 379 l 1
 1367 315 1358 265 1352 229 c 1
 1353 212 l 1
 1356 202 1362 192 1372 182 c 0
 1386 169 1403 163 1422 163 c 0
 1492 163 1563 206 1634 291 c 0
 1703 374 1752 471 1780 580 c 0
 1793 628 1799 673 1799 716 c 0
 1799 885 1742 1025 1627 1138 c 0
 1522 1242 1386 1306 1220 1329 c 0
 1179 1335 1136 1338 1093 1338 c 0
 882 1338 704 1276 557 1152 c 0
 525 1125 495 1095 468 1063 c 0
 350 924 284 754 271 553 c 0
 270 531 269 508 269 485 c 0
 269 220 358 22 535 -110 c 0
 682 -219 877 -274 1120 -274 c 0
 1346 -274 1532 -224 1677 -125 c 0
 1737 -84 1786 -36 1824 19 c 1
 2005 19 l 1
 1941 -113 1835 -219 1686 -300 c 0
 1525 -387 1337 -431 1123 -431 c 0
 831 -431 596 -361 418 -222 c 0
 240 -83 139 112 116 361 c 0
 113 396 111 432 111 469 c 0
 111 705 171 911 291 1087 c 0
 406 1256 562 1373 758 1439 c 0
 865 1475 979 1493 1102 1493 c 0
 1311 1493 1491 1439 1642 1332 c 0
 1785 1231 1879 1098 1926 933 c 0
 1946 863 1956 790 1956 713 c 0
 1956 575 1918 440 1843 307 c 0
 1772 181 1683 88 1577 28 c 0
 1504 -13 1430 -33 1354 -33 c 0
 1308 -33 1271 -26 1242 -12 c 0
 1214 2 1193 22 1180 48 c 0
 1170 67 1164 91 1161 121 c 1
891 161 m 0
 985 161 1066 207 1133 299 c 0
 1194 382 1229 480 1240 593 c 0
 1242 612 1243 630 1243 649 c 0
 1243 768 1209 850 1140 894 c 0
 1107 915 1069 925 1024 925 c 0
 912 925 823 862 756 737 c 0
 743 713 732 687 722 660 c 0
 717 648 713 636 709 623 c 0
 692 567 683 510 683 453 c 0
 683 350 708 272 758 218 c 0
 794 180 838 161 891 161 c 0
EndSplineSet
EndChar
StartChar: A
Encoding: 35 65 37
OldEncoding: 65
Width: 1366
Flags: W
HStem: 0 21G<-2 203 1149 1368> 471 182<435 948> 1430 20G<559 768>
DStem: 559 1450 659 1237 -2 0 435 653 559 1450 392 471 -2 0 203 0 659 1237 768 1450 903 653 1368 0
Fore
559 1450 m 1
 768 1450 l 1
 1368 0 l 1
 1149 0 l 1
 948 471 l 1
 392 471 l 1
 203 0 l 1
 -2 0 l 1
 559 1450 l 1
903 653 m 1
 659 1237 l 1
 435 653 l 1
 903 653 l 1
EndSplineSet
KernsSLIF: 91 -37 0 0 89 -37 0 0 88 -37 0 0 59 -152 0 0 57 -76 0 0 56 -152 0 0 54 -152 0 0
EndChar
StartChar: B
Encoding: 36 66 38
OldEncoding: 66
Width: 1366
Flags: W
HStem: 0 173<344 757> 669 173<344 711> 1277 173<164 702>
VStem: 164 180<0 669 0 1277> 995 191<1054 1081> 1056 201<421 433>
Fore
164 0 m 1xf4
 164 1450 l 1
 700 1450 l 2
 812 1450 902 1435 970 1406 c 0
 1045 1373 1102 1320 1142 1249 c 0
 1171 1196 1186 1140 1186 1079 c 0
 1186 1019 1169 961 1135 906 c 0
 1101 851 1050 806 981 772 c 1
 1070 746 1138 702 1186 639 c 0xf8
 1233 576 1257 504 1257 421 c 0
 1257 326 1229 240 1172 164 c 0
 1152 137 1130 115 1106 97 c 0
 1063 65 1010 41 946 24 c 0
 881 8 802 0 709 0 c 2
 164 0 l 1xf4
344 842 m 1
 661 842 l 2
 747 842 809 848 846 859 c 0
 945 888 995 954 995 1056 c 0
 995 1136 967 1195 910 1233 c 0
 895 1243 878 1251 860 1256 c 0
 817 1270 742 1277 637 1277 c 2
 344 1277 l 1
 344 842 l 1
344 173 m 1
 709 173 l 2
 798 173 861 180 898 193 c 0
 916 199 934 208 953 220 c 0
 1012 257 1045 312 1054 386 c 0
 1055 397 1056 409 1056 421 c 0xf4
 1056 510 1022 576 953 619 c 0
 936 630 918 638 898 644 c 0
 848 661 776 669 683 669 c 2
 344 669 l 1
 344 173 l 1
EndSplineSet
EndChar
StartChar: C
Encoding: 37 67 39
OldEncoding: 67
Width: 1479
Flags: W
HStem: -10 180<757 823> 1297 180<757 823>
VStem: 102 197<709 775>
Fore
1210 480 m 1
 1398 480 l 1
 1349 287 1253 150 1110 68 c 0
 1019 16 912 -10 791 -10 c 0
 633 -10 505 22 406 86 c 0
 307 151 231 244 180 366 c 0
 128 488 102 614 102 745 c 0
 102 888 131 1016 190 1130 c 0
 248 1243 331 1329 438 1388 c 0
 546 1447 665 1477 794 1477 c 0
 941 1477 1064 1440 1164 1365 c 0
 1264 1290 1334 1185 1373 1050 c 1
 1185 1050 l 1
 1148 1171 1065 1247 934 1280 c 0
 890 1291 842 1297 790 1297 c 0
 677 1297 583 1270 508 1216 c 0
 369 1117 299 960 299 746 c 0
 299 635 321 531 364 434 c 0
 421 309 512 228 637 191 c 0
 684 177 735 170 788 170 c 0
 914 170 1017 204 1098 272 c 0
 1165 328 1202 397 1210 480 c 1
EndSplineSet
EndChar
StartChar: D
Encoding: 38 68 40
OldEncoding: 68
Width: 1479
Flags: W
HStem: 0 173<350 713> 1277 173<168 713>
VStem: 168 182<0 1277> 1183 197<686 769>
Fore
168 0 m 1
 168 1450 l 1
 673 1450 l 2
 972 1450 1175 1362 1281 1186 c 0
 1347 1077 1380 926 1380 733 c 0
 1380 318 1217 80 891 17 c 0
 832 6 767 0 697 0 c 2
 168 0 l 1
350 173 m 1
 675 173 l 2
 998 173 1167 344 1182 686 c 0
 1183 702 1183 719 1183 736 c 0
 1183 1069 1037 1248 746 1274 c 0
 721 1276 696 1277 670 1277 c 2
 350 1277 l 1
 350 173 l 1
EndSplineSet
EndChar
StartChar: E
Encoding: 39 69 41
OldEncoding: 69
Width: 1366
Flags: W
HStem: 0 179<341 1222> 646 180<341 1021> 1268 182<162 1222>
VStem: 162 179<0 646 0 1268>
Fore
162 0 m 1
 162 1450 l 1
 1222 1450 l 1
 1222 1268 l 1
 341 1268 l 1
 341 826 l 1
 1021 826 l 1
 1021 646 l 1
 341 646 l 1
 341 179 l 1
 1222 179 l 1
 1222 0 l 1
 162 0 l 1
EndSplineSet
EndChar
StartChar: F
Encoding: 40 70 42
OldEncoding: 70
Width: 1251
Flags: W
HStem: 0 21G<168 347> 641 179<347 1009> 1271 179<168 1157>
VStem: 168 179<0 641 0 1271>
Fore
168 0 m 1
 168 1450 l 1
 1157 1450 l 1
 1157 1271 l 1
 347 1271 l 1
 347 820 l 1
 1009 820 l 1
 1009 641 l 1
 347 641 l 1
 347 0 l 1
 168 0 l 1
EndSplineSet
KernsSLIF: 35 -113 0 0 16 -227 0 0 14 -227 0 0
EndChar
StartChar: G
Encoding: 41 71 43
OldEncoding: 71
Width: 1479
Flags: W
HStem: -10 180<757 816> 504 180<905 1212> 1297 180<757 823>
VStem: 102 197<709 775> 905 499<504 684>
Fore
1404 684 m 1
 1404 666 1404 666 1404 650 c 0
 1403 497 1389 387 1362 320 c 0
 1345 276 1311 224 1260 164 c 0
 1257 161 1255 159 1253 156 c 0
 1154 45 1000 -10 791 -10 c 0
 633 -10 505 22 406 86 c 0
 307 151 231 244 180 366 c 0
 128 488 102 614 102 745 c 0
 102 888 131 1016 190 1130 c 0
 248 1243 331 1329 438 1388 c 0
 546 1447 665 1477 794 1477 c 0
 941 1477 1064 1440 1164 1365 c 0
 1264 1290 1334 1185 1373 1050 c 1
 1185 1050 l 1
 1174 1087 1158 1119 1138 1148 c 0
 1068 1247 952 1297 790 1297 c 0
 677 1297 583 1270 508 1216 c 0
 369 1117 299 960 299 746 c 0
 299 635 321 531 364 434 c 0
 382 394 404 358 430 327 c 0
 516 222 635 170 788 170 c 0
 797 170 807 170 816 171 c 0
 939 176 1037 214 1112 284 c 1
 1126 299 l 2
 1173 350 1201 405 1210 465 c 1
 1212 504 l 1
 905 504 l 1
 905 684 l 1
 1404 684 l 1
EndSplineSet
EndChar
StartChar: H
Encoding: 42 72 44
OldEncoding: 72
Width: 1479
Flags: W
HStem: 668 180<344 1134> 1430 20G<164 344 1134 1314>
VStem: 164 180<0 668 0 1450> 1134 180<0 1450>
Fore
164 0 m 1
 164 1450 l 1
 344 1450 l 1
 344 848 l 1
 1134 848 l 1
 1134 1450 l 1
 1314 1450 l 1
 1314 0 l 1
 1134 0 l 1
 1134 668 l 1
 344 668 l 1
 344 0 l 1
 164 0 l 1
EndSplineSet
EndChar
StartChar: I
Encoding: 43 73 45
OldEncoding: 73
Width: 650
Flags: W
HStem: 0 160<25 625> 1290 160<25 235 25 625>
VStem: 235 180<160 1290>
Fore
625 160 m 1
 625 0 l 1
 25 0 l 1
 25 160 l 1
 235 160 l 1
 235 1290 l 1
 25 1290 l 1
 25 1450 l 1
 625 1450 l 1
 625 1290 l 1
 415 1290 l 1
 415 160 l 1
 625 160 l 1
EndSplineSet
EndChar
StartChar: J
Encoding: 44 74 46
OldEncoding: 74
Width: 1024
Flags: W
HStem: -10 180<447 463> 1280 170<408 685>
VStem: 685 180<406 1280>
Fore
865 1450 m 1
 865 456 l 2
 865 331 847 237 811 172 c 0
 803 157 794 143 783 129 c 0
 720 47 630 1 513 -8 c 1
 463 -10 l 1
 338 -10 242 24 173 92 c 0
 164 100 156 109 148 118 c 0
 99 176 71 264 66 381 c 0
 65 402 64 427 64 455 c 1
 244 455 l 1
 247 378 l 1
 252 323 266 279 291 246 c 0
 329 195 386 170 462 170 c 0
 520 170 566 183 600 209 c 0
 615 220 630 235 645 252 c 0
 670 281 684 333 685 408 c 0
 685 421 685 421 685 471 c 2
 685 1280 l 1
 408 1280 l 1
 408 1450 l 1
 865 1450 l 1
EndSplineSet
EndChar
StartChar: K
Encoding: 45 75 47
OldEncoding: 75
Width: 1366
Flags: W
HStem: 0 21G<150 330 1113 1346> 1430 20G<150 330 1072 1316>
VStem: 150 180<0 539 0 1450>
DStem: 1072 1450 1316 1450 330 785 610 806
Fore
150 0 m 1
 150 1450 l 1
 330 1450 l 1
 330 785 l 1
 1072 1450 l 1
 1316 1450 l 1
 610 806 l 1
 1346 0 l 1
 1113 0 l 1
 479 670 l 1
 330 539 l 1
 330 0 l 1
 150 0 l 1
EndSplineSet
EndChar
StartChar: L
Encoding: 46 76 48
OldEncoding: 76
Width: 1139
Flags: W
HStem: 0 170<329 1060> 1430 20G<150 330>
VStem: 150 180<0 1450>
Fore
150 0 m 1
 150 1450 l 1
 330 1450 l 1
 330 170 l 1
 1060 170 l 1
 1060 0 l 1
 150 0 l 1
EndSplineSet
KernsSLIF: 91 -76 0 0 59 -152 0 0 57 -152 0 0 56 -152 0 0 54 -152 0 0
EndChar
StartChar: M
Encoding: 47 77 49
OldEncoding: 77
Width: 1706
Flags: W
HStem: 0 21G<152 332 706 996 1370 1550> 1430 20G<152 332 1370 1550>
VStem: 152 180<0 964> 1370 180<0 1450>
DStem: 332 964 332 1450 706 0 851 133 1370 1450 1370 964 851 133 996 0
Fore
152 0 m 1
 152 1450 l 1
 332 1450 l 1
 851 133 l 1
 1370 1450 l 1
 1550 1450 l 1
 1550 0 l 1
 1370 0 l 1
 1370 964 l 1
 996 0 l 1
 706 0 l 1
 332 964 l 1
 332 0 l 1
 152 0 l 1
EndSplineSet
EndChar
StartChar: N
Encoding: 48 78 50
OldEncoding: 78
Width: 1479
Flags: W
HStem: 0 21G<156 336 1131 1311> 1430 20G<156 336 1131 1311>
VStem: 156 180<0 1136> 1131 180<315 1450>
DStem: 336 1136 336 1450 1131 0 1131 315
Fore
156 0 m 1
 156 1450 l 1
 336 1450 l 1
 1131 315 l 1
 1131 1450 l 1
 1311 1450 l 1
 1311 0 l 1
 1131 0 l 1
 336 1136 l 1
 336 0 l 1
 156 0 l 1
EndSplineSet
EndChar
StartChar: O
Encoding: 49 79 51
OldEncoding: 79
Width: 1593
Flags: W
HStem: -10 180<775 825> 1298 180<775 825>
VStem: 104 200<677 759> 1296 200<693 775>
Fore
104 714 m 0
 104 949 165 1135 288 1271 c 1
 415 1407 586 1476 801 1478 c 1
 1000 1478 1162 1416 1287 1293 c 0
 1406 1176 1474 1020 1492 825 c 0
 1495 794 1496 763 1496 731 c 0
 1496 524 1440 354 1329 221 c 0
 1222 93 1080 18 901 -4 c 0
 868 -8 835 -10 800 -10 c 0
 610 -10 452 48 326 165 c 0
 211 272 140 410 114 580 c 0
 107 624 104 669 104 714 c 0
304 711 m 0
 304 528 356 388 460 291 c 0
 546 210 659 170 799 170 c 0
 978 170 1110 233 1197 358 c 0
 1263 453 1296 578 1296 732 c 0
 1296 927 1244 1074 1139 1175 c 0
 1054 1257 941 1298 802 1298 c 0
 579 1298 430 1206 355 1021 c 0
 321 936 304 832 304 711 c 0
EndSplineSet
EndChar
StartChar: P
Encoding: 50 80 52
OldEncoding: 80
Width: 1366
Flags: W
HStem: 0 21G<158 338> 580 173<338 767> 1277 173<158 767>
VStem: 158 180<0 580 0 1277> 1077 200<1007 1041>
Fore
158 0 m 1
 158 1450 l 1
 711 1450 l 2
 846 1450 944 1440 1005 1421 c 0
 1044 1409 1080 1391 1115 1368 c 0
 1181 1322 1228 1255 1255 1168 c 0
 1270 1123 1277 1075 1277 1026 c 0
 1277 901 1237 796 1158 710 c 0
 1079 623 935 580 728 580 c 2
 338 580 l 1
 338 0 l 1
 158 0 l 1
338 753 m 1
 731 753 l 2
 856 753 945 776 998 823 c 0
 1051 870 1077 935 1077 1020 c 0
 1077 1107 1048 1174 990 1222 c 1
 959 1243 l 1
 943 1252 926 1259 908 1264 c 0
 875 1273 815 1277 727 1277 c 2
 338 1277 l 1
 338 753 l 1
EndSplineSet
KernsSLIF: 35 -152 0 0 16 -264 0 0 14 -264 0 0
EndChar
StartChar: Q
Encoding: 51 81 53
OldEncoding: 81
Width: 1659
Flags: W
HStem: -10 177<775 820> 297 178<893 921> 1298 180<775 824>
VStem: 104 200<671 755> 1296 200<705 771>
Fore
1194 354 m 1
 1252 426 1285 532 1294 673 c 0
 1295 692 1296 712 1296 732 c 0
 1296 927 1244 1074 1139 1175 c 0
 1054 1257 941 1298 802 1298 c 0
 579 1298 430 1206 355 1021 c 0
 321 936 304 832 304 711 c 0
 304 527 356 387 460 290 c 0
 485 267 513 247 543 230 c 1
 565 314 617 379 699 424 c 0
 736 445 777 460 822 468 c 0
 846 473 870 475 895 475 c 0
 986 474 1068 449 1141 399 c 0
 1162 385 1179 370 1194 354 c 1
1317 204 m 1
 1334 185 1358 176 1390 175 c 0
 1404 175 1419 177 1435 181 c 0
 1474 190 1506 206 1533 228 c 1
 1659 90 l 1
 1585 21 1498 -14 1399 -14 c 0
 1344 -14 1292 -3 1244 20 c 0
 1207 38 1178 61 1156 88 c 1
 1077 36 993 5 904 -5 c 1
 820 -10 l 2
 800 -10 l 0
 610 -10 452 48 326 165 c 0
 211 272 140 410 114 580 c 0
 107 624 104 669 104 714 c 0
 104 949 165 1135 288 1271 c 1
 415 1407 586 1476 801 1478 c 1
 1000 1478 1162 1416 1287 1293 c 0
 1406 1176 1474 1020 1492 825 c 0
 1495 794 1496 763 1496 731 c 0
 1496 526 1457 371 1378 266 c 0
 1359 242 1339 221 1317 204 c 1
1050 226 m 1
 1010 273 963 297 908 297 c 0
 897 297 887 296 876 294 c 0
 807 281 761 243 740 181 c 0
 739 178 739 176 738 174 c 1
 755 169 776 167 803 167 c 0
 880 168 947 179 1006 202 c 0
 1024 209 1039 217 1050 226 c 1
EndSplineSet
EndChar
StartChar: R
Encoding: 52 82 54
OldEncoding: 82
Width: 1400
Flags: W
HStem: 0 21G<158 338 1107 1387> 580 173<338 698> 1277 173<158 767>
VStem: 158 180<0 580 0 1277> 1077 200<1007 1041>
Fore
698 580 m 1
 338 580 l 1
 338 0 l 1
 158 0 l 1
 158 1450 l 1
 711 1450 l 2
 846 1450 944 1440 1005 1421 c 0
 1044 1409 1080 1391 1115 1368 c 0
 1181 1322 1228 1255 1255 1168 c 0
 1270 1123 1277 1075 1277 1026 c 0
 1277 901 1237 796 1158 710 c 0
 1107 654 1029 616 924 596 c 1
 1387 0 l 1
 1107 0 l 1
 698 580 l 1
338 753 m 1
 731 753 l 2
 856 753 945 776 998 823 c 0
 1051 870 1077 935 1077 1020 c 0
 1077 1107 1048 1174 990 1222 c 1
 959 1243 l 1
 943 1252 926 1259 908 1264 c 0
 875 1273 815 1277 727 1277 c 2
 338 1277 l 1
 338 753 l 1
EndSplineSet
KernsSLIF: 59 -37 0 0 57 -37 0 0 56 -37 0 0 54 -37 0 0
EndChar
StartChar: S
Encoding: 53 83 55
OldEncoding: 83
Width: 1366
Flags: W
HStem: -10 174<670 733> 1300 171<635 701>
VStem: 148 187<1061 1095> 1072 187<405 431>
Fore
92 502 m 1
 275 502 l 1
 294 346 373 243 512 194 c 0
 569 174 634 164 708 164 c 0
 829 164 923 191 991 245 c 0
 1045 289 1072 345 1072 413 c 0
 1072 496 1030 555 946 592 c 0
 921 603 891 613 855 622 c 1
 639 666 l 1
 486 703 377 742 310 781 c 0
 209 841 155 928 149 1041 c 0
 148 1050 148 1058 148 1067 c 0
 148 1193 200 1293 303 1367 c 0
 398 1436 519 1471 664 1471 c 0
 825 1471 957 1428 1060 1342 c 0
 1080 1325 1098 1307 1115 1287 c 1
 1146 1245 l 1
 1179 1195 1200 1139 1209 1078 c 1
 1215 1019 l 1
 1029 1019 l 1
 1018 1115 974 1189 898 1240 c 0
 837 1280 762 1300 672 1300 c 0
 531 1300 433 1267 378 1202 c 0
 349 1168 335 1127 335 1080 c 0
 335 1009 370 956 439 923 c 0
 474 906 541 887 641 865 c 0
 659 861 673 858 684 856 c 0
 843 820 951 791 1009 768 c 0
 1116 727 1187 671 1224 598 c 0
 1247 551 1259 495 1259 429 c 0
 1259 302 1209 198 1109 117 c 0
 1016 40 898 -2 755 -9 c 0
 742 -10 730 -10 717 -10 c 0
 477 -10 304 55 198 186 c 0
 131 269 95 374 92 502 c 1
EndSplineSet
EndChar
StartChar: T
Encoding: 54 84 56
OldEncoding: 84
Width: 1251
Flags: W
HStem: 0 21G<538 718> 1280 170<48 538 48 1210>
VStem: 538 180<0 1280>
Fore
538 0 m 1
 538 1280 l 1
 48 1280 l 1
 48 1450 l 1
 1210 1450 l 1
 1210 1280 l 1
 718 1280 l 1
 718 0 l 1
 538 0 l 1
EndSplineSet
KernsSLIF: 91 -113 0 0 89 -113 0 0 87 -76 0 0 85 -227 0 0 84 -76 0 0 81 -227 0 0 75 -76 0 0 71 -227 0 0 69 -227 0 0 67 -227 0 0 49 -37 0 0 35 -152 0 0 29 -227 0 0 28 -227 0 0 16 -227 0 0 15 -113 0 0 14 -227 0 0
EndChar
StartChar: U
Encoding: 55 85 57
OldEncoding: 85
Width: 1479
Flags: W
HStem: -10 180<704 770> 1430 20G<161 341 1134 1314>
VStem: 161 180<533 1450> 1134 180<533 1450>
Fore
1134 1450 m 1
 1314 1450 l 1
 1314 567 l 2
 1314 182 1123 -10 741 -10 c 0
 391 -10 199 147 166 460 c 0
 163 494 161 530 161 567 c 2
 161 1450 l 1
 341 1450 l 1
 341 568 l 2
 341 349 432 221 614 182 c 0
 651 174 692 170 737 170 c 0
 918 170 1036 226 1091 338 c 0
 1120 395 1134 472 1134 568 c 2
 1134 1450 l 1
EndSplineSet
EndChar
StartChar: V
Encoding: 56 86 58
OldEncoding: 86
Width: 1366
Flags: W
HStem: 0 21G<577 776> 1430 20G<9 219 1152 1350>
DStem: 9 1450 219 1450 577 0 677 279
Fore
577 0 m 1
 9 1450 l 1
 219 1450 l 1
 677 279 l 1
 1152 1450 l 1
 1350 1450 l 1
 776 0 l 1
 577 0 l 1
EndSplineSet
KernsSLIF: 91 -76 0 0 87 -76 0 0 84 -76 0 0 81 -113 0 0 75 -37 0 0 71 -113 0 0 67 -152 0 0 35 -152 0 0 29 -76 0 0 28 -76 0 0 16 -188 0 0 15 -113 0 0 14 -188 0 0
EndChar
StartChar: W
Encoding: 57 87 59
OldEncoding: 87
Width: 1933
Flags: W
HStem: 0 21G<414 612 1310 1508> 1430 20G<25 224 834 1088 1698 1897>
DStem: 25 1450 224 1450 414 0 513 390 834 1450 961 1170 513 390 612 0 961 1170 1088 1450 1310 0 1409 390 1698 1450 1897 1450 1409 390 1508 0
Fore
414 0 m 1
 25 1450 l 1
 224 1450 l 1
 513 390 l 1
 834 1450 l 1
 1088 1450 l 1
 1409 390 l 1
 1698 1450 l 1
 1897 1450 l 1
 1508 0 l 1
 1310 0 l 1
 961 1170 l 1
 612 0 l 1
 414 0 l 1
EndSplineSet
KernsSLIF: 91 -18 0 0 87 -37 0 0 84 -37 0 0 81 -37 0 0 71 -37 0 0 67 -76 0 0 35 -76 0 0 29 -37 0 0 28 -37 0 0 16 -113 0 0 15 -37 0 0 14 -113 0 0
EndChar
StartChar: X
Encoding: 58 88 60
OldEncoding: 88
Width: 1366
Flags: W
HStem: 0 21G<9 239 1123 1353> 1430 20G<76 306 1083 1313>
DStem: 564 756 681 613 9 0 239 0 681 613 798 756 1123 0 1353 0 1083 1450 1313 1450 681 902 798 756
Fore
9 0 m 1
 564 756 l 1
 76 1450 l 1
 306 1450 l 1
 681 902 l 1
 1083 1450 l 1
 1313 1450 l 1
 798 756 l 1
 1353 0 l 1
 1123 0 l 1
 681 613 l 1
 239 0 l 1
 9 0 l 1
EndSplineSet
EndChar
StartChar: Y
Encoding: 59 89 61
OldEncoding: 89
Width: 1366
Flags: W
HStem: 0 21G<571 765> 1431 20G<6 236 1120 1350>
VStem: 571 194<0 621>
Fore
571 0 m 1
 571 621 l 1
 6 1451 l 1
 236 1451 l 1
 680 855 l 1
 1120 1451 l 1
 1350 1451 l 1
 765 621 l 1
 765 0 l 1
 571 0 l 1
EndSplineSet
KernsSLIF: 88 -113 0 0 87 -113 0 0 83 -188 0 0 82 -152 0 0 81 -188 0 0 75 -76 0 0 71 -188 0 0 67 -152 0 0 35 -152 0 0 29 -133 0 0 28 -113 0 0 16 -264 0 0 15 -188 0 0 14 -264 0 0
EndChar
StartChar: Z
Encoding: 60 90 62
OldEncoding: 90
Width: 1251
Flags: W
HStem: 0 180<325 1200> 1270 180<45 945>
Fore
41 0 m 1
 41 187 l 1
 945 1270 l 1
 45 1270 l 1
 45 1450 l 1
 1213 1450 l 1
 1213 1270 l 1
 325 180 l 1
 1200 180 l 1
 1200 0 l 1
 41 0 l 1
EndSplineSet
EndChar
StartChar: bracketleft
Encoding: 61 91 63
OldEncoding: 91
Width: 569
Flags: W
HStem: -407 149<319 536> 1317 149<139 536>
VStem: 139 180<-407 1317>
Fore
139 -407 m 1
 139 1466 l 1
 536 1466 l 1
 536 1317 l 1
 319 1317 l 1
 319 -258 l 1
 536 -258 l 1
 536 -407 l 1
 139 -407 l 1
EndSplineSet
EndChar
StartChar: backslash
Encoding: 62 92 64
OldEncoding: 92
Width: 569
Flags: W
DStem: 0 1491 145 1491 425 -25 569 -25
Fore
425 -25 m 1
 0 1491 l 1
 145 1491 l 1
 569 -25 l 1
 425 -25 l 1
EndSplineSet
EndChar
StartChar: bracketright
Encoding: 63 93 65
OldEncoding: 93
Width: 569
Flags: W
HStem: -407 149<39 436> 1317 149<39 256>
VStem: 256 180<-258 1466>
Fore
436 -407 m 1
 39 -407 l 1
 39 -258 l 1
 256 -258 l 1
 256 1317 l 1
 39 1317 l 1
 39 1466 l 1
 436 1466 l 1
 436 -407 l 1
EndSplineSet
EndChar
StartChar: asciicircum
Encoding: 64 94 66
OldEncoding: 94
Width: 961
Flags: W
Fore
239 690 m 1
 54 690 l 1
 407 1491 l 1
 552 1491 l 1
 907 690 l 1
 726 690 l 1
 479 1287 l 1
 239 690 l 1
EndSplineSet
EndChar
StartChar: underscore
Encoding: 65 95 67
OldEncoding: 95
Width: 1139
Flags: W
HStem: -407 130<-31 1162>
Fore
-31 -407 m 1
 -31 -277 l 1
 1162 -277 l 1
 1162 -407 l 1
 -31 -407 l 1
EndSplineSet
EndChar
StartChar: grave
Encoding: 66 96 68
OldEncoding: 96
Width: 682
Flags: W
HStem: 1194 280<89 465>
Fore
465 1194 m 1
 320 1194 l 1
 89 1474 l 1
 330 1474 l 1
 465 1194 l 1
EndSplineSet
EndChar
StartChar: a
Encoding: 67 97 69
OldEncoding: 97
Width: 1139
Flags: W
HStem: -24 141<437 480> 937 149<553 586>
VStem: 74 192<278 297> 813 182<427 533 674 745>
Fore
828 131 m 1
 761 74 697 34 636 11 c 0
 574 -12 508 -24 437 -24 c 0
 320 -24 231 5 168 62 c 0
 105 119 74 191 74 280 c 0
 74 332 86 379 110 422 c 0
 133 465 164 500 202 526 c 0
 241 552 284 572 332 585 c 0
 367 594 421 603 492 612 c 0
 637 629 744 650 813 674 c 1
 814 699 814 714 814 721 c 0
 814 794 797 846 763 876 c 0
 717 917 649 937 558 937 c 0
 473 937 411 922 370 892 c 0
 330 863 300 810 281 735 c 1
 105 759 l 1
 121 834 147 895 184 942 c 0
 221 988 274 1023 343 1048 c 0
 412 1073 493 1086 584 1086 c 0
 675 1086 748 1075 805 1054 c 0
 862 1033 903 1006 930 974 c 0
 957 941 975 900 986 851 c 0
 992 820 995 765 995 685 c 2
 995 445 l 2
 995 278 999 172 1006 128 c 0
 1014 83 1029 41 1052 0 c 1
 864 0 l 1
 845 37 833 81 828 131 c 1
813 533 m 1
 748 506 650 484 519 465 c 0
 445 454 393 442 362 429 c 0
 331 416 308 396 291 370 c 0
 274 345 266 316 266 285 c 0
 266 237 284 197 320 165 c 0
 357 133 410 117 480 117 c 0
 549 117 611 132 665 162 c 0
 719 193 759 234 784 287 c 0
 803 328 813 388 813 467 c 2
 813 533 l 1
EndSplineSet
EndChar
StartChar: b
Encoding: 68 98 70
OldEncoding: 98
Width: 1139
Flags: W
HStem: -10 159<565 605> 921 165<579 615> 1446 20G<134 314>
VStem: 134 178<0 567 0 1466> 883 172<517 567>
Fore
301 0 m 1
 134 0 l 1
 134 1466 l 1
 314 1466 l 1
 314 943 l 1
 390 1038 487 1086 605 1086 c 0
 747 1086 859 1032 942 924 c 0
 1017 825 1055 699 1055 547 c 0
 1055 372 1010 233 921 131 c 0
 839 37 731 -10 596 -10 c 0
 490 -10 403 21 334 84 c 0
 322 95 311 106 301 119 c 1
 301 0 l 1
312 539 m 0
 312 385 350 274 427 206 c 0
 470 168 522 149 581 149 c 0
 686 150 765 193 820 278 c 0
 862 345 883 429 883 532 c 0
 883 681 845 790 768 857 c 0
 720 900 660 921 589 921 c 0
 517 921 455 889 402 824 c 0
 342 750 312 655 312 539 c 0
EndSplineSet
EndChar
StartChar: c
Encoding: 69 99 71
OldEncoding: 99
Width: 1024
Flags: W
HStem: -10 170<543 577> 916 170<543 593>
VStem: 80 185<501 567>
Fore
828 403 m 1
 1005 403 l 1
 1000 244 941 129 829 58 c 0
 757 13 668 -10 563 -10 c 0
 437 -10 330 31 241 113 c 0
 143 205 90 329 81 485 c 0
 80 499 80 513 80 527 c 0
 80 714 129 858 228 958 c 0
 313 1043 425 1086 564 1086 c 0
 729 1086 850 1036 925 936 c 0
 969 878 995 806 1002 719 c 0
 1003 712 1003 704 1003 696 c 1
 828 696 l 1
 821 765 789 821 732 864 c 0
 685 899 632 916 571 916 c 0
 381 916 279 805 266 583 c 1
 265 532 l 1
 265 385 306 280 388 216 c 0
 435 179 493 160 561 160 c 0
 690 161 773 207 810 300 c 0
 821 330 827 364 828 403 c 1
EndSplineSet
EndChar
StartChar: d
Encoding: 70 100 72
OldEncoding: 100
Width: 1139
Flags: W
HStem: -10 154<518 551> 917 169<517 551> 1446 20G<812 991>
VStem: 70 185<511 567> 824 167<0 1466>
Fore
824 0 m 1
 824 122 l 1
 764 34 665 -10 527 -10 c 0
 390 -10 280 41 196 142 c 0
 116 238 74 361 70 511 c 0
 70 521 70 521 70 530 c 0
 70 697 110 831 191 933 c 0
 272 1035 381 1086 519 1086 c 0
 648 1086 744 1046 807 965 c 2
 812 958 l 1
 812 1466 l 1
 991 1466 l 1
 991 0 l 1
 824 0 l 1
255 530 m 0
 255 378 294 269 372 203 c 0
 419 164 476 144 544 144 c 0
 603 144 659 171 710 224 c 0
 777 293 812 384 817 496 c 0
 817 505 817 505 817 515 c 0
 817 656 783 764 716 838 c 0
 669 891 611 917 544 917 c 0
 423 917 340 861 293 750 c 0
 268 690 255 617 255 530 c 0
EndSplineSet
EndChar
StartChar: e
Encoding: 71 101 73
OldEncoding: 101
Width: 1139
Flags: W
HStem: -10 162<554 604> 485 164<271 1053> 914 172<554 604>
VStem: 75 192<483 522>
Fore
862 333 m 1
 1048 333 l 1
 1025 214 963 123 863 62 c 0
 797 21 720 -2 631 -8 c 0
 614 -9 598 -10 581 -10 c 0
 394 -10 256 52 169 177 c 0
 106 266 75 381 75 522 c 0
 75 705 124 848 222 949 c 0
 309 1040 426 1086 571 1086 c 0
 738 1086 864 1026 949 906 c 0
 1018 808 1053 679 1054 520 c 0
 1054 508 1054 496 1053 485 c 1
 267 485 l 1
 271 312 338 206 467 167 c 0
 502 157 540 152 582 152 c 0
 722 152 813 205 854 311 c 0
 862 333 l 1
271 649 m 1
 862 649 l 1
 849 790 784 875 665 904 c 0
 637 911 606 914 573 914 c 0
 490 914 420 889 362 839 c 0
 307 790 276 727 271 649 c 1
EndSplineSet
EndChar
StartChar: f
Encoding: 72 102 74
OldEncoding: 102
Width: 569
Flags: W
HStem: 0 21G<178 357> 785 140<19 178 357 536> 1343 172<487 516>
VStem: 178 179<0 785 925 1185>
Fore
178 0 m 1
 178 785 l 1
 19 785 l 1
 19 925 l 1
 178 925 l 1
 178 1175 l 2
 178 1318 226 1418 322 1474 c 0
 369 1501 424 1515 487 1515 c 0
 538 1515 589 1506 640 1488 c 1
 640 1316 l 1
 585 1334 539 1343 501 1343 c 0
 478 1344 458 1341 441 1334 c 0
 385 1312 357 1254 357 1160 c 2
 357 925 l 1
 536 925 l 1
 536 785 l 1
 357 785 l 1
 357 0 l 1
 178 0 l 1
EndSplineSet
KernsSLIF: 72 -37 0 0
EndChar
StartChar: g
Encoding: 73 103 75
OldEncoding: 103
Width: 1139
Flags: W
HStem: -435 167<521 552.727> 0 175<513 547> 917 169<513 563>
VStem: 66 185<508 574> 819 183<92 144>
Fore
102 -74 m 1
 277 -74 l 1
 280 -115 l 1
 293 -186 341 -233 423 -256 c 0
 453 -264 486 -268 521 -268 c 0
 642 -268 724 -227 768 -146 c 0
 802 -84 819 9 819 134 c 0
 819 136 819 136 819 139 c 1
 740 46 642 0 525 0 c 0
 379 0 264 54 180 163 c 0
 104 261 66 386 66 537 c 0
 66 695 105 824 184 925 c 0
 267 1032 381 1086 526 1086 c 0
 667 1086 770 1049 836 974 c 1
 836 1062 l 1
 1002 1062 l 1
 1002 144 l 2
 1002 -65 967 -214 898 -301 c 0
 855 -355 795 -392 717 -413 c 0
 664 -428 599 -435 522 -435 c 1
 454 -431 l 1
 329 -418 234 -370 171 -287 c 0
 126 -228 103 -157 102 -74 c 1
251 550 m 0
 251 333 325 210 473 181 c 0
 494 177 517 175 542 175 c 0
 729 175 822 298 822 544 c 0
 822 711 776 823 683 880 c 0
 643 905 595 917 539 917 c 0
 428 917 347 869 298 774 c 0
 267 714 251 639 251 550 c 0
EndSplineSet
EndChar
StartChar: h
Encoding: 74 104 76
OldEncoding: 104
Width: 1139
Flags: W
HStem: 0 21G<135 315 820 1000> 882 213<582 616> 1446 20G<135 315>
VStem: 135 180<0 561 0 1466> 820 180<0 673>
Fore
135 0 m 1
 135 1466 l 1
 315 1466 l 1
 315 970 l 1
 358 1026 420 1064 501 1083 c 0
 533 1091 566 1095 600 1095 c 0
 751 1095 862 1042 931 935 c 0
 977 864 1000 777 1000 673 c 2
 1000 0 l 1
 820 0 l 1
 820 624 l 2
 820 796 745 882 596 882 c 0
 459 882 371 817 334 687 c 0
 321 642 315 591 315 532 c 2
 315 0 l 1
 135 0 l 1
EndSplineSet
EndChar
StartChar: i
Encoding: 75 105 77
OldEncoding: 105
Width: 455
Flags: W
HStem: 0 21G<136 316> 1042 20G<136 316> 1446 20G<136 316>
VStem: 136 180<0 1062 1259 1466>
Fore
136 1259 m 1
 136 1466 l 1
 316 1466 l 1
 316 1259 l 1
 136 1259 l 1
136 0 m 1
 136 1062 l 1
 316 1062 l 1
 316 0 l 1
 136 0 l 1
EndSplineSet
EndChar
StartChar: j
Encoding: 76 106 78
OldEncoding: 106
Width: 455
Flags: W
HStem: -428 161<-7 39> 1042 20G<134 314> 1446 20G<134 314>
VStem: 134 180<-93 1061 1257 1466>
Fore
134 1257 m 1
 134 1466 l 1
 314 1466 l 1
 314 1257 l 1
 134 1257 l 1
-94 -412 m 1
 -94 -259 l 1
 -59 -264 -30 -267 -7 -267 c 0
 52 -267 92 -247 111 -206 c 0
 126 -174 134 -123 134 -54 c 2
 134 1062 l 1
 314 1062 l 1
 314 -58 l 2
 314 -246 263 -362 160 -406 c 0
 125 -421 85 -428 39 -428 c 0
 -1 -428 -45 -423 -94 -412 c 1
EndSplineSet
EndChar
StartChar: k
Encoding: 77 107 79
OldEncoding: 107
Width: 1024
Flags: W
HStem: 0 21G<136 316 794 1016> 1042 20G<742 975> 1446 20G<136 316>
VStem: 136 180<0 421 0 1466>
Fore
136 0 m 1
 136 1466 l 1
 316 1466 l 1
 316 630 l 1
 742 1062 l 1
 975 1062 l 1
 569 668 l 1
 1016 0 l 1
 794 0 l 1
 443 543 l 1
 316 421 l 1
 316 0 l 1
 136 0 l 1
EndSplineSet
EndChar
StartChar: l
Encoding: 78 108 80
OldEncoding: 108
Width: 455
Flags: W
HStem: 0 21G<131 311> 1446 20G<131 311>
VStem: 131 180<0 1466>
Fore
131 0 m 1
 131 1466 l 1
 311 1466 l 1
 311 0 l 1
 131 0 l 1
EndSplineSet
EndChar
StartChar: m
Encoding: 79 109 81
OldEncoding: 109
Width: 1706
Flags: W
HStem: 0 21G<135 315 766 946 1395 1574> 930 156<578 618 1206 1246>
VStem: 135 161<0 1062> 135 180<0 593> 766 180<0 641> 1395 179<0 729>
Fore
135 0 m 1xec
 135 1062 l 1
 296 1062 l 1
 296 913 l 1xec
 329 965 374 1007 429 1038 c 0
 484 1070 547 1086 618 1086 c 0
 697 1086 761 1070 812 1037 c 0
 862 1004 897 959 918 900 c 1
 1002 1024 1111 1086 1246 1086 c 0
 1351 1086 1432 1057 1489 998 c 0
 1546 940 1574 850 1574 729 c 2
 1574 0 l 1
 1395 0 l 1
 1395 669 l 2
 1395 741 1389 793 1378 824 c 0
 1366 856 1345 882 1314 901 c 0
 1283 920 1247 930 1206 930 c 0
 1131 930 1069 905 1020 856 c 0
 971 806 946 726 946 617 c 2
 946 0 l 1
 766 0 l 1
 766 690 l 2
 766 770 751 830 722 870 c 0
 693 910 645 930 578 930 c 0
 527 930 481 917 438 890 c 0
 395 863 363 824 344 773 c 0
 325 722 315 648 315 551 c 2
 315 0 l 1xdc
 135 0 l 1xec
EndSplineSet
EndChar
StartChar: n
Encoding: 80 110 82
OldEncoding: 110
Width: 1139
Flags: W
HStem: 0 21G<135 315 820 1000> 882 213<582 616>
VStem: 135 180<0 561 0 1064> 820 180<0 673>
Fore
135 0 m 1
 135 1064 l 1
 315 1064 l 1
 315 970 l 1
 358 1026 420 1064 501 1083 c 0
 533 1091 566 1095 600 1095 c 0
 751 1095 862 1042 931 935 c 0
 977 864 1000 777 1000 673 c 2
 1000 0 l 1
 820 0 l 1
 820 624 l 2
 820 796 745 882 596 882 c 0
 459 882 371 817 334 687 c 0
 321 642 315 591 315 532 c 2
 315 0 l 1
 135 0 l 1
EndSplineSet
EndChar
StartChar: o
Encoding: 81 111 83
OldEncoding: 111
Width: 1139
Flags: W
HStem: -11 158<566 581> 928 158<566 581>
VStem: 68 185<531 566> 878 185<500 566>
Fore
68 531 m 0
 68 721 121 865 226 964 c 0
 313 1045 426 1086 566 1086 c 0
 722 1086 845 1035 935 932 c 0
 1020 835 1063 706 1063 546 c 0
 1063 305 988 141 839 54 c 0
 764 11 673 -11 566 -11 c 0
 387 -11 253 50 166 171 c 0
 101 263 68 383 68 531 c 0
253 531 m 0
 253 357 305 241 408 184 c 0
 453 159 505 147 566 147 c 0
 703 147 795 208 844 329 c 0
 867 386 878 456 878 537 c 0
 878 686 838 794 758 862 c 0
 707 906 643 928 566 928 c 0
 443 928 354 875 301 770 c 0
 269 706 253 626 253 531 c 0
EndSplineSet
EndChar
StartChar: p
Encoding: 82 112 84
OldEncoding: 112
Width: 1139
Flags: W
HStem: -10 165<567 603> 927 159<553 593>
VStem: 122 167<-390 1076> 122 180<-390 133 -390 571> 871 172<505 571>
Fore
289 957 m 1xe8
 299 970 310 981 322 992 c 0
 391 1055 478 1086 584 1086 c 0
 719 1086 827 1039 909 945 c 0
 998 843 1043 704 1043 529 c 0
 1043 377 1005 251 930 152 c 0
 847 44 735 -10 593 -10 c 0
 475 -10 378 38 302 133 c 1
 302 -390 l 1xd8
 122 -390 l 1
 122 1076 l 1
 289 1076 l 1
 289 957 l 1xe8
300 537 m 0
 300 421 330 326 390 252 c 0
 443 187 505 155 577 155 c 0
 648 155 708 176 756 219 c 0
 833 286 871 395 871 544 c 0
 871 561 870 578 869 595 c 0
 864 655 852 708 831 755 c 1
 808 798 l 1
 753 883 674 926 569 927 c 0
 510 927 458 908 415 870 c 0
 338 802 300 691 300 537 c 0
EndSplineSet
EndChar
StartChar: q
Encoding: 83 113 85
OldEncoding: 113
Width: 1139
Flags: W
HStem: -10 165<534 563> 927 159<536 568>
VStem: 87 172<505 571> 828 180<-390 1076>
Fore
841 1076 m 1
 1008 1076 l 1
 1008 -390 l 1
 828 -390 l 1
 828 133 l 1
 752 38 655 -10 537 -10 c 0
 395 -10 283 44 200 152 c 0
 125 251 87 377 87 529 c 0
 87 704 132 843 221 945 c 0
 303 1039 411 1086 546 1086 c 0
 652 1086 739 1055 808 992 c 0
 820 981 831 970 841 957 c 1
 841 1076 l 1
830 537 m 0
 830 691 792 802 715 870 c 0
 672 908 620 927 561 927 c 0
 456 926 377 883 322 798 c 1
 299 755 l 1
 278 708 266 655 261 595 c 0
 260 578 259 561 259 544 c 0
 259 395 297 286 374 219 c 0
 422 176 482 155 553 155 c 0
 625 155 687 187 740 252 c 0
 800 326 830 421 830 537 c 0
EndSplineSet
EndChar
StartChar: r
Encoding: 84 114 86
OldEncoding: 114
Width: 682
Flags: W
HStem: 0 21G<133 313> 900 177<516 535>
VStem: 133 162<0 1062> 133 180<0 593>
Fore
133 0 m 1xe0
 133 1062 l 1
 295 1062 l 1
 295 947 l 1xe0
 318 992 359 1027 416 1052 c 0
 423 1055 432 1058 441 1062 c 0
 467 1072 498 1077 533 1077 c 0
 598 1077 657 1061 710 1028 c 1
 648 861 l 1
 604 887 561 900 518 900 c 0
 495 900 474 896 454 889 c 0
 439 883 424 875 410 864 c 0
 345 815 313 713 313 556 c 2
 313 0 l 1xd0
 133 0 l 1xe0
EndSplineSet
KernsSLIF: 16 -113 0 0 14 -113 0 0
EndChar
StartChar: s
Encoding: 85 115 87
OldEncoding: 115
Width: 1024
Flags: W
HStem: -11 162<482 544> 925 161<478 497>
VStem: 760 185<304 325>
Fore
63 358 m 1
 241 358 l 1
 257 243 323 176 438 157 c 0
 462 153 488 151 516 151 c 0
 601 151 667 172 715 214 c 0
 745 241 760 271 760 306 c 0
 759 364 724 406 655 431 c 0
 627 442 583 452 523 463 c 0
 400 486 319 505 279 520 c 0
 214 544 165 583 132 638 c 0
 106 681 93 728 93 780 c 0
 93 884 138 964 229 1021 c 0
 300 1064 385 1086 484 1086 c 0
 650 1086 768 1040 839 949 c 0
 876 902 897 846 904 779 c 0
 905 774 905 769 905 764 c 1
 729 764 l 1
 714 863 649 916 533 924 c 1
 497 925 l 2
 406 925 341 902 304 856 c 1
 289 833 l 1
 281 807 l 1
 279 778 l 1
 280 765 284 751 289 738 c 0
 301 709 332 687 381 673 c 0
 402 667 448 657 517 644 c 0
 644 620 732 597 782 575 c 0
 868 538 920 479 937 400 c 0
 942 377 945 352 945 325 c 0
 945 220 900 136 811 73 c 0
 732 17 634 -11 517 -11 c 0
 346 -11 221 39 142 138 c 0
 95 197 69 271 63 358 c 1
EndSplineSet
EndChar
StartChar: t
Encoding: 86 116 88
OldEncoding: 116
Width: 569
Flags: W
HStem: -13 166<411 449> 922 140<18 168 347 497>
VStem: 168 179<258 922 1062 1433>
Fore
528 161 m 1
 554 2 l 1
 506 -8 458 -13 411 -13 c 0
 345 -13 297 -3 266 17 c 0
 225 44 197 82 184 130 c 0
 173 170 168 230 168 311 c 2
 168 922 l 1
 18 922 l 1
 18 1062 l 1
 168 1062 l 1
 168 1433 l 1
 347 1433 l 1
 347 1062 l 1
 497 1062 l 1
 497 922 l 1
 347 922 l 1
 347 301 l 2
 347 245 351 209 359 194 c 0
 365 184 375 175 388 167 c 0
 403 158 423 153 449 153 c 0
 466 153 492 156 528 161 c 1
EndSplineSet
EndChar
StartChar: u
Encoding: 87 117 89
OldEncoding: 117
Width: 1139
Flags: W
HStem: -10 211<537 548> 1065 20G<104 284 789 969>
VStem: 104 180<412 1085> 789 180<0 1085>
Fore
969 1085 m 1
 969 0 l 1
 789 0 l 1
 789 64 l 1
 746 17 666 -7 548 -10 c 0
 542 -10 542 -10 537 -10 c 2
 467 -7 l 1
 323 8 220 71 159 181 c 0
 122 246 104 323 104 412 c 2
 104 1085 l 1
 284 1085 l 1
 284 461 l 2
 284 350 323 273 401 231 c 0
 438 211 483 201 534 201 c 0
 704 201 789 286 789 456 c 2
 789 1085 l 1
 969 1085 l 1
EndSplineSet
EndChar
StartChar: v
Encoding: 88 118 90
OldEncoding: 118
Width: 1024
Flags: W
HStem: 0 21G<429 599> 1042 20G<26 216 810 1000>
DStem: 26 1062 216 1062 429 0 520 269
Fore
429 0 m 1
 26 1062 l 1
 216 1062 l 1
 520 269 l 1
 810 1062 l 1
 1000 1062 l 1
 599 0 l 1
 429 0 l 1
EndSplineSet
KernsSLIF: 16 -152 0 0 14 -152 0 0
EndChar
StartChar: w
Encoding: 89 119 91
OldEncoding: 119
Width: 1479
Flags: W
HStem: 0 21G<331 519 975 1163> 1042 20G<6 192 648 832 1288 1463>
DStem: 648 1062 740 817 424 246 519 0
Fore
331 0 m 1
 6 1062 l 1
 192 1062 l 1
 424 246 l 1
 648 1062 l 1
 832 1062 l 1
 1069 246 l 1
 1288 1062 l 1
 1463 1062 l 1
 1163 0 l 1
 975 0 l 1
 901 265 l 1
 798 623 744 807 740 817 c 1
 519 0 l 1
 331 0 l 1
EndSplineSet
KernsSLIF: 16 -113 0 0 14 -113 0 0
EndChar
StartChar: x
Encoding: 90 120 92
OldEncoding: 120
Width: 1024
Flags: W
HStem: 0 21G<15 233 788 1009> 1042 20G<44 269 766 981>
Fore
15 0 m 1
 396 552 l 1
 44 1062 l 1
 269 1062 l 1
 499 694 l 1
 766 1062 l 1
 981 1062 l 1
 607 562 l 1
 1009 0 l 1
 788 0 l 1
 505 419 l 1
 233 0 l 1
 15 0 l 1
EndSplineSet
EndChar
StartChar: y
Encoding: 91 121 93
OldEncoding: 121
Width: 1024
Flags: W
HStem: -422 168<185 239> 1042 20G<33 227 826 1006>
Fore
127 -409 m 1
 107 -240 l 1
 141 -249 177 -254 214 -254 c 0
 261 -254 299 -246 327 -231 c 0
 367 -209 395 -181 410 -146 c 0
 425 -112 433 -64 436 -2 c 1
 33 1062 l 1
 227 1062 l 1
 525 201 l 1
 826 1062 l 1
 1006 1062 l 1
 602 -1 l 1
 587 -145 556 -245 511 -302 c 0
 488 -331 458 -355 420 -375 c 0
 367 -402 307 -418 239 -422 c 1
 185 -421 l 1
 164 -419 144 -415 127 -409 c 1
EndSplineSet
KernsSLIF: 16 -152 0 0 14 -152 0 0
EndChar
StartChar: z
Encoding: 92 122 94
OldEncoding: 122
Width: 1024
Flags: W
HStem: 0 155<262 980> 916 146<60 716>
DStem: 716 916 948 916 40 155 262 155
Fore
40 0 m 1
 40 155 l 1
 716 916 l 1
 60 916 l 1
 60 1062 l 1
 948 1062 l 1
 948 916 l 1
 262 155 l 1
 980 155 l 1
 980 0 l 1
 40 0 l 1
EndSplineSet
EndChar
StartChar: braceleft
Encoding: 93 123 95
OldEncoding: 123
Width: 684
Flags: W
HStem: -431 157<578 636> 449 163<57 76.1128> 1334 157<578 636>
VStem: 264 169<-53.9744 98 944.996 1074>
Fore
57 612 m 1
 108 613 150 627 182 654 c 0
 215 680 236 716 247 762 c 0
 258 808 263 887 264 998 c 0
 265 1109 267 1183 270 1218 c 0
 276 1274 287 1319 304 1353 c 0
 320 1387 340 1414 364 1434 c 0
 388 1455 419 1470 456 1481 c 0
 481 1488 523 1491 580 1491 c 2
 636 1491 l 1
 636 1334 l 1
 605 1334 l 2
 536 1334 490 1321 467 1296 c 0
 444 1271 433 1216 433 1129 c 0
 433 954 429 844 422 798 c 0
 410 727 390 672 360 633 c 128
 332 594 286 560 224 530 c 1
 297 499 351 453 384 390 c 0
 417 327 433 223 433 80 c 0
 433 -50 434 -127 437 -152 c 0
 442 -197 456 -229 478 -247 c 0
 499 -265 542 -274 605 -274 c 2
 636 -274 l 1
 636 -431 l 1
 580 -431 l 2
 515 -431 467 -426 438 -415 c 0
 395 -400 360 -375 332 -340 c 0
 304 -306 286 -263 278 -210 c 0
 269 -157 265 -71 264 49 c 0
 263 169 258 252 247 298 c 0
 236 344 215 380 182 407 c 0
 150 434 108 448 57 449 c 1
 57 612 l 1
EndSplineSet
EndChar
StartChar: bar
Encoding: 94 124 96
OldEncoding: 124
Width: 532
Flags: W
VStem: 188 157<-431 1491>
Fore
188 -431 m 1
 188 1491 l 1
 345 1491 l 1
 345 -431 l 1
 188 -431 l 1
EndSplineSet
EndChar
StartChar: braceright
Encoding: 95 125 97
OldEncoding: 125
Width: 684
Flags: W
VStem: 250 169<-68 66 922.842 1074>
Fore
626 612 m 1
 626 449 l 1
 575 448 533 434 500 407 c 0
 468 380 447 344 436 298 c 0
 425 253 420 174 419 63 c 0
 418 -48 416 -122 413 -157 c 0
 407 -214 396 -259 380 -292 c 0
 363 -326 343 -353 319 -374 c 0
 295 -394 264 -409 227 -420 c 0
 202 -427 160 -431 103 -431 c 2
 47 -431 l 1
 47 -274 l 1
 78 -274 l 2
 147 -274 193 -261 216 -236 c 0
 239 -211 250 -155 250 -68 c 0
 250 99 253 204 259 249 c 0
 270 323 291 382 323 426 c 0
 355 471 400 505 459 530 c 1
 382 567 328 615 297 676 c 0
 266 736 250 838 250 981 c 0
 250 1111 248 1189 245 1214 c 0
 240 1259 227 1290 206 1308 c 0
 184 1325 141 1334 78 1334 c 2
 47 1334 l 1
 47 1491 l 1
 103 1491 l 2
 168 1491 216 1486 245 1475 c 0
 288 1460 323 1436 351 1401 c 0
 379 1366 397 1323 406 1270 c 0
 414 1217 418 1131 419 1011 c 0
 420 891 425 808 436 762 c 0
 447 717 468 681 500 654 c 0
 533 627 575 613 626 612 c 1
EndSplineSet
EndChar
StartChar: asciitilde
Encoding: 96 126 98
OldEncoding: 126
Width: 1196
Flags: W
Fore
87 557 m 1
 87 762 l 1
 158 842 250 882 365 882 c 0
 405 882 447 876 491 864 c 0
 535 853 598 830 679 795 c 0
 725 776 759 763 782 757 c 0
 805 751 829 748 852 748 c 0
 895 748 940 761 986 787 c 0
 1033 813 1074 846 1110 885 c 1
 1110 673 l 1
 1067 633 1024 604 980 586 c 0
 937 568 888 559 833 559 c 0
 793 559 755 564 718 573 c 0
 682 582 625 605 546 640 c 0
 467 675 401 693 348 693 c 0
 305 693 265 684 228 666 c 0
 190 647 143 611 87 557 c 1
EndSplineSet
EndChar
StartChar: exclamdown
Encoding: 99 161 101
OldEncoding: 161
Width: 680
Flags: W
HStem: 0 21G<228 452> 1059 20G<256 422>
VStem: 238 204<1278 1489>
Fore
442 1278 m 1
 238 1278 l 1
 238 1489 l 1
 442 1489 l 1
 442 1278 l 1
452 0 m 1
 228 0 l 1
 256 1079 l 1
 422 1079 l 1
 452 0 l 1
EndSplineSet
EndChar
StartChar: cent
Encoding: 100 162 102
OldEncoding: 162
Width: 1118
Flags: W
HStem: 1455 20G<557 671>
VStem: 114 193<557 600> 557 114<-361 1 146 977 1115 1475>
Fore
557 2 m 1
 414 19 304 75 228 171 c 128
 152 267 114 396 114 557 c 0
 114 716 153 844 232 943 c 128
 311 1042 419 1099 557 1115 c 1
 557 1475 l 1
 671 1475 l 1
 671 1116 l 1
 729 1114 785 1105 838 1090 c 128
 892 1074 938 1056 975 1037 c 1
 975 837 l 1
 965 837 l 1
 924 871 880 901 833 926 c 128
 786 951 732 968 671 977 c 1
 671 141 l 1
 704 144 736 152 770 164 c 128
 802 176 830 189 853 202 c 0
 877 216 898 230 917 244 c 128
 936 257 952 270 965 281 c 1
 975 281 l 1
 975 83 l 1
 932 63 886 45 840 30 c 128
 792 14 736 4 671 1 c 1
 671 -361 l 1
 557 -361 l 1
 557 2 l 1
557 146 m 1
 557 971 l 1
 480 957 419 915 374 846 c 128
 329 776 307 680 307 557 c 0
 307 432 330 335 376 268 c 128
 421 200 482 159 557 146 c 1
EndSplineSet
EndChar
StartChar: sterling
Encoding: 101 163 103
OldEncoding: 163
Width: 1118
Flags: W
HStem: 0 171<261 1031> 613 138<130 291 483 847> 1351 167<706 746>
VStem: 89 172<0 182> 130 353<613 613 613 1052> 291 192<613 613 751 1089>
Fore
1031 0 m 1xf4
 89 0 l 1
 89 207 l 1
 163 229 215 272 246 335 c 128
 276 398 291 491 291 613 c 1xf4
 130 613 l 1
 130 751 l 1xe8
 291 751 l 1
 291 1071 l 2xe4
 291 1205 330 1313 407 1395 c 128
 484 1477 585 1518 708 1518 c 0
 773 1518 828 1513 874 1502 c 128
 920 1492 962 1481 1001 1470 c 1
 1001 1264 l 1
 991 1264 l 1
 952 1291 909 1313 862 1328 c 128
 815 1343 770 1351 727 1351 c 0
 645 1351 584 1325 544 1274 c 128
 503 1223 483 1149 483 1052 c 2
 483 751 l 1
 847 751 l 1
 847 613 l 1
 483 613 l 1xe8
 483 552 l 2
 483 474 464 403 424 340 c 128
 386 276 331 223 261 182 c 1
 261 171 l 1
 1031 171 l 1
 1031 0 l 1xf4
EndSplineSet
EndChar
StartChar: currency
Encoding: 102 164 104
OldEncoding: 164
Width: 1118
Flags: W
HStem: 326 138<560 578> 858 138<560 578>
VStem: 225 143<661 677> 752 144<661 677>
DStem: 65 1051 172 1157 278 835 386 944 277 486 385 379 65 273 170 164 737 378 843 486 951 166 1057 272 948 1157 1057 1052 736 945 843 836
Fore
1057 272 m 1
 951 166 l 1
 737 378 l 1
 707 360 679 347 653 338 c 128
 627 330 596 326 560 326 c 0
 529 326 498 331 468 341 c 128
 436 351 409 364 385 379 c 1
 170 164 l 1
 65 273 l 1
 277 486 l 1
 260 513 248 542 238 572 c 128
 230 604 225 633 225 661 c 0
 225 690 230 720 238 750 c 128
 248 779 261 808 278 835 c 1
 65 1051 l 1
 172 1157 l 1
 386 944 l 1
 411 960 438 973 469 982 c 128
 500 991 530 996 560 996 c 0
 595 996 627 991 658 980 c 128
 688 970 714 958 736 945 c 1
 948 1157 l 1
 1057 1052 l 1
 843 836 l 1
 861 807 874 780 883 753 c 128
 892 726 896 696 896 661 c 0
 896 631 891 600 882 570 c 128
 872 538 859 511 843 486 c 1
 1057 272 l 1
752 661 m 0
 752 714 733 760 696 800 c 128
 658 838 613 858 560 858 c 0
 509 858 464 839 426 800 c 128
 387 762 368 716 368 661 c 0
 368 608 387 562 424 522 c 128
 462 484 507 464 560 464 c 0
 611 464 656 483 694 522 c 128
 733 560 752 606 752 661 c 0
EndSplineSet
EndChar
StartChar: yen
Encoding: 103 165 105
OldEncoding: 165
Width: 1118
Flags: W
HStem: 0 21G<465 653> 440 138<125 465 651 993>
VStem: 465 188<0 440 578 678>
Fore
1059 1489 m 1
 651 678 l 1
 651 578 l 1
 993 578 l 1
 993 440 l 1
 653 440 l 1
 653 0 l 1
 465 0 l 1
 465 440 l 1
 125 440 l 1
 125 578 l 1
 467 578 l 1
 467 657 l 1
 56 1489 l 1
 266 1489 l 1
 560 850 l 1
 858 1489 l 1
 1059 1489 l 1
EndSplineSet
EndChar
StartChar: brokenbar
Encoding: 104 166 106
OldEncoding: 166
Width: 783
Flags: W
VStem: 308 167<-392 406 758 1556>
Fore
475 758 m 1
 308 758 l 1
 308 1556 l 1
 475 1556 l 1
 475 758 l 1
475 -392 m 1
 308 -392 l 1
 308 406 l 1
 475 406 l 1
 475 -392 l 1
EndSplineSet
EndChar
StartChar: section
Encoding: 105 167 107
OldEncoding: 167
Width: 1118
Flags: W
HStem: -385 165<470 522> 1355 164<592 632>
VStem: 119 189<533 579> 148 192<1147 1176> 776 193<-36 -10> 810 188<555 601>
Fore
759 401 m 0xe4
 775 424 788 447 796 468 c 128
 806 490 810 519 810 555 c 0
 810 588 805 616 796 640 c 128
 786 664 773 684 756 699 c 0
 740 714 721 727 700 738 c 128
 679 748 654 757 626 766 c 0
 593 776 593 776 549 788 c 128
 520 797 487 807 450 819 c 1
 437 811 423 801 408 789 c 128
 394 777 378 760 361 738 c 0
 348 721 336 697 324 668 c 128
 314 639 308 609 308 579 c 0
 308 525 321 482 346 450 c 128
 371 418 420 391 492 369 c 0
 526 359 526 359 570 346 c 128
 613 332 613 332 667 315 c 1
 680 323 694 334 711 348 c 128
 728 362 744 380 759 401 c 0xe4
182 -133 m 1
 199 -142 221 -151 246 -162 c 128
 272 -173 297 -182 321 -190 c 0
 352 -200 381 -208 408 -212 c 128
 435 -218 468 -220 509 -220 c 0
 585 -220 648 -204 700 -174 c 128
 750 -142 776 -97 776 -36 c 0
 776 0 770 29 758 52 c 128
 745 74 725 94 698 111 c 0
 670 128 636 142 594 154 c 128
 533 171 533 171 460 192 c 0
 401 209 352 226 314 243 c 128
 274 260 239 283 208 312 c 0
 178 339 156 371 141 407 c 128
 126 443 119 485 119 533 c 0xe8
 119 596 135 655 168 712 c 128
 201 768 251 817 318 858 c 1
 318 865 l 1
 257 898 214 939 188 986 c 128
 161 1033 148 1087 148 1147 c 0
 148 1259 191 1349 276 1417 c 128
 361 1485 479 1519 628 1519 c 0
 685 1519 737 1515 785 1506 c 128
 833 1497 887 1483 946 1462 c 1
 946 1268 l 1
 936 1268 l 1
 876 1298 820 1320 768 1334 c 128
 717 1348 663 1355 607 1355 c 0
 532 1355 469 1340 418 1310 c 128
 366 1279 340 1235 340 1176 c 0
 340 1138 347 1107 360 1083 c 128
 374 1059 394 1039 420 1024 c 0
 446 1008 479 994 520 981 c 128
 560 968 606 955 657 942 c 0
 780 909 867 866 920 814 c 128
 972 761 998 690 998 601 c 0xd4
 998 529 980 466 944 412 c 128
 907 358 859 313 799 277 c 1
 799 270 l 1
 857 239 900 201 928 154 c 128
 955 107 969 53 969 -10 c 0xc8
 969 -59 958 -108 938 -155 c 128
 916 -202 887 -242 848 -274 c 0
 807 -309 757 -337 700 -356 c 128
 642 -375 572 -385 490 -385 c 0
 437 -385 385 -380 333 -371 c 128
 281 -362 227 -347 172 -327 c 1
 172 -133 l 1
 182 -133 l 1
EndSplineSet
EndChar
StartChar: dieresis
Encoding: 106 168 108
OldEncoding: 168
Width: 1118
Flags: W
HStem: 1304 195<253 454 666 867>
Fore
867 1304 m 1
 666 1304 l 1
 666 1499 l 1
 867 1499 l 1
 867 1304 l 1
454 1304 m 1
 253 1304 l 1
 253 1499 l 1
 454 1499 l 1
 454 1304 l 1
EndSplineSet
EndChar
StartChar: copyright
Encoding: 107 169 109
OldEncoding: 169
Width: 1902
Flags: W
HStem: -210 110<917 988> 180 147<965 999> 996 147<965 999> 1409 110<917 988>
VStem: 86 117<655 687> 531 185<660 687> 1701 115<655 687>
Fore
1816 655 m 0
 1816 416 1732 212 1562 44 c 128
 1394 -126 1190 -210 951 -210 c 128
 712 -210 508 -126 340 44 c 128
 170 212 86 416 86 655 c 128
 86 894 170 1097 340 1266 c 128
 508 1435 712 1519 951 1519 c 128
 1190 1519 1394 1435 1562 1266 c 128
 1732 1097 1816 894 1816 655 c 0
1701 655 m 0
 1701 864 1628 1042 1482 1188 c 128
 1335 1336 1159 1409 952 1409 c 128
 745 1409 569 1336 422 1188 c 128
 276 1042 203 864 203 655 c 128
 203 446 276 268 422 121 c 128
 569 -26 745 -100 952 -100 c 128
 1159 -100 1335 -26 1482 121 c 128
 1628 268 1701 446 1701 655 c 0
1274 255 m 1
 1229 235 1185 218 1140 202 c 128
 1095 188 1043 180 982 180 c 0
 843 180 733 221 652 304 c 128
 571 386 531 505 531 660 c 0
 531 813 573 932 656 1016 c 128
 739 1101 848 1143 982 1143 c 0
 1037 1143 1090 1136 1141 1121 c 128
 1192 1106 1236 1089 1274 1070 c 1
 1274 889 l 1
 1258 889 l 1
 1229 914 1190 938 1139 962 c 128
 1088 984 1037 996 986 996 c 0
 904 996 838 969 790 914 c 128
 740 859 716 775 716 660 c 0
 716 552 739 470 786 412 c 128
 833 356 899 327 986 327 c 0
 1042 327 1095 339 1145 364 c 128
 1195 388 1233 411 1258 434 c 1
 1274 434 l 1
 1274 255 l 1
EndSplineSet
EndChar
StartChar: ordfeminine
Encoding: 108 170 110
OldEncoding: 170
Width: 1010
Flags: W
HStem: 541 155<404 461> 1365 154<449 516>
VStem: 114 172<828 862> 708 166<566 1214>
Fore
874 566 m 1
 708 566 l 1
 708 657 l 1
 689 642 689 642 657 618 c 128
 636 603 615 590 594 581 c 0
 567 568 540 558 514 552 c 128
 487 544 451 541 404 541 c 0
 321 541 252 569 197 624 c 128
 142 680 114 752 114 839 c 0
 114 908 128 965 157 1008 c 128
 186 1052 227 1087 280 1112 c 0
 330 1136 393 1153 469 1163 c 128
 545 1173 625 1180 708 1184 c 1
 708 1203 l 2
 708 1238 702 1266 692 1287 c 128
 680 1308 664 1325 643 1337 c 0
 624 1348 600 1356 571 1360 c 128
 542 1363 513 1365 482 1365 c 0
 430 1365 377 1357 324 1342 c 128
 270 1326 230 1313 204 1304 c 1
 189 1304 l 1
 189 1474 l 1
 218 1483 262 1492 320 1503 c 128
 379 1514 433 1519 483 1519 c 0
 611 1519 708 1494 774 1442 c 128
 841 1392 874 1309 874 1194 c 2
 874 566 l 1
708 802 m 1
 708 1045 l 1
 665 1042 614 1038 557 1033 c 128
 500 1028 454 1020 420 1010 c 0
 380 999 348 980 323 954 c 128
 298 929 286 894 286 849 c 0
 286 799 301 761 330 735 c 128
 359 709 403 696 461 696 c 0
 512 696 557 707 598 729 c 128
 638 751 675 775 708 802 c 1
EndSplineSet
EndChar
StartChar: guillemotleft
Encoding: 109 171 111
OldEncoding: 171
Width: 1174
Flags: W
DStem: 103 608 282 652 613 162 613 358 555 610 726 652 1043 191 1043 379 613 1142 613 946 103 697 282 652 1043 1113 1043 925 555 695 726 652
Fore
1043 191 m 1
 555 610 l 1
 555 695 l 1
 1043 1113 l 1
 1043 925 l 1
 726 652 l 1
 1043 379 l 1
 1043 191 l 1
613 162 m 1
 103 608 l 1
 103 697 l 1
 613 1142 l 1
 613 946 l 1
 282 652 l 1
 613 358 l 1
 613 162 l 1
EndSplineSet
EndChar
StartChar: logicalnot
Encoding: 110 172 112
OldEncoding: 172
Width: 1490
Flags: W
HStem: 602 160<157 1152>
VStem: 1152 171<57 762>
Fore
1323 57 m 1
 1152 57 l 1
 1152 602 l 1
 157 602 l 1
 157 762 l 1
 1323 762 l 1
 1323 57 l 1
EndSplineSet
EndChar
StartChar: registered
Encoding: 112 174 114
OldEncoding: 174
Width: 1902
Flags: W
HStem: -210 110<911 983> 1005 125<650 967> 1409 110<911 983>
VStem: 86 117<655 696> 650 165<215 570 215 1005> 1120 182<861 881> 1701 115<655 696>
Fore
1816 655 m 0
 1816 416 1732 212 1562 44 c 128
 1394 -126 1190 -210 951 -210 c 128
 712 -210 508 -126 340 44 c 128
 170 212 86 416 86 655 c 128
 86 894 170 1097 340 1266 c 128
 508 1435 712 1519 951 1519 c 128
 1190 1519 1394 1435 1562 1266 c 128
 1732 1097 1816 894 1816 655 c 0
1701 655 m 0
 1701 864 1628 1042 1482 1188 c 128
 1335 1336 1159 1409 952 1409 c 128
 745 1409 569 1336 422 1188 c 128
 276 1042 203 864 203 655 c 128
 203 446 276 268 422 121 c 128
 569 -26 745 -100 952 -100 c 128
 1159 -100 1335 -26 1482 121 c 128
 1628 268 1701 446 1701 655 c 0
1448 215 m 1
 1221 215 l 1
 938 570 l 1
 815 570 l 1
 815 215 l 1
 650 215 l 1
 650 1130 l 1
 929 1130 l 2
 992 1130 1041 1128 1078 1123 c 128
 1114 1118 1151 1105 1188 1084 c 0
 1228 1061 1257 1034 1275 1002 c 128
 1293 970 1302 929 1302 879 c 0
 1302 812 1284 758 1246 715 c 128
 1210 672 1161 639 1102 615 c 1
 1448 215 l 1
1120 868 m 0
 1120 893 1116 914 1108 932 c 128
 1100 950 1086 965 1066 978 c 0
 1049 989 1031 996 1010 1000 c 128
 989 1003 963 1005 930 1005 c 2
 815 1005 l 1
 815 696 l 1
 913 696 l 2
 945 696 975 699 1003 706 c 128
 1031 712 1054 723 1071 738 c 128
 1088 753 1101 771 1108 791 c 128
 1116 811 1120 837 1120 868 c 0
EndSplineSet
EndChar
StartChar: macron
Encoding: 113 175 115
OldEncoding: 175
Width: 1118
Flags: W
HStem: 1659 130<-16 1134>
Fore
1134 1659 m 1
 -16 1659 l 1
 -16 1789 l 1
 1134 1789 l 1
 1134 1659 l 1
EndSplineSet
EndChar
StartChar: degree
Encoding: 114 176 116
OldEncoding: 176
Width: 964
Flags: W
HStem: 755 152<482 502> 1363 152<482 502>
VStem: 101 157<1135 1156> 706 157<1135 1156>
Fore
863 1135 m 0
 863 1028 826 938 753 865 c 128
 680 792 589 755 482 755 c 0
 376 755 286 791 212 864 c 128
 138 937 101 1027 101 1135 c 0
 101 1242 138 1332 211 1405 c 128
 284 1478 375 1515 482 1515 c 128
 589 1515 680 1478 753 1405 c 128
 826 1332 863 1242 863 1135 c 0
706 1135 m 0
 706 1199 685 1253 642 1297 c 128
 599 1341 546 1363 482 1363 c 128
 418 1363 365 1341 322 1297 c 128
 279 1253 258 1199 258 1135 c 0
 258 1070 280 1015 324 972 c 128
 367 929 420 907 482 907 c 0
 546 907 599 929 642 974 c 128
 685 1018 706 1072 706 1135 c 0
EndSplineSet
EndChar
StartChar: plusminus
Encoding: 115 177 117
OldEncoding: 177
Width: 1490
Flags: W
HStem: 159 158<162 1328> 739 158<162 662 828 1328>
VStem: 662 166<317 739 897 1402>
Fore
1328 159 m 1
 162 159 l 1
 162 317 l 1
 662 317 l 1
 662 739 l 1
 162 739 l 1
 162 897 l 1
 662 897 l 1
 662 1402 l 1
 828 1402 l 1
 828 897 l 1
 1328 897 l 1
 1328 739 l 1
 828 739 l 1
 828 317 l 1
 1328 317 l 1
 1328 159 l 1
EndSplineSet
EndChar
StartChar: uni00B2
Encoding: 116 178 118
OldEncoding: 178
Width: 1010
Flags: W
HStem: 566 144<373 866> 1371 148<445 481>
VStem: 619 185<1221 1241>
Fore
866 566 m 1
 185 566 l 1
 185 718 l 1
 262 777 262 777 332 832 c 128
 380 868 418 900 447 929 c 0
 518 997 564 1050 586 1088 c 128
 608 1127 619 1173 619 1227 c 0
 619 1273 605 1308 576 1334 c 128
 547 1358 508 1371 457 1371 c 0
 411 1371 364 1361 318 1341 c 128
 270 1321 233 1300 206 1279 c 1
 191 1279 l 1
 191 1458 l 1
 233 1476 280 1491 330 1502 c 128
 382 1513 432 1519 481 1519 c 0
 585 1519 665 1493 720 1440 c 128
 776 1388 804 1321 804 1239 c 0
 804 1182 791 1128 764 1076 c 128
 738 1023 689 965 617 900 c 0
 582 869 542 837 496 802 c 128
 427 751 427 751 373 710 c 1
 866 710 l 1
 866 566 l 1
EndSplineSet
EndChar
StartChar: uni00B3
Encoding: 117 179 119
OldEncoding: 179
Width: 1010
Flags: W
HStem: 542 139<455 494> 968 139<334 476> 1380 139<455 494>
VStem: 641 173<1249 1281> 665 172<813 847>
Fore
837 828 m 0xe8
 837 781 827 738 807 700 c 128
 787 663 761 633 729 611 c 0
 694 586 656 569 614 558 c 128
 574 547 527 542 474 542 c 0
 419 542 368 547 320 557 c 128
 273 567 227 581 184 600 c 1
 184 775 l 1
 201 775 l 1
 226 752 264 730 315 710 c 128
 366 691 418 681 471 681 c 0
 527 681 573 693 610 718 c 128
 647 742 665 778 665 826 c 0xe8
 665 874 650 910 622 933 c 128
 592 956 543 968 474 968 c 2
 334 968 l 1
 334 1107 l 1
 459 1107 l 2
 517 1107 562 1120 594 1145 c 128
 625 1170 641 1205 641 1249 c 0
 641 1289 627 1321 600 1344 c 128
 573 1368 530 1380 472 1380 c 0
 428 1380 380 1370 330 1349 c 128
 278 1328 241 1306 216 1283 c 1
 199 1283 l 1
 199 1458 l 1
 242 1476 288 1491 338 1502 c 128
 388 1513 439 1519 492 1519 c 0
 593 1519 672 1496 729 1449 c 128
 786 1402 814 1346 814 1281 c 0xf0
 814 1223 798 1175 766 1138 c 128
 733 1100 691 1072 640 1055 c 1
 640 1047 l 1
 693 1036 740 1013 778 976 c 128
 818 940 837 891 837 828 c 0xe8
EndSplineSet
EndChar
StartChar: acute
Encoding: 118 180 120
OldEncoding: 180
Width: 1118
Flags: W
Fore
871 1676 m 1
 598 1302 l 1
 449 1302 l 1
 628 1676 l 1
 871 1676 l 1
EndSplineSet
EndChar
StartChar: mu
Encoding: 119 181 121
OldEncoding: 181
Width: 1163
Flags: W
HStem: -17 181<578 601>
VStem: 136 188<-412 115 -412 1117> 855 172<0 1117>
Fore
1027 0 m 1
 855 0 l 1
 855 116 l 1
 849 116 l 1
 809 74 769 41 728 18 c 128
 688 -5 638 -17 578 -17 c 0
 517 -17 468 -5 433 18 c 128
 398 41 361 74 324 115 c 1
 324 -412 l 1
 136 -412 l 1
 136 1117 l 1
 324 1117 l 1
 324 275 l 1
 352 242 387 215 429 194 c 128
 471 174 521 164 578 164 c 0
 638 164 688 174 730 193 c 128
 770 212 807 240 839 275 c 1
 839 1117 l 1
 1027 1117 l 1
 1027 0 l 1
EndSplineSet
EndChar
StartChar: paragraph
Encoding: 120 182 122
OldEncoding: 182
Width: 1118
Flags: W
HStem: 1359 130<560 842>
VStem: 515 140<-363 1359> 842 140<-363 1489>
Fore
982 -363 m 1
 842 -363 l 1
 842 1359 l 1
 655 1359 l 1
 655 -363 l 1
 515 -363 l 1
 515 593 l 1
 378 596 267 639 183 722 c 128
 99 805 57 914 57 1050 c 0
 57 1188 100 1296 187 1373 c 128
 274 1450 398 1489 560 1489 c 2
 982 1489 l 1
 982 -363 l 1
EndSplineSet
EndChar
StartChar: periodcentered
Encoding: 121 183 123
OldEncoding: 183
Width: 724
Flags: W
VStem: 243 239<832 1117>
Fore
482 832 m 1
 243 832 l 1
 243 1117 l 1
 482 1117 l 1
 482 832 l 1
EndSplineSet
EndChar
StartChar: cedilla
Encoding: 122 184 124
OldEncoding: 184
Width: 1118
Flags: W
HStem: -423 150<438 468>
VStem: 614 159<-120 -50>
Fore
767 20 m 1
 768 8 769 -7 770 -26 c 128
 772 -44 773 -65 773 -89 c 0
 773 -197 744 -280 686 -337 c 128
 628 -394 555 -423 466 -423 c 0
 441 -423 412 -421 379 -417 c 128
 346 -413 316 -407 289 -399 c 1
 289 -239 l 1
 298 -239 l 1
 314 -246 335 -254 361 -262 c 128
 387 -269 413 -273 440 -273 c 0
 503 -273 547 -260 574 -234 c 128
 601 -207 614 -165 614 -107 c 0
 614 -90 614 -71 613 -50 c 128
 612 -29 611 -6 610 20 c 1
 767 20 l 1
EndSplineSet
EndChar
StartChar: uni0E01
Encoding: 123 3585 125
OldEncoding: 3585
Width: 1240
Flags: W
HStem: 0 21G<188 348 922 1082>
VStem: 188 160<0 385> 922 160<0 671>
Fore
1082 671 m 2
 1082 0 l 1
 922 0 l 1
 922 655 l 1
 908.667 875.667 809.333 987 624 989 c 1
 486 993 376.667 937.667 296 823 c 1
 380 802.333 443.333 748.333 486 661 c 1
 394 596.333 348 496.333 348 361 c 2
 348 0 l 1
 188 0 l 1
 188 361 l 2
 188 492.333 230.667 595 316 669 c 1
 268 737.667 202 778 118 790 c 1
 215.333 1026 384 1145.67 624 1149 c 1
 929.333 1127 1082 967.667 1082 671 c 2
EndSplineSet
EndChar
StartChar: uni0E02
Encoding: 124 3586 126
OldEncoding: 3586
Width: 1400
Flags: W
HStem: 0 164<707 1217> 823 326<313 460>
VStem: 96 130<741 797> 547 160<0 575> 681 153<771 801> 1057 160<164 1139>
Fore
307 658 m 1xe4
 361.667 661.333 390 689 392 741 c 1
 392 791.667 365.667 819 313 823 c 1
 259 823 230 795.667 226 741 c 1
 225.333 691.667 252.333 664 307 658 c 1xe4
834 771 m 1xec
 751.333 718.333 709 653 707 575 c 1
 707 164 l 1
 1057 164 l 1
 1057 1139 l 1
 1217 1139 l 1
 1217 0 l 1
 547 0 l 1
 547 575 l 1xf4
 552.333 661 597 730.333 681 783 c 1
 679.667 850.333 657.667 903.167 615 941.5 c 128
 572.333 979.833 519.333 997.667 456 995 c 0
 389.333 993 345 969.667 323 925 c 1
 429.667 923.667 487.333 870.333 496 765 c 1
 500.667 621.667 434.667 548.333 298 545 c 1
 165.333 551.667 98 635.667 96 797 c 1
 98 889.667 130.333 971.333 193 1042 c 128
 255.667 1112.67 344.667 1148.33 460 1149 c 0
 562 1150.33 649.5 1120.5 722.5 1059.5 c 128
 795.5 998.5 832.667 902.333 834 771 c 1xec
EndSplineSet
EndChar
StartChar: uni0E03
Encoding: 125 3587 127
OldEncoding: 3587
Width: 1450
Flags: W
HStem: 0 164<784 1294> 1119 20G<1134 1294>
VStem: 106 133<706 727> 398 104<711 729> 624 160<0 593> 756 155<783 820.929> 1134 160<164 1139>
Fore
322 623 m 1xf2
 376.667 630.333 402 660 398 712 c 1
 398.667 763.333 373.333 789.333 322 790 c 1
 265.333 788 237.667 760 239 706 c 0
 240.333 656 268 628.333 322 623 c 1xf2
624 587 m 1xfa
 623.333 667.667 667.333 738 756 798 c 1
 756 873.333 725 933.667 663 979 c 1
 663 978.333 615 945.667 519 881 c 1
 360 979 l 1
 329.333 958.333 309.667 927.333 301 886 c 1
 341 901.333 384.5 896.167 431.5 870.5 c 128
 478.5 844.833 502 797 502 727 c 0
 502 650.333 483.333 593.833 446 557.5 c 128
 408.667 521.167 361 504.333 303 507 c 0
 180.333 513 114.667 586 106 726 c 1
 104.667 938 189.333 1079.33 360 1150 c 1
 360 1149.33 413 1113 519 1041 c 1
 663 1149 l 1
 721.667 1139.67 778.167 1100 832.5 1030 c 128
 886.833 960 913 877.667 911 783 c 1xf6
 826.333 721 784 655.667 784 587 c 2
 784 164 l 1
 1134 164 l 1
 1134 1139 l 1
 1294 1139 l 1
 1294 0 l 1
 624 0 l 1
 624 587 l 1xfa
EndSplineSet
EndChar
StartChar: uni0E04
Encoding: 126 3588 128
OldEncoding: 3588
Width: 1370
Flags: W
HStem: 0 21G<245 455 1035 1195> 625 121<722 743>
VStem: 163 161<639 675> 822 98<543 553> 1035 160<0 675>
Fore
380 256 m 1
 403.333 418 446.667 540.333 510 623 c 128
 573.333 705.667 644 746.667 722 746 c 0
 848 745.333 914 681 920 553 c 1
 917.333 432.333 860.333 362 749 342 c 1
 669 340.667 615.667 368 589 424 c 1
 536.333 318.667 491.667 177.333 455 0 c 1
 245 0 l 1
 245 108 l 1
 244.333 183.333 227.333 288.667 194 424 c 1
 173.333 513.333 163 596.333 163 673 c 0
 164.333 973 335.333 1131.67 676 1149 c 1
 1020.67 1143.67 1193.67 977.667 1195 651 c 1
 1195 0 l 1
 1035 0 l 1
 1035 650 l 2
 1035 856 917 969 681 989 c 1
 443 971.667 324 857.333 324 646 c 1
 326 529.333 344.667 399.333 380 256 c 1
737 460 m 1
 791.667 463.333 820 491 822 543 c 1
 822 593.667 795.667 621 743 625 c 1
 689 625 660 597.667 656 543 c 1
 655.333 493.667 682.333 466 737 460 c 1
EndSplineSet
EndChar
StartChar: uni0E05
Encoding: 127 3589 129
OldEncoding: 3589
Width: 1370
Flags: W
HStem: 0 21G<235 445 1025 1185> 625 121<712 733>
VStem: 153 161<639 689> 812 98<543 553> 1025 160<0 689>
Fore
370 256 m 1
 393.333 418 436.667 540.333 500 623 c 128
 563.333 705.667 634 746.667 712 746 c 0
 838 745.333 904 681 910 553 c 1
 907.333 432.333 850.333 362 739 342 c 1
 659 340.667 605.667 368 579 424 c 1
 526.333 318.667 481.667 177.333 445 0 c 1
 235 0 l 1
 235 108 l 1
 234.333 183.333 217.333 288.667 184 424 c 1
 163.333 513.333 153 599.667 153 683 c 0
 154.333 938.333 270.667 1093.67 502 1149 c 1
 677 1028 l 1
 842 1149 l 1
 1069.33 1091 1183.67 928.333 1185 661 c 1
 1185 0 l 1
 1025 0 l 1
 1025 660 l 2
 1025 826 961 933 833 981 c 1
 682 868 l 1
 519 981 l 1
 382.333 932.333 314 824 314 656 c 1
 316 532.667 334.667 399.333 370 256 c 1
727 460 m 1
 781.667 463.333 810 491 812 543 c 1
 812 593.667 785.667 621 733 625 c 1
 679 625 650 597.667 646 543 c 1
 645.333 493.667 672.333 466 727 460 c 1
EndSplineSet
EndChar
StartChar: uni0E06
Encoding: 128 3590 130
OldEncoding: 3590
Width: 1520
Flags: W
HStem: 0 21G<1205 1365> 328 118<633 644> 1119 20G<1205 1365>
VStem: 644 150<164 243> 1205 160<166 1139>
DStem: 794 243 795 409 1205 0 1205 166
Fore
316 621 m 1
 376 621.667 406.667 652 408 712 c 0
 408 758.667 381.333 784.333 328 789 c 1
 278 789 250 762 244 708 c 1
 244 663.333 268 634.333 316 621 c 1
635 587 m 2
 635 667.667 676.667 743.333 760 814 c 1
 760 886.667 731.333 941.667 674 979 c 1
 530 881 l 1
 371 979 l 1
 341.667 961 322 930 312 886 c 1
 416.667 901.333 484 858.667 514 758 c 1
 528 600 465 516.667 325 508 c 1
 189.667 512 119 597.667 113 765 c 1
 111.667 845.667 133.5 921 178.5 991 c 128
 223.5 1061 287.667 1113.67 371 1149 c 1
 530 1041 l 1
 674 1149 l 1
 839.333 1074.33 922 952.333 922 783 c 1
 837.333 728.333 795 663 795 587 c 2
 795 409 l 1
 1205 166 l 1
 1205 1139 l 1
 1365 1139 l 1
 1365 0 l 1
 1205 0 l 1
 794 243 l 1
 794 146 l 2
 794 42.6667 741.333 -9.33333 636 -10 c 0
 577.333 -10.6667 529.5 9.83333 492.5 51.5 c 128
 455.5 93.1667 436 144.333 434 205 c 0
 432 271 449.5 327.333 486.5 374 c 128
 523.5 420.667 573 444.667 635 446 c 1
 635 587 l 2
644 328 m 1
 612.667 328 587.833 314.333 569.5 287 c 128
 551.167 259.667 542 231.333 542 202 c 0
 542 149.333 560 118.333 596 109 c 1
 627.333 111 643.333 130 644 166 c 1
 644 328 l 1
EndSplineSet
EndChar
StartChar: uni0E07
Encoding: 129 3591 131
OldEncoding: 3591
Width: 1000
Flags: W
HStem: 741 112<611 627.341> 1021 129<623 651>
VStem: 439 100<933 940> 694 161<272 770> 703 152<881 944>
DStem: 145 719 326 640 227 272 388 272
Fore
855 272 m 2xf0
 855 84.6667 754.333 -9.33333 553 -10 c 0
 373.667 -10 265 84 227 272 c 1
 145 719 l 1
 326 640 l 1
 388 272 l 1
 409.333 192.667 464.333 152 553 150 c 1
 647 153.333 694 194 694 272 c 2
 694 770 l 1xf0
 678 750.667 648.333 741 605 741 c 1
 496.333 749 441 813.667 439 935 c 1
 449.667 1076.33 520.333 1148 651 1150 c 1
 787 1140 855 1050.33 855 881 c 2xe8
 855 272 l 2xf0
611 853 m 1
 671 853.667 701.667 884 703 944 c 0xe8
 703 990.667 676.333 1016.33 623 1021 c 1
 573 1021 545 994 539 940 c 1
 539 895.333 563 866.333 611 853 c 1
EndSplineSet
EndChar
StartChar: uni0E08
Encoding: 130 3592 132
OldEncoding: 3592
Width: 1200
Flags: W
HStem: -10 160<748 769>
VStem: 214 105<533 542> 469 160<283 373> 483 145<512 546> 868 160<279 742>
Fore
629 283 m 1xe8
 629 195 668.667 150.667 748 150 c 0
 828 150 868 193 868 279 c 2
 868 715 l 2
 868 880.333 769.667 971.667 573 989 c 1
 424.333 987 295.333 938.333 186 843 c 1
 96 912 l 1
 232 1066.67 391 1145.67 573 1149 c 1
 876.333 1139.67 1028 1003.33 1028 740 c 2
 1028 279 l 2
 1028 87 934.667 -9.33333 748 -10 c 0
 562 -10 469 87.6667 469 283 c 2
 469 373 l 1xe8
 457 357 431.667 347.667 393 345 c 1
 273.667 354.333 214 418.333 214 537 c 1
 223.333 675 294 747 426 753 c 1
 561.333 751.667 628.667 671.333 628 512 c 1xd8
 629 283 l 1xe8
391 455 m 1
 451 455.667 481.667 486 483 546 c 0xd8
 483 592.667 456.333 618.333 403 623 c 1
 353 623 325 596 319 542 c 1
 319 497.333 343 468.333 391 455 c 1
EndSplineSet
EndChar
StartChar: uni0E09
Encoding: 131 3593 133
OldEncoding: 3593
Width: 1395
Flags: W
HStem: -10 113<1103 1143> 641 130<331 356>
VStem: 146 103<549 571> 399 160<0 502> 413 146<502 564> 944 160<409 742> 1197 108<197 215>
DStem: 944 409 945 227 559 176 559 0
Fore
1104 740 m 1xf6
 1104 446 l 1
 1236 431.333 1303 351 1305 205 c 1
 1302.33 62.3333 1235 -9.33333 1103 -10 c 0
 1041 -10 996 18.3333 968 75 c 0
 949.333 114.333 941.667 165 945 227 c 1
 559 0 l 1
 399 0 l 1
 399 391 l 1
 381 369 349.667 359.667 305 363 c 1
 199.667 376.333 146.667 445.667 146 571 c 1
 155.333 703.667 225.333 770.333 356 771 c 1
 491.333 765.667 559 676 559 502 c 2
 559 176 l 1
 944 409 l 1
 944 715 l 1
 946 888.333 842.667 978.667 634 986 c 1
 501.333 986 377.333 938.333 262 843 c 1
 172 912 l 1
 308.667 1069.33 462.667 1148.33 634 1149 c 1
 948 1139.67 1104.67 1003.33 1104 740 c 1xf6
1095 328 m 1
 1095 156 l 1
 1098.33 121.333 1114.33 103.667 1143 103 c 1
 1178.33 107.667 1196.33 140.667 1197 202 c 0
 1197 274.667 1163 316.667 1095 328 c 1
321 473 m 1
 381 473.667 411.667 504 413 564 c 0xee
 413 610.667 386.333 636.333 333 641 c 1
 283 641 255 614 249 560 c 1
 249 515.333 273 486.333 321 473 c 1
EndSplineSet
EndChar
StartChar: uni0E0A
Encoding: 132 3594 134
OldEncoding: 3594
Width: 1390
Flags: W
HStem: 0 164<742 1208> 545 112<333 349.341> 825 324<345 511> 1003 146<500 515>
VStem: 425 106<735 765> 582 160<0 594> 1048 160<164 592> 1137 166<1147 1188>
Fore
742 575 m 2xce
 742 164 l 1
 1048 164 l 1
 1048 581 l 1
 1021.33 683.667 961.667 747 869 771 c 1
 784.333 712.333 742 647 742 575 c 2xce
582 575 m 2
 582 655 625 726.333 711 789 c 1
 688.333 920.333 623 991.667 515 1003 c 1xde
 445 1003.67 387.667 978.333 343 927 c 1
 461.667 936.333 524.333 882.333 531 765 c 1
 531.667 619.667 465.667 546.333 333 545 c 1
 191 557.667 124.333 657 133 843 c 1
 170.333 1041.67 296.333 1143.67 511 1149 c 1
 659 1148.33 769 1072.33 841 921 c 1
 1038.33 971.667 1137 1052.33 1137 1163 c 2
 1137 1188 l 1
 1303 1188 l 1
 1303 1164 l 1xed
 1302.33 1009.33 1206 908.333 1014 861 c 1
 1124.67 801.667 1189.33 712 1208 592 c 1
 1208 0 l 1
 582 0 l 1
 582 575 l 2
333 657 m 1
 393 657.667 423.667 688 425 748 c 0
 425 794.667 398.333 820.333 345 825 c 1xec
 295 825 267 798 261 744 c 1
 261 699.333 285 670.333 333 657 c 1
EndSplineSet
EndChar
StartChar: uni0E0B
Encoding: 133 3595 135
OldEncoding: 3595
Width: 1390
Flags: W
HStem: 0 164<747 1213>
VStem: 365 105<697 721> 587 160<0 594> 1053 160<164 592>
Fore
1053 581 m 1
 1036.33 677.667 976.333 741 873 771 c 1
 789 718.333 747 653 747 575 c 2
 747 164 l 1
 1053 164 l 1
 1053 581 l 1
587 575 m 2
 587 646.333 630.667 713.333 718 776 c 1
 716 873.333 687.333 941 632 979 c 1
 488 881 l 1
 329 979 l 1
 300.333 959.667 280.667 928.667 270 886 c 1
 290 894 312.667 896.667 338 894 c 0
 427.333 884 471.333 818.333 470 697 c 1
 460.667 577 394.667 513.667 272 507 c 1
 128.667 516.333 62.3333 615.333 73 804 c 1
 96.3333 980.667 181.667 1095.67 329 1149 c 1
 488 1041 l 1
 632 1149 l 1
 734 1115 805 1039 845 921 c 1
 1041.67 957 1140.33 1037.67 1141 1163 c 1
 1141 1188 l 1
 1307 1188 l 1
 1307 1164 l 1
 1297.67 1008.67 1201.33 907.667 1018 861 c 1
 1130 813.667 1195 724 1213 592 c 1
 1213 0 l 1
 587 0 l 1
 587 575 l 2
273 622 m 1
 333 622.667 363.667 653 365 713 c 0
 365 759.667 338.333 785.333 285 790 c 1
 235 790 207 763 201 709 c 1
 201 664.333 225 635.333 273 622 c 1
EndSplineSet
EndChar
StartChar: uni0E0C
Encoding: 134 3596 136
OldEncoding: 3596
Width: 1750
Flags: W
HStem: -11 116<394 419> 273 124<415 427> 1119 20G<1495 1655>
VStem: 191 160<258 422> 925 160<445 694> 1495 160<176 1139>
DStem: 1084 243 1085 409 1495 0 1495 176
Fore
925 657 m 2
 925 871.667 826 982.333 628 989 c 1
 482 988.333 372.667 933.667 300 825 c 1
 378.667 808.333 441.667 754.333 489 663 c 1
 397 591.667 351 505 351 403 c 2
 351 369 l 1
 367 387 392.333 396.333 427 397 c 1
 553 395.667 612 321.667 604 175 c 1
 590.667 51.6667 520.667 -10.3333 394 -11 c 1
 258.667 -3.66667 191 86 191 258 c 2
 191 403 l 2
 191 508.333 234 597.667 320 671 c 1
 292.667 729.667 226.667 770 122 792 c 1
 227.333 1030 396 1149 628 1149 c 1
 932 1144.33 1084.33 985.667 1085 673 c 1
 1085 409 l 1
 1495 176 l 1
 1495 1139 l 1
 1655 1139 l 1
 1655 0 l 1
 1495 0 l 1
 1084 243 l 1
 1081 146 l 1
 1077.67 44 1026 -8 926 -10 c 1
 797.333 -6.66667 730 65 724 205 c 1
 730 354.333 797 434.667 925 446 c 1
 925 657 l 2
934 328 m 1
 867.333 326 833.333 286 832 208 c 0
 832 145.333 850 112.333 886 109 c 1
 917.333 109 933.333 130 934 172 c 1
 934 328 l 1
405 105 m 1
 465 105.667 495.667 136 497 196 c 0
 497 242.667 470.333 268.333 417 273 c 1
 367 273 339 246 333 192 c 1
 333 147.333 357 118.333 405 105 c 1
EndSplineSet
EndChar
StartChar: uni0E0D
Encoding: 135 3597 137
OldEncoding: 3597
Width: 1745
Flags: W
HStem: -11 116<362 387> 0 176<1052 1623> 273 124<383 395> 1119 20G<1463 1623>
VStem: 893 160<0 687> 900 98<-248 -215> 1463 160<176 1139>
Fore
1071 -61 m 1x36
 1169 -65.6667 1222.33 -109.333 1231 -192 c 1
 1236.33 -265.333 1215 -316.333 1167 -345 c 1
 1356.33 -367.667 1467 -274.333 1499 -65 c 1
 1615 -65 l 1
 1605.67 -322.333 1469.33 -456 1206 -466 c 1
 1022.67 -462 920.667 -389.333 900 -248 c 1
 900 -130 957 -67.6667 1071 -61 c 1x36
998 -215 m 1
 997.333 -257 1022 -281 1072 -287 c 1
 1118 -281 1142 -257 1144 -215 c 1
 1142 -167.667 1118.33 -143.667 1073 -143 c 1
 1025.67 -143.667 1000.67 -167.667 998 -215 c 1
893 657 m 6x7a
 893 871.667 794 982.333 596 989 c 5
 450 988.333 340.667 933.667 268 825 c 5
 346.667 808.333 409.667 754.333 457 663 c 5
 365 591.667 319 505 319 403 c 6
 319 369 l 5
 335 387 360.333 396.333 395 397 c 5
 521 395.667 580 321.667 572 175 c 5
 558.667 51.6667 488.667 -10.3333 362 -11 c 5xba
 226.667 -3.66667 159 86 159 258 c 6
 159 403 l 6
 159 508.333 202 597.667 288 671 c 5
 260.667 729.667 194.667 770 90 792 c 5
 195.333 1030 364 1149 596 1149 c 5
 900 1144.33 1052.33 985.667 1053 673 c 5
 1053 176 l 5
 1463 176 l 5
 1463 1139 l 5
 1623 1139 l 5
 1623 0 l 5
 893 0 l 5
 893 657 l 6x7a
373 105 m 5
 433 105.667 463.667 136 465 196 c 4
 465 242.667 438.333 268.333 385 273 c 5
 335 273 307 246 301 192 c 5
 301 147.333 325 118.333 373 105 c 5
EndSplineSet
Substitution: 0 65534 'nds0' uni0E0D.descless
Substitution: 0 65534 'ndsc' uni0E0D.descless
EndChar
StartChar: uni0E0E
Encoding: 136 3598 138
OldEncoding: 3598
Width: 1375
Flags: W
HStem: -10 122<253 287> 280 119<246 265>
VStem: 345 145<203 259> 1064 160<-209 692>
DStem: 867 140 973 105 774 -34 882 -76
Fore
1064 -209 m 1
 1064 658 l 2
 1064 868.667 965 979.333 767 990 c 1
 636.333 991.333 527 936.667 439 826 c 1
 523.667 801.333 586.667 747.333 628 664 c 1
 536 591.333 490 504.667 490 404 c 2
 490 259 l 2
 490 83.6667 422.333 -6 287 -10 c 1
 155.667 -10 85.3333 59.3333 76 198 c 1
 79.3333 320 136 387 246 399 c 1
 282.667 399 310.667 389.333 330 370 c 1
 330 404 l 1
 330.667 513.333 373.667 602.667 459 672 c 1
 422.333 730.667 356.333 771 261 793 c 1
 365 1031 533.667 1150 767 1150 c 1
 1071.67 1144.67 1224 986 1224 674 c 2
 1224 -410 l 1
 1064 -410 l 1
 1000.67 -319.333 925.667 -248 839 -196 c 1
 769 -338.667 666 -411 530 -413 c 0
 458 -414.333 404.667 -395.667 370 -357 c 1
 333.333 -300.333 329 -239.667 357 -175 c 1
 415.667 -72.3333 512.333 -16.6667 647 -8 c 1
 692.333 -9.33333 734.667 -18 774 -34 c 1
 867 140 l 1
 973 105 l 1
 882 -76 l 1
 945.333 -103.333 1006 -147.667 1064 -209 c 1
482 -264 m 1
 521.333 -298 575 -295.667 643 -257 c 0
 683 -233.667 713 -197 733 -147 c 1
 673 -102.333 608 -100 538 -140 c 1
 482.667 -178.667 464 -220 482 -264 c 1
253 112 m 1
 313 112.667 343.667 143 345 203 c 0
 345 249.667 318.333 275.333 265 280 c 1
 215 280 187 253 181 199 c 1
 181 154.333 205 125.333 253 112 c 1
EndSplineSet
EndChar
StartChar: uni0E0F
Encoding: 137 3599 139
OldEncoding: 3599
Width: 1375
Flags: W
HStem: -10 122<255 287> 280 120<231 267>
VStem: 79 104<194 221> 347 143<203 259> 1064 160<-209 692>
DStem: 722 140 828 105 629 -34 737 -76
Fore
1064 -209 m 1
 1064 658 l 2
 1064 857.333 965 968 767 990 c 1
 633 990 523.667 935.333 439 826 c 1
 536.333 795.333 599.333 741.333 628 664 c 1
 536 600.667 490 514 490 404 c 2
 490 259 l 2
 490 83 422.333 -6.66667 287 -10 c 1
 147 -9.33333 77.6667 67.6667 79 221 c 1
 88.3333 338.333 139 398 231 400 c 1
 277 402.667 310 392.667 330 370 c 1
 330 404 l 1
 330.667 518 373.667 607.333 459 672 c 1
 410.333 742.667 344.333 783 261 793 c 1
 369.667 1029.67 538.333 1148.67 767 1150 c 1
 1071.67 1144 1224 985.333 1224 674 c 2
 1224 -410 l 1
 1064 -410 l 1
 928 -252 l 1
 812 -362 l 1
 776 -287.333 735 -234.333 689 -203 c 1
 647.667 -328.333 546.333 -398.333 385 -413 c 1
 314.333 -413 261 -394.333 225 -357 c 1
 180.333 -275 189.667 -196.5 253 -121.5 c 128
 316.333 -46.5 403.667 -9 515 -9 c 0
 559.667 -9.66667 597.667 -18 629 -34 c 1
 722 140 l 1
 828 105 l 1
 737 -76 l 1
 769 -97.3333 794 -124 812 -156 c 1
 928 -38 l 1
 1064 -209 l 1
331 -264 m 1
 364.333 -294 413.333 -295.667 478 -269 c 1
 535.333 -237 572 -196.333 588 -147 c 1
 532.667 -112.333 466 -113 388 -149 c 1
 342.667 -186.333 323.667 -224.667 331 -264 c 1
255 112 m 1
 315 112.667 345.667 143 347 203 c 0
 347 249.667 320.333 275.333 267 280 c 1
 217 280 189 253 183 199 c 1
 183 154.333 207 125.333 255 112 c 1
EndSplineSet
EndChar
StartChar: uni0E10
Encoding: 138 3600 140
OldEncoding: 3600
Width: 1130
Flags: W
HStem: -10 160<637 641> 290 113<274 293> 998 151<536 577>
VStem: 102 101<480 490> 367 150<428 494> 757 160<279 540>
DStem: 470 -208 558 -230 418 -294 502 -324
Fore
757 529 m 2
 757 583 706.333 625.333 605 656 c 0
 476.333 694.667 301.333 730 80 762 c 1
 163.333 1020 319.667 1149 549 1149 c 0
 636.333 1148.33 722.333 1131.5 807 1098.5 c 128
 891.667 1065.5 961.667 1056.67 1017 1072 c 1
 978 917 l 1
 916.667 907 849.5 918.5 776.5 951.5 c 128
 703.5 984.5 623.333 1000 536 998 c 0
 434 994.667 363.333 952.667 324 872 c 1
 565.333 822.667 719.667 780 787 744 c 0
 873.667 698 917 641.333 917 574 c 2
 917 279 l 1
 916.333 86.3333 823 -10 637 -10 c 0
 450.333 -10 357 87.6667 357 283 c 2
 357 317 l 1
 345.667 303 324.333 294 293 290 c 1
 169.667 289.333 106 353 102 481 c 1
 104.667 619 172.333 691 305 697 c 1
 446.333 691 517 601.333 517 428 c 2
 517 283 l 2
 517 194.333 557 150 637 150 c 0
 717 150.667 757 193.667 757 279 c 2
 757 529 l 2
772 -329 m 1
 772 -262 l 1
 762 -271.333 744 -276 718 -276 c 1
 636 -266.667 596 -225.667 598 -153 c 1
 598 -78.3333 646.333 -38.6667 743 -34 c 1
 864.333 -34 925 -97 925 -223 c 2
 925 -530 l 1
 775 -530 l 1
 753.667 -454.667 720 -415.667 674 -413 c 1
 627.333 -414.333 589.333 -453 560 -529 c 1
 535.333 -463 504 -422 466 -406 c 1
 394.667 -499.333 302 -541 188 -531 c 1
 77.3333 -508.333 41 -452.333 79 -363 c 1
 134.333 -273 247.333 -250 418 -294 c 1
 470 -208 l 1
 558 -230 l 1
 502 -324 l 1
 528.667 -334.667 547.333 -349.333 558 -368 c 1
 602.667 -312 641.333 -284 674 -284 c 0
 715.333 -284 748 -299 772 -329 c 1
731 -102 m 1
 693.667 -104.667 674 -123.333 672 -158 c 1
 674 -191.333 693 -210 729 -214 c 1
 763.667 -210 782.333 -191 785 -157 c 1
 785 -124.333 767 -106 731 -102 c 1
156 -437 m 1
 182 -463 222.833 -467.833 278.5 -451.5 c 128
 334.167 -435.167 370 -405.333 386 -362 c 1
 242 -328 165.333 -353 156 -437 c 1
275 403 m 1
 335 403.667 365.667 434 367 494 c 0
 367 540.667 340.333 566.333 287 571 c 1
 237 571 209 544 203 490 c 1
 203 445.333 227 416.333 275 403 c 1
EndSplineSet
Substitution: 0 65534 'nds0' uni0E10.descless
Substitution: 0 65534 'ndsc' uni0E10.descless
EndChar
StartChar: uni0E11
Encoding: 139 3601 141
OldEncoding: 3601
Width: 1700
Flags: W
HStem: 0 21G<636 838 1374 1534> 507 115<314 332>
VStem: 113 133<709 763> 410 103<713 727> 636 159<0 593> 1374 160<0 910>
Fore
636 0 m 1
 636 587 l 1
 634.667 666.333 675.333 736 758 796 c 1
 755.333 872 727.333 933 674 979 c 1
 530 881 l 1
 371 979 l 1
 341.667 962.333 322 931.333 312 886 c 1
 329.333 894 352 896.667 380 894 c 1
 468.667 878.667 513 823 513 727 c 1
 509 582.333 442.667 509 314 507 c 1
 178.667 522.333 111.667 607.667 113 763 c 1
 115.667 842.333 138 917.333 180 988 c 128
 222 1058.67 285.667 1112.33 371 1149 c 1
 530 1041 l 1
 674 1149 l 1
 823.333 1076.33 906 954.333 922 783 c 1
 838 727 795.667 661.667 795 587 c 1
 795 263 l 1
 1132 990 l 1
 1172.67 1087.33 1241.33 1136 1338 1136 c 1
 1468.67 1129.33 1534 1054 1534 910 c 2
 1534 0 l 1
 1374 0 l 1
 1374 857 l 1
 1374.67 904.333 1357.67 929.333 1323 932 c 0
 1296.33 934.667 1272 911.333 1250 862 c 1
 838 0 l 1
 636 0 l 1
318 622 m 1
 378 622.667 408.667 653 410 713 c 0
 410 759.667 383.333 785.333 330 790 c 1
 280 790 252 763 246 709 c 1
 246 664.333 270 635.333 318 622 c 1
EndSplineSet
EndChar
StartChar: uni0E12
Encoding: 140 3602 142
OldEncoding: 3602
Width: 1850
Flags: W
HStem: -10 113<954 994> 1119 20G<1530 1690>
VStem: 121 163<675 711> 359 97<533 541> 620 119<533 545> 993 160<445 711> 1002 150<158 243> 1530 160<160 1139>
DStem: 1152 243 1153 409 1528 0 1530 160
Fore
993 734 m 1xfd
 992.333 859.333 933.333 941 816 979 c 1
 643 863 l 1
 479 979 l 1
 347.667 931 282.667 830 284 676 c 1
 296 539.333 320 410.667 356 290 c 1
 373 197 l 1
 451 231 507.333 287 542 365 c 1
 513.333 353.667 482 355.333 448 370 c 1
 387.333 403.333 357.667 458.667 359 536 c 1
 363.667 670 428.333 739.667 553 745 c 1
 671.667 745 733.667 677 739 541 c 1
 738.333 347.667 621.667 167.333 389 0 c 1
 204 0 l 1
 204 108 l 1
 203.333 188 186.333 302 153 450 c 0
 131.667 541.333 121 625.333 121 702 c 0
 120.333 927.333 239.667 1076.33 479 1149 c 1
 643 1033 l 1
 816 1149 l 1
 1040.67 1099 1153 941.667 1153 677 c 2
 1153 409 l 1xfd
 1530 160 l 1
 1530 1139 l 1
 1690 1139 l 1
 1690 0 l 1
 1528 0 l 1
 1152 243 l 1
 1152 146 l 2xfb
 1152 48.6667 1099.33 -3.33333 994 -10 c 1
 860 -9.33333 792.667 62.3333 792 205 c 1
 792.667 333 859.667 413.333 993 446 c 1
 993 734 l 1xfd
1002 328 m 1xfb
 937.333 328.667 903.333 286.667 900 202 c 0
 897.333 145.333 915.333 112.333 954 103 c 1
 985.333 103 1001.33 124 1002 166 c 1
 1002 328 l 1xfb
528 454 m 1
 588 454.667 618.667 485 620 545 c 0
 620 591.667 593.333 617.333 540 622 c 1
 490 622 462 595 456 541 c 1
 456 496.333 480 467.333 528 454 c 1
EndSplineSet
EndChar
StartChar: uni0E13
Encoding: 141 3603 143
OldEncoding: 3603
Width: 1900
Flags: W
HStem: -11 114<407 423.341> 1119 20G<1460 1620>
VStem: 194 161<258 422> 928 160<0 678> 1460 160<409 1139> 1462 150<172 328> 1714 108<183 214>
Fore
928 657 m 2xf6
 928 863 829 973.667 631 989 c 1
 483.667 988.333 374.333 933.667 303 825 c 1
 374.333 810.333 437.333 756.333 492 663 c 1
 400.667 594.333 355 507.667 355 403 c 2
 355 369 l 1
 389 397 433.667 402.333 489 385 c 1
 572.333 363 612 293 608 175 c 1
 600 52.3333 532.667 -9.66667 406 -11 c 1
 264.667 -9.66667 194 80 194 258 c 2
 194 403 l 2
 194 517.667 237 607 323 671 c 1
 268.333 738.333 202.333 778.667 125 792 c 1
 235.667 1030 404.333 1149 631 1149 c 1
 935.667 1142.33 1088 983.667 1088 673 c 2
 1088 183 l 1
 1461 409 l 1
 1460 1139 l 1
 1620 1139 l 1
 1620 446 l 1xfa
 1754.67 441.333 1822 361 1822 205 c 0
 1822.67 64.3333 1761.67 -7 1639 -9 c 1
 1520.33 -8.33333 1461.33 63.3333 1462 206 c 1
 1462 243 l 1
 1083 0 l 1
 928 0 l 1
 928 657 l 2xf6
1612 328 m 1xf6
 1612 173 l 2
 1612 131 1628 109.667 1660 109 c 1
 1695.33 116.333 1713.33 147.333 1714 202 c 0
 1714 279.333 1680 321.333 1612 328 c 1xf6
407 103 m 1
 467 103.667 497.667 134 499 194 c 0
 499 240.667 472.333 266.333 419 271 c 1
 369 271 341 244 335 190 c 1
 335 145.333 359 116.333 407 103 c 1
EndSplineSet
EndChar
StartChar: uni0E14
Encoding: 142 3604 144
OldEncoding: 3604
Width: 1330
Flags: W
HStem: 0 21G<222 407 1011 1171>
VStem: 140 162<669 698.845> 377 94<535 551> 635 122<540 561> 1011 160<0 689>
Fore
407 0 m 1
 222 0 l 1
 222 108 l 2
 222 178 205 292 171 450 c 1
 152.333 531.333 142 604.333 140 669 c 1
 144 975 317.333 1135 660 1149 c 1
 1000.67 1145.67 1171 980 1171 652 c 2
 1171 0 l 1
 1011 0 l 1
 1011 675 l 2
 1011 864.333 895.333 969 664 989 c 1
 422.667 976.333 302 869.333 302 668 c 0
 302 628.667 306 589.667 314 551 c 1
 379 266 l 1
 391 197 l 1
 456.333 217.667 512.667 273.667 560 365 c 1
 536 362 l 1
 437.333 362.667 384.333 420.667 377 536 c 1
 377 672 441.667 741.667 571 745 c 1
 695 743.667 757 676 757 542 c 0
 757.667 334 641 153.333 407 0 c 1
543 464 m 1
 603 464.667 633.667 495 635 555 c 0
 635 601.667 608.333 627.333 555 632 c 1
 505 632 477 605 471 551 c 1
 471 506.333 495 477.333 543 464 c 1
EndSplineSet
EndChar
StartChar: uni0E15
Encoding: 143 3605 145
OldEncoding: 3605
Width: 1330
Flags: W
HStem: 0 21G<232 417 1021 1181>
VStem: 149 163<675 704> 387 97<527 541> 648 119<534 545> 1021 160<0 704>
Fore
1021 734 m 1
 1020.33 859.333 961.333 941 844 979 c 1
 671 863 l 1
 507 979 l 1
 375.667 931 310.667 830 312 676 c 1
 324 539.333 348 410.667 384 290 c 1
 401 197 l 1
 479 231 535.333 287 570 365 c 1
 541.333 353.667 510 355.333 476 370 c 1
 415.333 403.333 385.667 458.667 387 536 c 1
 391.667 670 456.333 739.667 581 745 c 1
 699.667 745 761.667 677 767 541 c 1
 766.333 347.667 649.667 167.333 417 0 c 1
 232 0 l 1
 232 108 l 1
 231.333 188 214.333 302 181 450 c 0
 159.667 541.333 149 625.333 149 702 c 0
 148.333 927.333 267.667 1076.33 507 1149 c 1
 671 1033 l 1
 844 1149 l 1
 1068.67 1099 1181 941.667 1181 677 c 2
 1181 0 l 1
 1021 0 l 1
 1021 734 l 1
556 454 m 1
 616 454.667 646.667 485 648 545 c 0
 648 591.667 621.333 617.333 568 622 c 1
 518 622 490 595 484 541 c 1
 484 496.333 508 467.333 556 454 c 1
EndSplineSet
EndChar
StartChar: uni0E16
Encoding: 144 3606 146
OldEncoding: 3606
Width: 1240
Flags: W
HStem: -11 116<396 421> 273 124<417 429>
VStem: 193 160<258 422> 927 160<0 694>
Fore
927 0 m 1
 927 657 l 2
 927 871.667 828 982.333 630 989 c 1
 484 988.333 374.667 933.667 302 825 c 1
 380.667 808.333 443.667 754.333 491 663 c 1
 399 591.667 353 505 353 403 c 2
 353 369 l 1
 369 387 394.333 396.333 429 397 c 1
 555 395.667 614 321.667 606 175 c 1
 592.667 51.6667 522.667 -10.3333 396 -11 c 1
 260.667 -3.66667 193 86 193 258 c 2
 193 403 l 2
 193 508.333 236 597.667 322 671 c 1
 294.667 729.667 228.667 770 124 792 c 1
 229.333 1030 398 1149 630 1149 c 1
 934 1144.33 1086.33 985.667 1087 673 c 1
 1087 0 l 1
 927 0 l 1
407 105 m 1
 467 105.667 497.667 136 499 196 c 0
 499 242.667 472.333 268.333 419 273 c 1
 369 273 341 246 335 192 c 1
 335 147.333 359 118.333 407 105 c 1
EndSplineSet
EndChar
StartChar: uni0E17
Encoding: 145 3607 147
OldEncoding: 3607
Width: 1350
Flags: W
HStem: 0 21G<317 518 1054 1214> 1026 124<253 274>
VStem: 63 110<930 953> 317 160<0 881> 337 140<881 949> 1054 160<0 910>
Fore
317 770 m 1xf4
 305.667 756 284.333 747 253 743 c 1
 127.667 747 64.3333 817 63 953 c 1
 76.3333 1081.67 146.667 1147.33 274 1150 c 1
 409.333 1140.67 477 1051 477 881 c 2
 477 263 l 1
 812 990 l 1
 852.667 1087.33 921.333 1136 1018 1136 c 1
 1148.67 1129.33 1214 1054 1214 910 c 2
 1214 0 l 1
 1054 0 l 1
 1054 857 l 1
 1054.67 904.333 1037.67 929.333 1003 932 c 0
 976.333 934.667 952 911.333 930 862 c 1
 518 0 l 1
 317 0 l 1
 317 770 l 1xf4
248 859 m 1
 306 859 335.667 889 337 949 c 0xec
 337 995.667 310.333 1021.33 257 1026 c 1
 207 1026 179 999 173 945 c 1
 173 895.667 198 867 248 859 c 1
EndSplineSet
EndChar
StartChar: uni0E18
Encoding: 146 3608 148
OldEncoding: 3608
Width: 1250
Flags: W
HStem: 0 151<409 1023>
VStem: 249 161<0 650> 864 159<151 518>
Fore
864 480 m 2
 864 533.333 840.667 574.667 794 604 c 1
 615.333 657.333 398.333 709.667 143 761 c 1
 213 1020.33 369.333 1149.33 612 1148 c 1
 709.333 1151.33 803 1127.33 893 1076 c 1
 956.333 1054.67 1018.67 1053 1080 1071 c 1
 1041 916 l 1
 991.667 905.333 935 907.667 871 923 c 1
 770.333 972.333 688.333 997 625 997 c 1
 510.333 1001.67 431 959.667 387 871 c 1
 572.333 831.667 726 792.333 848 753 c 1
 965.333 718.333 1024 640 1024 518 c 1
 1023 0 l 1
 249 0 l 1
 249 650 l 1
 410 650 l 1
 410 151 l 1
 864 151 l 1
 864 480 l 2
EndSplineSet
EndChar
StartChar: uni0E19
Encoding: 147 3609 149
OldEncoding: 3609
Width: 1400
Flags: W
HStem: 0 21G<364 519> 741 115<283 288> 1024 125<296 321>
VStem: 364 160<0 880> 376 148<880 947> 984 160<402 1139> 985 150<197 328> 1237 113<181 215>
Fore
364 769 m 1xf3
 351.333 753 326 743.667 288 741 c 1
 178.667 743 119 808.333 109 937 c 1
 113 1075.67 183.667 1146.33 321 1149 c 1
 456.333 1141.67 524 1052 524 880 c 2
 524 174 l 1
 984 402 l 1
 984 1139 l 1
 1144 1139 l 1
 1144 475 l 1xf5
 1280.67 466.333 1349.33 376.333 1350 205 c 1
 1352 56.3333 1283 -15.3333 1143 -10 c 1
 1036.33 -4.66667 983.667 76 985 232 c 1
 985 243 l 1
 519 0 l 1
 364 0 l 1
 364 769 l 1xf3
1135 328 m 1xe3
 1135 165 l 1
 1136.33 127 1152.33 106.333 1183 103 c 1
 1218.33 106.333 1236.33 139.333 1237 202 c 0
 1237 242 1224.33 275 1199 301 c 0
 1181 319 1159.67 328 1135 328 c 1xe3
284 856 m 1
 344 856.667 374.667 887 376 947 c 0xe9
 376 993.667 349.333 1019.33 296 1024 c 1
 246 1024 218 997 212 943 c 1
 212 898.333 236 869.333 284 856 c 1
EndSplineSet
EndChar
StartChar: uni0E1A
Encoding: 148 3610 150
OldEncoding: 3610
Width: 1300
Flags: W
HStem: 0 148<487 1153> 1023 127<263 284>
VStem: 76 105<940 969> 328 160<0 881> 345 143<881 946> 993 160<148 1139>
Fore
488 148 m 1xf4
 993 148 l 1
 993 1139 l 1
 1153 1139 l 1
 1153 0 l 1
 328 0 l 1
 328 770 l 1
 309.333 748.667 274.333 739.667 223 743 c 1
 123.667 757.667 74.6667 833 76 969 c 1
 99.3333 1090.33 169 1150.67 285 1150 c 1
 420.333 1153.33 488 1063.67 488 881 c 2
 488 148 l 1xf4
253 855 m 1
 313 855.667 343.667 886 345 946 c 0xec
 345 992.667 318.333 1018.33 265 1023 c 1
 215 1023 187 996 181 942 c 1
 181 897.333 205 868.333 253 855 c 1
EndSplineSet
EndChar
StartChar: uni0E1B
Encoding: 149 3611 151
OldEncoding: 3611
Width: 1300
Flags: W
HStem: 0 148<513 1179> 1023 127<289 310>
VStem: 102 105<940 969> 354 160<0 881> 371 143<881 946> 1019 160<148 1480>
Fore
514 148 m 1xf4
 1019 148 l 1
 1019 1480 l 1
 1179 1480 l 1
 1179 0 l 1
 354 0 l 1
 354 770 l 1
 335.333 748.667 300.333 739.667 249 743 c 1
 149.667 757.667 100.667 833 102 969 c 1
 125.333 1090.33 195 1150.67 311 1150 c 1
 446.333 1153.33 514 1063.67 514 881 c 2
 514 148 l 1xf4
279 855 m 1
 339 855.667 369.667 886 371 946 c 0xec
 371 992.667 344.333 1018.33 291 1023 c 1
 241 1023 213 996 207 942 c 1
 207 897.333 231 868.333 279 855 c 1
EndSplineSet
EndChar
StartChar: uni0E1C
Encoding: 150 3612 152
OldEncoding: 3612
Width: 1200
Flags: W
HStem: 0 21G<134 294 880 1040> 741 109<346 378> 1018 132<337 358>
VStem: 134 140<881 937> 134 160<0 770> 438 110<930 945> 880 160<211 1139>
Fore
134 881 m 2xf6
 134 1047.67 201.667 1137.33 337 1150 c 1
 475 1148.67 545.333 1075.33 548 930 c 1
 540 817.333 483.333 754.333 378 741 c 1
 341.333 741 313.333 750.667 294 770 c 1
 294 214 l 1
 570 627 l 1
 618 627 l 1
 880 211 l 1
 880 1139 l 1
 1040 1139 l 1
 1040 0 l 1
 880 0 l 1
 597 406 l 1
 294 0 l 1
 134 0 l 1xee
 134 881 l 2xf6
346 850 m 1
 406 850.667 436.667 881 438 941 c 0
 438 987.667 411.333 1013.33 358 1018 c 1
 308 1018 280 991 274 937 c 1xf6
 274 892.333 298 863.333 346 850 c 1
EndSplineSet
EndChar
StartChar: uni0E1D
Encoding: 151 3613 153
OldEncoding: 3613
Width: 1200
Flags: W
HStem: 0 21G<153 313 899 1059> 741 109<365 397> 1018 132<356 377>
VStem: 153 140<881 937> 153 160<0 770> 457 110<927 945> 899 160<211 1480>
Fore
153 881 m 2xf6
 153 1047.67 220.667 1137.33 356 1150 c 1
 494 1148.67 564.333 1075.33 567 930 c 1
 564.333 818.667 507.667 755.667 397 741 c 1
 360.333 741 332.333 750.667 313 770 c 1
 313 214 l 1
 589 627 l 1
 637 627 l 1
 899 211 l 1
 899 1480 l 1
 1059 1480 l 1
 1059 0 l 1
 899 0 l 1
 616 406 l 1
 313 0 l 1
 153 0 l 1xee
 153 881 l 2xf6
365 850 m 1
 425 850.667 455.667 881 457 941 c 0
 457 987.667 430.333 1013.33 377 1018 c 1
 327 1018 299 991 293 937 c 1xf6
 293 892.333 317 863.333 365 850 c 1
EndSplineSet
EndChar
StartChar: uni0E1E
Encoding: 152 3614 154
OldEncoding: 3614
Width: 1350
Flags: W
HStem: 0 21G<300 490 1016 1206> 740 117<216 230> 1025 124<237 257>
VStem: 46 109<928.793 942.875> 300 160<0 880> 319 141<880 948> 1046 160<260 1139>
DStem: 721 1083 745 810 460 263 490 0 745 810 769 1083 1016 0 1046 260
Fore
460 263 m 1xfa
 721 1083 l 1
 769 1083 l 1
 1046 260 l 1
 1046 1139 l 1
 1206 1139 l 1
 1206 0 l 1
 1016 0 l 1
 745 810 l 1
 490 0 l 1
 300 0 l 1
 300 769 l 1
 280.667 749.667 252.667 740 216 740 c 1
 105.333 746.667 48.6667 814.333 46 943 c 1
 52.6667 1078.33 123 1147 257 1149 c 1
 392.333 1145.67 460 1056 460 880 c 2
 460 263 l 1xfa
227 857 m 1
 287 857.667 317.667 888 319 948 c 0xf6
 319 994.667 292.333 1020.33 239 1025 c 1
 189 1025 161 998 155 944 c 1
 155 899.333 179 870.333 227 857 c 1
EndSplineSet
EndChar
StartChar: uni0E1F
Encoding: 153 3615 155
OldEncoding: 3615
Width: 1450
Flags: W
HStem: 0 21G<381 571 1097 1287> 740 117<297 311> 1025 124<318 338>
VStem: 127 109<928.793 942.875> 381 160<0 880> 400 141<880 948> 1127 160<260 1480>
DStem: 802 1083 826 810 541 263 571 0 826 810 850 1083 1097 0 1127 260
Fore
541 263 m 1xfa
 802 1083 l 1
 850 1083 l 1
 1127 260 l 1
 1127 1480 l 1
 1287 1480 l 1
 1287 0 l 1
 1097 0 l 1
 826 810 l 1
 571 0 l 1
 381 0 l 1
 381 769 l 1
 361.667 749.667 333.667 740 297 740 c 1
 184.333 749.333 127.667 817 127 943 c 1
 133.667 1078.33 204 1147 338 1149 c 1
 473.333 1145.67 541 1056 541 880 c 2
 541 263 l 1xfa
308 857 m 1
 368 857.667 398.667 888 400 948 c 0xf6
 400 994.667 373.333 1020.33 320 1025 c 1
 270 1025 242 998 236 944 c 1
 236 899.333 260 870.333 308 857 c 1
EndSplineSet
EndChar
StartChar: uni0E20
Encoding: 154 3616 156
OldEncoding: 3616
Width: 1350
Flags: W
HStem: -10 122<247 281> 280 119<240 259>
VStem: 339 145<203 259> 1058 160<0 679>
Fore
1058 658 m 2
 1058 868.667 959 979.333 761 990 c 1
 630.333 991.333 521 936.667 433 826 c 1
 517.667 801.333 580.667 747.333 622 664 c 1
 530 591.333 484 504.667 484 404 c 2
 484 259 l 2
 484 83.6667 416.333 -6 281 -10 c 1
 149.667 -10 79.3333 59.3333 70 198 c 1
 73.3333 320 130 387 240 399 c 1
 276.667 399 304.667 389.333 324 370 c 1
 324 404 l 1
 324.667 513.333 367.667 602.667 453 672 c 1
 416.333 730.667 350.333 771 255 793 c 1
 359 1031 527.667 1150 761 1150 c 1
 1065.67 1144.67 1218 986 1218 674 c 2
 1218 0 l 1
 1058 0 l 1
 1058 658 l 2
247 112 m 1
 307 112.667 337.667 143 339 203 c 0
 339 249.667 312.333 275.333 259 280 c 1
 209 280 181 253 175 199 c 1
 175 154.333 199 125.333 247 112 c 1
EndSplineSet
EndChar
StartChar: uni0E21
Encoding: 155 3617 157
OldEncoding: 3617
Width: 1350
Flags: W
HStem: -10 123<332 372> 1119 20G<991 1151>
VStem: 118 106<933 957> 371 160<445 881> 380 150<159 243> 388 143<881 946> 991 160<159 1139>
DStem: 530 243 531 409 990 0 991 159
Fore
371 446 m 1xf2
 371 770 l 1
 357 751.333 333.333 741 300 739 c 1
 179.333 747 118.667 819.667 118 957 c 1
 120 1075 187 1139.33 319 1150 c 1
 460.333 1150.67 531 1061 531 881 c 2xf2
 531 409 l 1xe6
 991 159 l 1
 991 1139 l 1
 1151 1139 l 1
 1151 0 l 1
 990 0 l 1
 530 243 l 1
 530 146 l 1xea
 524 42.6667 471.333 -9.33333 372 -10 c 1
 242.667 -9.33333 175.333 62.3333 170 205 c 1
 172.667 363 239.667 443.333 371 446 c 1xf2
380 328 m 1xea
 316 326 282 284 278 202 c 1
 278 149.333 296 119.667 332 113 c 1
 363.333 113 379.333 133.333 380 174 c 1
 380 328 l 1xea
296 855 m 1
 356 855.667 386.667 886 388 946 c 0xe6
 388 992.667 361.333 1018.33 308 1023 c 1
 258 1023 230 996 224 942 c 1
 224 897.333 248 868.333 296 855 c 1
EndSplineSet
EndChar
StartChar: uni0E22
Encoding: 156 3618 158
OldEncoding: 3618
Width: 1200
Flags: W
HStem: 0 156<345 1027> 1023 126<410 424>
VStem: 199 146<0 369> 504 109<926 961> 867 160<156 1139>
Fore
350 562 m 1
 276 580 225.333 629 198 709 c 128
 170.667 789 169.333 880.333 194 983 c 1
 225.333 1091.67 300 1147 418 1149 c 1
 550 1148.33 615 1074 613 926 c 0
 610.333 809.333 553 748.333 441 743 c 1
 390.333 744.333 356.333 753.333 339 770 c 1
 342.333 704 371.333 659.667 426 637 c 0
 459.333 623 525.333 616.667 624 618 c 1
 624 505 l 1
 527.333 505 460.333 497 423 481 c 0
 371 457.667 345 413 345 347 c 2
 345 156 l 1
 867 156 l 1
 867 1139 l 1
 1027 1139 l 1
 1027 0 l 1
 199 0 l 1
 199 349 l 2
 199 444.333 249.333 515.333 350 562 c 1
412 855 m 1
 472 855.667 502.667 886 504 946 c 0
 504 992.667 477.333 1018.33 424 1023 c 1
 374 1023 346 996 340 942 c 1
 340 897.333 364 868.333 412 855 c 1
EndSplineSet
EndChar
StartChar: uni0E23
Encoding: 157 3619 159
OldEncoding: 3619
Width: 1100
Flags: W
HStem: -10 119<670 683> 998 151<551 585>
VStem: 490 109<187 196> 723 160<363 574>
Fore
883 304 m 2
 883 77.3333 816.333 -27.3333 683 -10 c 1
 557 -9.33333 492.667 57 490 189 c 1
 485.333 303.667 535.667 368.333 641 383 c 1
 675.667 385.667 703 379 723 363 c 1
 723 529 l 2
 723 583.667 691.667 626 629 656 c 1
 520.333 692 345.333 727.333 104 762 c 1
 173.333 1020 329.667 1149 573 1149 c 0
 638.333 1149 700.833 1137.17 760.5 1113.5 c 128
 820.167 1089.83 864.333 1075.67 893 1071 c 1
 941.667 1061 991 1061.33 1041 1072 c 1
 1002 917 l 1
 970 904.333 926.333 903.333 871 914 c 1
 829 920 783.167 935.333 733.5 960 c 128
 683.833 984.667 626.333 997.333 561 998 c 0
 461 998.667 390 956.667 348 872 c 1
 564 828.667 705.333 786.333 772 745 c 1
 843.333 697 880.333 640 883 574 c 1
 883 304 l 2
671 109 m 1
 731 109.667 761.667 140 763 200 c 0
 763 246.667 736.333 272.333 683 277 c 1
 633 277 605 250 599 196 c 1
 599 151.333 623 122.333 671 109 c 1
EndSplineSet
EndChar
StartChar: uni0E24
Encoding: 158 3620 160
OldEncoding: 3620
Width: 1240
Flags: W
HStem: -11 116<394 418> 273 123<416 425>
VStem: 191 160<258 421> 925 160<-380 677>
Fore
1085 -380 m 1
 925 -380 l 1
 925 657 l 1
 923.667 869 824.667 979.667 628 989 c 1
 479.333 989.667 370 935 300 825 c 1
 376.667 793.667 439.667 739.667 489 663 c 1
 397 598.333 351 511.667 351 403 c 2
 351 369 l 1
 363 383 384.667 392 416 396 c 1
 546 396.667 608.667 323 604 175 c 1
 592 51 522 -11 394 -11 c 0
 258 -9.66667 190.333 80 191 258 c 1
 191 403 l 1
 190.333 507.667 233.333 597 320 671 c 1
 264.667 732.333 198.667 772.667 122 792 c 1
 232 1030 400.667 1149 628 1149 c 1
 932.667 1137.67 1085 979 1085 673 c 2
 1085 -380 l 1
413 105 m 1
 473 105.667 503.667 136 505 196 c 0
 505 242.667 478.333 268.333 425 273 c 1
 375 273 347 246 341 192 c 1
 341 147.333 365 118.333 413 105 c 1
EndSplineSet
EndChar
StartChar: uni0E25
Encoding: 159 3621 161
OldEncoding: 3621
Width: 1255
Flags: W
HStem: -11 115<433 456> 272 127<454 471> 604 140<587 637> 984 165<573 598>
VStem: 536 99<193 197> 924 160<0 726>
Fore
1084 713 m 1
 1084 0 l 1
 924 0 l 1
 924 263 l 1
 923.333 361 895.5 442.5 840.5 507.5 c 128
 785.5 572.5 708 604.667 608 604 c 1
 539.333 604.667 484.333 586.167 443 548.5 c 128
 401.667 510.833 381 463.667 381 407 c 2
 381 369 l 1
 399 389 429 399 471 399 c 1
 579 395 633.667 326.333 635 193 c 1
 633 127.667 612.667 77.3333 574 42 c 128
 535.333 6.66667 488.333 -11 433 -11 c 0
 373 -12.3333 322.667 8.66667 282 52 c 128
 241.333 95.3333 221 164 221 258 c 2
 221 388 l 2
 221 508 260.833 597.5 340.5 656.5 c 128
 420.167 715.5 510 744.667 610 744 c 1
 683.333 744.667 749.167 730.667 807.5 702 c 128
 865.833 673.333 904.667 642.333 924 609 c 1
 924 714 l 1
 923.333 886 814 976 596 984 c 1
 468 984 339.333 934 210 834 c 1
 156 944 l 1
 291.333 1077.33 438.667 1145.67 598 1149 c 1
 921.333 1139 1083.33 993.667 1084 713 c 1
444 104 m 1
 504 104.667 534.667 135 536 195 c 0
 536 241.667 509.333 267.333 456 272 c 1
 406 272 378 245 372 191 c 1
 372 146.333 396 117.333 444 104 c 1
EndSplineSet
EndChar
StartChar: uni0E26
Encoding: 160 3622 162
OldEncoding: 3622
Width: 1350
Flags: W
HStem: -10 122<262 296> 280 119<255 274>
VStem: 354 145<203 259> 1073 160<-380 693>
Fore
1073 658 m 2
 1073 868.667 974 979.333 776 990 c 1
 645.333 991.333 536 936.667 448 826 c 1
 532.667 801.333 595.667 747.333 637 664 c 1
 545 591.333 499 504.667 499 404 c 2
 499 259 l 2
 499 83.6667 431.333 -6 296 -10 c 1
 164.667 -10 94.3333 59.3333 85 198 c 1
 88.3333 320 145 387 255 399 c 1
 291.667 399 319.667 389.333 339 370 c 1
 339 404 l 1
 339.667 513.333 382.667 602.667 468 672 c 1
 431.333 730.667 365.333 771 270 793 c 1
 374 1031 542.667 1150 776 1150 c 1
 1080.67 1144.67 1233 986 1233 674 c 2
 1233 -380 l 1
 1073 -380 l 1
 1073 658 l 2
262 112 m 1
 322 112.667 352.667 143 354 203 c 0
 354 249.667 327.333 275.333 274 280 c 1
 224 280 196 253 190 199 c 1
 190 154.333 214 125.333 262 112 c 1
EndSplineSet
EndChar
StartChar: uni0E27
Encoding: 161 3623 163
OldEncoding: 3623
Width: 1150
Flags: W
HStem: -10 123<758 790> 281 117<749 770> 1002 147<546 572.801>
VStem: 579 107<179 200> 834 160<369 742> 850 144<204 258>
Fore
994 742 m 2xf8
 994 258 l 2xf4
 994 78.6667 926 -10.6667 790 -10 c 1
 662.667 -6 592.333 57 579 179 c 1
 579 315 635.667 388 749 398 c 1
 786.333 398 814.667 388.333 834 369 c 1
 834 738 l 1
 836.667 813.333 816.5 875.667 773.5 925 c 128
 730.5 974.333 654.667 1000 546 1002 c 0
 400 1003.33 274.667 958 170 866 c 1
 96 927 l 1
 217.333 1069.67 367.333 1143.67 546 1149 c 1
 694.667 1147 806.5 1110.83 881.5 1040.5 c 128
 956.5 970.167 994 870.667 994 742 c 2xf8
758 113 m 1
 818 113.667 848.667 144 850 204 c 0
 850 250.667 823.333 276.333 770 281 c 1
 720 281 692 254 686 200 c 1
 686 155.333 710 126.333 758 113 c 1
EndSplineSet
EndChar
StartChar: uni0E28
Encoding: 162 3624 164
OldEncoding: 3624
Width: 1300
Flags: W
HStem: 0 21G<181 391 971 1131> 625 121<658 679>
VStem: 99 161<639 675> 758 98<543 553> 971 160<0 675>
Fore
941 1067 m 1
 987 1095.67 1027.33 1148 1062 1224 c 1
 1280 1224 l 1
 1243.33 1108 1171.33 1013 1064 939 c 1
 1108 863.667 1130.33 767.667 1131 651 c 1
 1131 0 l 1
 971 0 l 1
 971 650 l 2
 971 856 853 969 617 989 c 1
 379 971.667 260 857.333 260 646 c 1
 262 529.333 280.667 399.333 316 256 c 1
 339.333 418 382.667 540.333 446 623 c 128
 509.333 705.667 580 746.667 658 746 c 0
 784 745.333 850 681 856 553 c 1
 853.333 432.333 796.333 362 685 342 c 1
 605 340.667 551.667 368 525 424 c 1
 472.333 318.667 427.667 177.333 391 0 c 1
 181 0 l 1
 181 108 l 1
 180.333 183.333 163.333 288.667 130 424 c 1
 109.333 513.333 99 596.333 99 673 c 0
 100.333 973 271.333 1131.67 612 1149 c 1
 748.667 1147 858.333 1119.67 941 1067 c 1
673 460 m 1
 727.667 463.333 756 491 758 543 c 1
 758 593.667 731.667 621 679 625 c 1
 625 625 596 597.667 592 543 c 1
 591.333 493.667 618.333 466 673 460 c 1
EndSplineSet
EndChar
StartChar: uni0E29
Encoding: 163 3625 165
OldEncoding: 3625
Width: 1350
Flags: W
HStem: -1 148<454 1119> 1118 20G<960 1120>
VStem: 295 160<-1 880> 312 143<880 945> 850 73<641 650> 960 159<147 493 543 1138>
Fore
1120 654 m 1xec
 1147.33 681.333 1161 721 1161 773 c 1
 1268 773 l 1
 1268 655 1218.67 561.667 1120 493 c 1
 1119 -1 l 1
 295 -1 l 1
 295 769 l 1
 274.333 743 239.333 734 190 742 c 1
 84.6667 764.667 35.6667 840 43 968 c 1
 57.6667 1092.67 127.333 1153 252 1149 c 1
 387.333 1147 455 1057.33 455 880 c 2
 455 147 l 1
 960 147 l 1
 960 435 l 1
 892 411 822.167 419.333 750.5 460 c 128
 678.833 500.667 649 563 661 647 c 1
 676.333 722.333 720.667 761.667 794 765 c 1
 872.667 765 915.667 726.667 923 650 c 1
 922.333 596.667 899.333 562.667 854 548 c 1
 885.333 532.667 920.667 531 960 543 c 1
 960 1138 l 1
 1120 1138 l 1
 1120 654 l 1xec
850 641 m 0
 850.667 675.667 831.667 694.667 793 698 c 1
 759.667 695.333 740.667 677.333 736 644 c 1
 738 610.667 756.667 592 792 588 c 1
 829.333 590.667 848.667 608.333 850 641 c 0
220 854 m 1
 280 854.667 310.667 885 312 945 c 0xdc
 312 991.667 285.333 1017.33 232 1022 c 1
 182 1022 154 995 148 941 c 1
 148 896.333 172 867.333 220 854 c 1
EndSplineSet
EndChar
StartChar: uni0E2A
Encoding: 164 3626 166
OldEncoding: 3626
Width: 1250
Flags: W
HStem: -11 115<398 421> 272 127<419 436> 604 140<552 602> 984 165<538 563>
VStem: 501 99<193 197> 889 160<0 726>
Fore
922 1037 m 1
 982.667 1081 1024 1138.33 1046 1209 c 1
 1212 1209 l 1
 1204 1141.67 1177 1082.33 1131 1031 c 128
 1085 979.667 1041.67 948 1001 936 c 1
 1032.33 874.667 1048.33 800.333 1049 713 c 1
 1049 0 l 1
 889 0 l 1
 889 263 l 1
 888.333 361 860.5 442.5 805.5 507.5 c 128
 750.5 572.5 673 604.667 573 604 c 1
 504.333 604.667 449.333 586.167 408 548.5 c 128
 366.667 510.833 346 463.667 346 407 c 2
 346 369 l 1
 364 389 394 399 436 399 c 1
 544 395 598.667 326.333 600 193 c 1
 598 127.667 577.667 77.3333 539 42 c 128
 500.333 6.66667 453.333 -11 398 -11 c 0
 338 -12.3333 287.667 8.66667 247 52 c 128
 206.333 95.3333 186 164 186 258 c 2
 186 388 l 2
 186 508 225.833 597.5 305.5 656.5 c 128
 385.167 715.5 475 744.667 575 744 c 1
 648.333 744.667 714.167 730.667 772.5 702 c 128
 830.833 673.333 869.667 642.333 889 609 c 1
 889 714 l 1
 888.333 886 779 976 561 984 c 1
 433 984 304.333 934 175 834 c 1
 121 944 l 1
 256.333 1077.33 403.667 1145.67 563 1149 c 1
 721 1144.33 840.667 1107 922 1037 c 1
409 104 m 1
 469 104.667 499.667 135 501 195 c 0
 501 241.667 474.333 267.333 421 272 c 1
 371 272 343 245 337 191 c 1
 337 146.333 361 117.333 409 104 c 1
EndSplineSet
EndChar
StartChar: uni0E2B
Encoding: 165 3627 167
OldEncoding: 3627
Width: 1350
Flags: W
HStem: 0 21G<332 556 1038 1198> 748 115<255 277> 1019 125<972 977>
VStem: 100 100<936 956> 332 160<0 924> 364 128<924 956> 775 118<922 950> 1038 160<0 610> 1057 128<936 956>
Fore
492 190 m 1xfb
 534.667 314.667 593.833 430.5 669.5 537.5 c 128
 745.167 644.5 810.333 721 865 767 c 1
 803 797.667 773 858.667 775 950 c 1
 781.667 1075.33 847.333 1140 972 1144 c 1
 1106 1140.67 1177 1078 1185 956 c 1xfa80
 1184.33 864.667 1158.33 800.667 1107 764 c 1
 1155.67 732.667 1186 681.333 1198 610 c 1
 1198 0 l 1
 1038 0 l 1
 1038 594 l 2
 1038 637.333 1017.33 669.333 976 690 c 1
 917.333 646 843.333 555.667 754 419 c 128
 664.667 282.333 598.667 142.667 556 0 c 1
 332 0 l 1
 332 767 l 1
 313.333 754.333 287.667 748 255 748 c 1
 151.667 760.667 100 830 100 956 c 1
 112.667 1080 178 1144.33 296 1149 c 1
 426.667 1149.67 492 1074.67 492 924 c 2
 492 190 l 1xfb
272 863 m 1
 332 863.667 362.667 894 364 954 c 0xf6
 364 1000.67 337.333 1026.33 284 1031 c 1
 234 1031 206 1004 200 950 c 1
 200 905.333 224 876.333 272 863 c 1
965 851 m 1
 1025 851.667 1055.67 882 1057 942 c 0xf280
 1057 988.667 1030.33 1014.33 977 1019 c 1
 927 1019 899 992 893 938 c 1
 893 893.333 917 864.333 965 851 c 1
EndSplineSet
EndChar
StartChar: uni0E2C
Encoding: 166 3628 168
OldEncoding: 3628
Width: 1400
Flags: W
HStem: 0 21G<317 507 1033 1223> 740 117<233 247> 1025 124<254 274> 1447 20G<1359 1459>
VStem: 63 109<928.793 942.875> 317 160<0 880> 336 141<880 948> 1063 158<260 1159>
DStem: 738 1083 762 810 477 263 507 0 762 810 786 1083 1033 0 1063 260
Fore
1063 1167 m 1xfd
 955.667 1169.67 899.667 1230 895 1348 c 1
 898.333 1458 954 1515 1062 1519 c 1
 1169.33 1513.67 1222.33 1457 1221 1349 c 1
 1222 1281 l 1
 1262.67 1281 1296.67 1296.5 1324 1327.5 c 128
 1351.33 1358.5 1363 1405 1359 1467 c 1
 1459 1467 l 1
 1465.67 1359.67 1445.17 1282 1397.5 1234 c 128
 1349.83 1186 1291 1161 1221 1159 c 1
 1223 0 l 1
 1033 0 l 1
 762 810 l 1
 507 0 l 1
 317 0 l 1
 317 769 l 1
 297.667 749.667 269.667 740 233 740 c 0
 122.333 742.667 65.6667 810.333 63 943 c 1
 69.6667 1078.33 140 1147 274 1149 c 1
 409.333 1145.67 477 1056 477 880 c 2
 477 263 l 1
 738 1083 l 1
 786 1083 l 1
 1063 260 l 1
 1063 1167 l 1xfd
244 857 m 1
 304 857.667 334.667 888 336 948 c 0xfb
 336 994.667 309.333 1020.33 256 1025 c 1
 206 1025 178 998 172 944 c 1
 172 899.333 196 870.333 244 857 c 1
1060 1275 m 1
 1104 1280.33 1127 1303.67 1129 1345 c 1
 1125 1387.67 1102.67 1410 1062 1412 c 1
 1015.33 1410 991.333 1387 990 1343 c 1
 995.333 1301 1018.67 1278.33 1060 1275 c 1
EndSplineSet
EndChar
StartChar: uni0E2D
Encoding: 167 3629 169
OldEncoding: 3629
Width: 1230
Flags: W
HStem: 0 159<383 1050> 340 120<442 458> 628 120<436 454> 1002 147<534 570>
VStem: 223 160<0 366> 534 104<525 551> 890 160<159 753>
Fore
1050 749 m 1
 1050 0 l 1
 223 0 l 1
 223 434 l 1
 224.333 640.667 295.333 745.333 436 748 c 1
 569.333 744 636.667 669.667 638 525 c 1
 634 403.667 574 342 458 340 c 0
 432 340 407 348.667 383 366 c 1
 384 159 l 1
 890 159 l 1
 890 738 l 1
 889.333 898.667 782.667 986.667 570 1002 c 1
 429.333 1002 314.667 956.667 226 866 c 1
 152 927 l 1
 265.333 1075 403.333 1149 566 1149 c 1
 889.333 1144.33 1050.67 1011 1050 749 c 1
442 460 m 1
 502 460.667 532.667 491 534 551 c 0
 534 597.667 507.333 623.333 454 628 c 1
 404 628 376 601 370 547 c 1
 370 502.333 394 473.333 442 460 c 1
EndSplineSet
EndChar
StartChar: uni0E2E
Encoding: 168 3630 170
OldEncoding: 3630
Width: 1250
Flags: W
HStem: 0 159<388 1057> 628 120<441 457> 764 111<583 603> 1038 111<569 619>
VStem: 228 160<0 373> 537 106<525 551> 895 161<159 748>
Fore
1057 0 m 1
 228 0 l 1
 228 434 l 1
 226.667 639.333 297.667 744 441 748 c 1
 572.333 747.333 639.667 673 643 525 c 1
 640.333 407 581 346.333 465 343 c 1
 431.667 345.667 406 355.667 388 373 c 1
 388 159 l 1
 895 159 l 1
 895 715 l 2
 895 776.333 886 818.667 868 842 c 1
 799.333 790.667 706 764.667 588 764 c 1
 348 767.333 219.333 832 202 958 c 1
 248 1084.67 375.667 1148.33 585 1149 c 0
 711 1149.67 815.333 1121.33 898 1064 c 1
 926 1100 943.333 1131.33 950 1158 c 1
 1072 1116 l 1
 1048.67 1060.67 1022.67 1013.67 994 975 c 1
 1034 925 1054.67 846.333 1056 739 c 1
 1057 0 l 1
824 952 m 1
 760 1009.33 684 1038 596 1038 c 0
 481.333 1038 400.667 1011.33 354 958 c 1
 372 910 448.333 882.333 583 875 c 1
 673 875 753.333 900.667 824 952 c 1
445 460 m 1
 505 460.667 535.667 491 537 551 c 0
 537 597.667 510.333 623.333 457 628 c 1
 407 628 379 601 373 547 c 1
 373 502.333 397 473.333 445 460 c 1
EndSplineSet
EndChar
StartChar: uni0E2F
Encoding: 169 3631 171
OldEncoding: 3631
Width: 1150
Flags: W
HStem: 0 21G<865 1025> 1129 20G<865 1025>
VStem: 407 124<943 957> 865 160<0 1149>
Fore
1025 1149 m 1
 1025 0 l 1
 865 0 l 1
 865 830 l 1
 787.667 762.667 687.833 719.5 565.5 700.5 c 128
 443.167 681.5 339.333 694 254 738 c 1
 174 782 131.333 852.667 126 950 c 1
 136 1064 204 1126.67 330 1138 c 1
 457.333 1133.33 524.333 1072.33 531 955 c 1
 532.333 893.667 509.333 852.667 462 832 c 1
 554 829.333 643.5 857 730.5 915 c 128
 817.5 973 862.333 1051 865 1149 c 1
 1025 1149 l 1
315 866 m 1
 375 866.667 405.667 897 407 957 c 0
 407 1003.67 380.333 1029.33 327 1034 c 1
 277 1034 249 1007 243 953 c 1
 243 908.333 267 879.333 315 866 c 1
EndSplineSet
EndChar
StartChar: uni0E30
Encoding: 170 3632 172
OldEncoding: 3632
Width: 1100
Flags: W
HStem: 62 186<332 484> 548 186<332 484>
VStem: 173 97<316 330 797 816>
Fore
173 330 m 1
 179 428 235.667 479.667 343 485 c 1
 447.667 481.667 501.667 426 505 318 c 1
 501.667 269.333 479.333 229.667 438 199 c 1
 514.667 173.667 593.833 182.5 675.5 225.5 c 128
 757.167 268.5 798 353 798 479 c 1
 914 479 l 1
 914 341 874.167 236.667 794.5 166 c 128
 714.833 95.3333 611.333 60.6667 484 62 c 0
 391.333 63.3333 316 86.8333 258 132.5 c 128
 200 178.167 171.667 244 173 330 c 1
332 248 m 1
 384 248.667 410.667 275 412 327 c 0
 412 367 389 389 343 393 c 1
 299.667 393 275.333 369.667 270 323 c 1
 270 284.333 290.667 259.333 332 248 c 1
173 816 m 1
 179 914 235.667 965.667 343 971 c 1
 447.667 967.667 501.667 912 505 804 c 1
 501.667 755.333 479.333 715.667 438 685 c 1
 514.667 659.667 593.833 668.5 675.5 711.5 c 128
 757.167 754.5 798 839 798 965 c 1
 914 965 l 1
 914 827 874.167 722.667 794.5 652 c 128
 714.833 581.333 611.333 546.667 484 548 c 0
 391.333 549.333 316 572.833 258 618.5 c 128
 200 664.167 171.667 730 173 816 c 1
332 734 m 1
 384 734.667 410.667 761 412 813 c 0
 412 853 389 875 343 879 c 1
 299.667 879 275.333 855.667 270 809 c 1
 270 770.333 290.667 745.333 332 734 c 1
EndSplineSet
EndChar
StartChar: uni0E31
Encoding: 171 3633 173
OldEncoding: 3633
Width: 0
Flags: W
VStem: -756 97<1468 1482>
Fore
-756 1482 m 1
 -750 1580 -693.333 1631.67 -586 1637 c 1
 -481.333 1633.67 -427.333 1578 -424 1470 c 1
 -427.333 1421.33 -449.667 1381.67 -491 1351 c 1
 -414.333 1325.67 -335.167 1334.5 -253.5 1377.5 c 128
 -171.833 1420.5 -131 1505 -131 1631 c 1
 -15 1631 l 1
 -15 1493 -54.8333 1388.67 -134.5 1318 c 128
 -214.167 1247.33 -317.667 1212.67 -445 1214 c 0
 -537.667 1215.33 -613 1238.83 -671 1284.5 c 128
 -729 1330.17 -757.333 1396 -756 1482 c 1
-597 1400 m 1
 -545 1400.67 -518.333 1427 -517 1479 c 0
 -517 1519 -540 1541 -586 1545 c 1
 -629.333 1545 -653.667 1521.67 -659 1475 c 1
 -659 1436.33 -638.333 1411.33 -597 1400 c 1
EndSplineSet
EndChar
StartChar: uni0E32
Encoding: 172 3634 174
OldEncoding: 3634
Width: 1150
Flags: W
HStem: 0 21G<796 956> 990 159<546 571>
VStem: 796 160<0 755>
Fore
956 753 m 1
 956 0 l 1
 796 0 l 1
 796 729 l 2
 796 813.667 774.167 878.333 730.5 923 c 128
 686.833 967.667 625.333 990 546 990 c 1
 410 988 314 930 258 816 c 1
 138 837 l 1
 208 1043 344 1147 546 1149 c 1
 674.667 1147 775.333 1108.33 848 1033 c 128
 920.667 957.667 956.667 864.333 956 753 c 1
EndSplineSet
EndChar
StartChar: uni0E33
Encoding: 173 3635 175
OldEncoding: 3635
Width: 1050
Flags: W
HStem: 0 21G<781 941> 990 159<531 546>
VStem: 781 160<0 755>
Fore
-299 1668 m 1
 -150.333 1661.33 -72.6667 1585.67 -66 1441 c 1
 -70.6667 1293 -148.333 1216.67 -299 1212 c 1
 -444.333 1218 -520.333 1294.33 -527 1441 c 1
 -514.333 1585 -438.333 1660.67 -299 1668 c 1
941 753 m 1
 941 0 l 1
 781 0 l 1
 781 729 l 2
 781 813.667 759.167 878.333 715.5 923 c 128
 671.833 967.667 610.333 990 531 990 c 1
 395 988 299 930 243 816 c 1
 123 837 l 1
 193 1043 329 1147 531 1149 c 1
 659.667 1147 760.333 1108.33 833 1033 c 128
 905.667 957.667 941.667 864.333 941 753 c 1
-295 1521 m 1
 -347 1518.33 -375.333 1490 -380 1436 c 1
 -377.333 1380.67 -349 1352 -295 1350 c 1
 -238.333 1352 -209 1380.67 -207 1436 c 1
 -209.667 1490 -239 1518.33 -295 1521 c 1
EndSplineSet
MultipleSubs: 0 1 'ccmp' uni0E4D uni0E32
EndChar
StartChar: uni0E34
Encoding: 174 3636 176
OldEncoding: 3636
Width: 0
Flags: W
HStem: 1322 91<-1124 -898>
Fore
-180 1227 m 1
 -318 1257 -490.167 1280.33 -696.5 1297 c 128
 -902.833 1313.67 -1045.33 1322 -1124 1322 c 1
 -1080.67 1432.67 -1005 1519.67 -897 1583 c 1
 -806.333 1633.67 -706 1653 -596 1641 c 1
 -486.667 1627 -397 1585 -327 1515 c 1
 -247.667 1441 -198.667 1345 -180 1227 c 1
-365 1359 m 1
 -413.667 1456.33 -495 1512.33 -609 1527 c 1
 -739 1535 -835.333 1497 -898 1413 c 1
 -835.333 1413.67 -737.833 1406.5 -605.5 1391.5 c 128
 -473.167 1376.5 -393 1365.67 -365 1359 c 1
EndSplineSet
EndChar
StartChar: uni0E35
Encoding: 175 3637 177
OldEncoding: 3637
Width: 0
Flags: W
HStem: 1323 101<-1124 -873> 1511 131<-661 -616>
VStem: -337 150<1525 1735>
Fore
-187 1260 m 1
 -184.333 1248.67 -182 1238 -180 1228 c 1
 -323.333 1258.67 -533.333 1285.33 -810 1308 c 0
 -941.333 1318 -1046 1323 -1124 1323 c 1
 -1103.33 1392.33 -1049.33 1462.83 -962 1534.5 c 128
 -874.667 1606.17 -773.333 1642 -658 1642 c 0
 -528 1642 -421 1603 -337 1525 c 1
 -337 1735 l 1
 -187 1735 l 1
 -187 1260 l 1
-379 1370 m 1
 -417 1456.67 -496 1503.67 -616 1511 c 1
 -738.667 1512.33 -824.333 1483.33 -873 1424 c 1
 -775 1424 -651 1413.33 -501 1392 c 0
 -448.333 1384.67 -407.667 1377.33 -379 1370 c 1
EndSplineSet
EndChar
StartChar: uni0E36
Encoding: 176 3638 178
OldEncoding: 3638
Width: 0
Flags: W
HStem: 1323 89<-1124 -877>
Fore
-367 1548 m 1
 -352.333 1633.33 -296 1677.67 -198 1681 c 1
 -84 1676.33 -22.6667 1616.67 -14 1502 c 1
 -16 1381.33 -78.6667 1321 -202 1321 c 1
 -196 1304.33 -188.667 1273.33 -180 1228 c 1
 -323.333 1258.67 -533.333 1285.33 -810 1308 c 0
 -941.333 1318 -1046 1323 -1124 1323 c 1
 -1108 1401 -1059 1474 -977 1542 c 128
 -895 1610 -788.667 1643.33 -658 1642 c 1
 -536 1642.67 -439 1611.33 -367 1548 c 1
-198 1568 m 1
 -242.667 1566.67 -266.667 1544 -270 1500 c 1
 -269.333 1455.33 -245.333 1431.67 -198 1429 c 1
 -151.333 1431 -126.667 1454.67 -124 1500 c 1
 -126.667 1542 -151.333 1564.67 -198 1568 c 1
-374 1358 m 1
 -408.667 1452.67 -489.333 1504.33 -616 1513 c 1
 -749.333 1519.67 -836.333 1486 -877 1412 c 1
 -778.333 1412 -653 1401.33 -501 1380 c 0
 -445 1372.67 -402.667 1365.33 -374 1358 c 1
EndSplineSet
EndChar
StartChar: uni0E37
Encoding: 177 3639 179
OldEncoding: 3639
Width: 0
Flags: W
HStem: 1479 128<-641 -616>
VStem: -337 150<1493 1695>
Fore
-416 1544 m 1
 -401.333 1544 -376.333 1528.33 -341 1497 c 2
 -337 1493 l 1
 -337 1695 l 1
 -187 1695 l 1
 -187 1258 l 1
 -185 1201 l 1
 -327 1231.67 -542 1258.33 -830 1281 c 0
 -949.333 1291 -1041 1296 -1105 1296 c 1
 -1074.33 1388.67 -1009 1468 -909 1534 c 0
 -853 1570.67 -783.667 1594 -701 1604 c 1
 -641 1607 l 1
 -613.667 1606.33 -588.667 1603.33 -566 1598 c 1
 -566 1696 l 1
 -416 1696 l 1
 -416 1544 l 1
-399 1343 m 1
 -417.667 1382.33 -449.667 1415.33 -495 1442 c 0
 -532.333 1464 -572.667 1476.33 -616 1479 c 1
 -671 1479 l 1
 -753.667 1472.33 -816 1442.67 -858 1390 c 2
 -860 1387 l 1
 -737 1382 l 1
 -567.667 1370.67 -455 1357.67 -399 1343 c 1
EndSplineSet
EndChar
StartChar: uni0E38
Encoding: 178 3640 180
OldEncoding: 3640
Width: 0
Flags: W
HStem: -375 67<-398 -374> -163 78<-385 -372>
VStem: -525 77<-247 -229> -341 131<-534 -299>
Fore
-341 -534 m 1
 -341 -360 l 1
 -351 -368.667 -362 -373.667 -374 -375 c 1
 -474.667 -375 -525 -331.333 -525 -244 c 0
 -525 -138 -474 -85 -372 -85 c 0
 -264 -86.3333 -210 -157.667 -210 -299 c 2
 -210 -534 l 1
 -341 -534 l 1
-383 -163 m 0
 -426.333 -163 -448 -187.333 -448 -236 c 0
 -447.333 -284.667 -425.667 -308.667 -383 -308 c 0
 -351 -307.333 -334.333 -283.667 -333 -237 c 1
 -333 -187.667 -349.667 -163 -383 -163 c 0
EndSplineSet
EndChar
StartChar: uni0E39
Encoding: 179 3641 181
OldEncoding: 3641
Width: 0
Flags: W
HStem: -534 99<-497 -217> -163 78<-671 -658>
VStem: -811 77<-247 -230> -627 131<-534 -313> -619 123<-299 -237> -351 134<-435 -96>
Fore
-351 -96 m 1xf4
 -217 -96 l 1
 -217 -534 l 1
 -627 -534 l 1
 -627 -360 l 1xf4
 -637 -368.667 -648 -373.667 -660 -375 c 2
 -694 -376 l 1
 -723.333 -374 -749.333 -362.333 -772 -341 c 0
 -798 -317.667 -811 -285.333 -811 -244 c 0
 -811 -228 -808.667 -210.667 -804 -192 c 0
 -794.667 -157.333 -771.667 -129 -735 -107 c 0
 -710.333 -92.3333 -684.667 -85 -658 -85 c 1
 -621 -88 l 1
 -579 -96 -548.333 -115 -529 -145 c 0
 -508.333 -178.333 -497.333 -229.667 -496 -299 c 1xec
 -496 -313 l 1
 -496 -435 l 1
 -351 -435 l 1
 -351 -96 l 1xf4
-669 -163 m 0
 -676.333 -163 -683.333 -164.667 -690 -168 c 0
 -705.333 -174.667 -717.333 -186.333 -726 -203 c 0
 -731.333 -213.667 -734 -224.667 -734 -236 c 0
 -734 -279.333 -715.333 -303 -678 -307 c 0
 -674.667 -307.667 -671.667 -308 -669 -308 c 0
 -661.667 -308 -654.667 -305.333 -648 -300 c 0
 -628.667 -286 -619 -265 -619 -237 c 2
 -619 -232 l 1xec
 -621 -186.667 -637.667 -163.667 -669 -163 c 0
EndSplineSet
EndChar
StartChar: uni0E3A
Encoding: 180 3642 182
OldEncoding: 3642
Width: 0
Flags: W
Fore
-246 -60 m 0
 -209.333 -60 -178 -73 -152 -99 c 0
 -124.667 -127.667 -111 -159.667 -111 -195 c 0
 -111 -231.667 -124.667 -263 -152 -289 c 1
 -178 -316.333 -209.333 -330 -246 -330 c 0
 -281.333 -330 -312.667 -316.333 -340 -289 c 0
 -366.667 -262.333 -380 -231 -380 -195 c 0
 -380 -159.667 -366.667 -127.667 -340 -99 c 1
 -313.333 -73 -282 -60 -246 -60 c 0
EndSplineSet
EndChar
StartChar: uni0E3F
Encoding: 181 3647 183
OldEncoding: 3647
Width: 1250
Flags: W
HStem: 0 170<348 541> 719 166<348 541 653 674.117> 1315 174<653 702>
VStem: 152 196<0 719 0 1321> 541 112<-133 2 170 717 885 1319 1489 1595> 885 207<1122 1148> 954 207<426 476>
Fore
883 827 m 1xfc
 972.333 801.667 1041 757 1089 693 c 1
 1137 627 1161 548.333 1161 457 c 0xfa
 1161 324.333 1114 216.333 1020 133 c 0
 926 49.6667 803.667 6 653 2 c 1
 653 -133 l 1
 541 -133 l 1
 541 0 l 1
 152 0 l 1
 152 1489 l 1
 541 1489 l 1
 541 1595 l 1
 653 1595 l 1
 653 1489 l 1
 798.333 1487 908 1458 982 1402 c 0
 1055.33 1346.67 1092 1260.67 1092 1144 c 0
 1092 1082 1073.33 1022.33 1036 965 c 0
 998 908.333 947 865.333 883 836 c 1
 883 827 l 1xfc
541 885 m 1
 541 1321 l 1
 348 1321 l 1
 348 885 l 1
 541 885 l 1
653 887 m 1
 711.667 887.667 765.333 905.667 814 941 c 0
 861.333 975.667 885 1036.67 885 1124 c 0xfc
 885 1188.67 867.667 1235.33 833 1264 c 0
 797.667 1293.33 754 1310.33 702 1315 c 1
 690.667 1315 674.333 1316.33 653 1319 c 1
 653 887 l 1
541 170 m 1
 541 719 l 1
 348 719 l 1
 348 170 l 1
 541 170 l 1
653 174 m 1
 741 178 813 202 869 246 c 0
 925.667 291.333 954 359 954 449 c 0xfa
 954 518.333 944.333 569.333 925 602 c 0
 905 634.667 872.333 661.667 827 683 c 1
 782.333 705.667 724.333 717 653 717 c 1
 653 174 l 1
EndSplineSet
EndChar
StartChar: uni0E40
Encoding: 182 3648 184
OldEncoding: 3648
Width: 700
Flags: W
HStem: -11 108<379 395> 1129 20G<167 327>
VStem: 167 160<258 1149> 485 95<175 198>
Fore
167 1149 m 1
 327 1149 l 1
 327 403 l 1
 327 369 l 1
 343.667 387.667 369 397 403 397 c 1
 522.333 393.667 581.333 319.667 580 175 c 1
 572 54.3333 505 -7.66667 379 -11 c 1
 237.667 -7.66667 167 82 167 258 c 2
 167 403 l 1
 167 1149 l 1
395 97 m 0
 455 95.6667 485 128 485 194 c 0
 485 264.667 455 301.333 395 304 c 1
 343 301.333 318.333 265.333 321 196 c 1
 321 130.667 345.667 97.6667 395 97 c 0
EndSplineSet
EndChar
StartChar: uni0E41
Encoding: 183 3649 185
OldEncoding: 3649
Width: 1320
Flags: W
HStem: -11 108<403 419> 1129 20G<191 351 806 966>
VStem: 191 160<258 1149> 509 95<175 198> 806 160<258 1149> 1124 95<175 198>
Fore
191 1149 m 1
 351 1149 l 1
 351 403 l 1
 351 369 l 1
 367.667 387.667 393 397 427 397 c 1
 546.333 393.667 605.333 319.667 604 175 c 1
 596 54.3333 529 -7.66667 403 -11 c 1
 261.667 -7.66667 191 82 191 258 c 2
 191 403 l 1
 191 1149 l 1
419 97 m 0
 479 95.6667 509 128 509 194 c 0
 509 264.667 479 301.333 419 304 c 1
 367 301.333 342.333 265.333 345 196 c 1
 345 130.667 369.667 97.6667 419 97 c 0
806 1149 m 1
 966 1149 l 1
 966 403 l 1
 966 369 l 1
 982.667 387.667 1008 397 1042 397 c 1
 1161.33 393.667 1220.33 319.667 1219 175 c 1
 1211 54.3333 1144 -7.66667 1018 -11 c 1
 876.667 -7.66667 806 82 806 258 c 2
 806 403 l 1
 806 1149 l 1
1034 97 m 0
 1094 95.6667 1124 128 1124 194 c 0
 1124 264.667 1094 301.333 1034 304 c 1
 982 301.333 957.333 265.333 960 196 c 1
 960 130.667 984.667 97.6667 1034 97 c 0
EndSplineSet
EndChar
StartChar: uni0E42
Encoding: 184 3650 186
OldEncoding: 3650
Width: 1100
Flags: W
HStem: 1603 140<836 872>
VStem: 561 154<196 258> 879 96<175 214>
Fore
561 1130 m 2
 561 1211.33 551 1267 531 1297 c 1
 510.333 1331.67 465.333 1363.33 396 1392 c 128
 326.667 1420.67 201.667 1441.67 21 1455 c 1
 31 1529.67 69.6667 1613.17 137 1705.5 c 128
 204.333 1797.83 302.333 1844 431 1844 c 0
 487 1844 551.667 1828.33 625 1797 c 1
 669 1779.67 709.833 1766.33 747.5 1757 c 128
 785.167 1747.67 826.667 1743 872 1743 c 0
 950 1743 1011.33 1763.33 1056 1804 c 1
 1034 1650 l 1
 974.667 1618.67 909.667 1603 839 1603 c 0
 795.667 1603 759.333 1607 730 1615 c 128
 700.667 1623 650.667 1640.67 580 1668 c 1
 528 1689.33 473 1701.33 415 1704 c 1
 338.333 1701.33 276.667 1653.33 230 1560 c 1
 373.333 1540.67 481.333 1509.17 554 1465.5 c 128
 626.667 1421.83 673.333 1373.67 694 1321 c 1
 712 1279 721 1216 721 1132 c 2
 721 369 l 1
 738.333 386.333 764 395.667 798 397 c 1
 919.333 391 978.333 317 975 175 c 1
 975 53.6667 907.667 -8.33333 773 -11 c 1
 713.667 -10.3333 663.5 9.83333 622.5 49.5 c 128
 581.5 89.1667 561 158.667 561 258 c 2
 561 1130 l 2
789 97 m 1
 849.667 99 879.667 133.667 879 201 c 1
 880.333 267 850.333 301.333 789 304 c 1
 741 303.333 716.333 267.333 715 196 c 0
 715 132 739.667 99 789 97 c 1
EndSplineSet
EndChar
StartChar: uni0E43
Encoding: 185 3651 187
OldEncoding: 3651
Width: 1000
Flags: W
HStem: -11 21G<713.667 813> 1266 112<325 346.976> 1683 156<486 520>
VStem: 66 131<1495 1505> 534 154<196 258> 852 95<175 198>
Fore
694 911 m 2
 694 369 l 1
 705.333 383 730.667 392.333 770 397 c 1
 887.333 393.667 946.333 319.667 947 175 c 0
 947 51 880 -11 746 -11 c 0
 681.333 -11 629.833 9 591.5 49 c 128
 553.167 89 534 158.667 534 258 c 2
 534 913 l 2
 534 990.333 543.5 1052.17 562.5 1098.5 c 128
 581.5 1144.83 613.333 1192 658 1240 c 1
 726 1310.67 760 1390.33 760 1479 c 0
 760 1549 732.333 1600.33 677 1633 c 128
 621.667 1665.67 568.667 1682.33 518 1683 c 1
 598.667 1591.67 604.667 1486.33 536 1367 c 1
 482 1300.33 411.667 1266.67 325 1266 c 1
 156.333 1266.67 70 1343.33 66 1496 c 1
 66 1565.33 86.6667 1627.33 128 1682 c 1
 212 1781.33 331.333 1833.67 486 1839 c 1
 624.667 1839 728.333 1799.17 797 1719.5 c 128
 865.667 1639.83 899.667 1568.33 899 1505 c 1
 907.667 1387 879.333 1292.33 814 1221 c 0
 767.333 1170.33 735.667 1125.5 719 1086.5 c 128
 702.333 1047.5 694 989 694 911 c 2
762 97 m 1
 822 99 852 131.333 852 194 c 0
 850.667 264.667 820.667 301.333 762 304 c 1
 711.333 301.333 686.667 265.333 688 196 c 1
 692 132 716.667 99 762 97 c 1
320 1629 m 1
 240.667 1625.67 199.667 1584.33 197 1505 c 1
 199 1423.67 242.667 1381.33 328 1378 c 1
 422.667 1380 470 1423.67 470 1509 c 1
 465.333 1587.67 415.333 1627.67 320 1629 c 1
EndSplineSet
EndChar
StartChar: uni0E44
Encoding: 186 3652 188
OldEncoding: 3652
Width: 1030
Flags: W
HStem: -11 21G<690.667 788.333> 1326 114<166 186> 1694 145<463 486>
VStem: 511 154<196 258> 829 95<175 203>
Fore
671 1608 m 1
 671 369 l 1
 690.333 384.333 707 392.833 721 394.5 c 128
 735 396.167 743.667 397 747 397 c 0
 863.667 395 922.667 321 924 175 c 1
 920.667 51 853.667 -11 723 -11 c 0
 658.333 -11 606.833 9 568.5 49 c 128
 530.167 89 511 158.667 511 258 c 2
 511 1594 l 2
 511 1660.67 495.333 1694 464 1694 c 1
 430.667 1698 400.667 1629.33 374 1488 c 1
 340 1380 271.333 1326 168 1326 c 0
 100 1326 47.6667 1350.67 11 1400 c 0
 -25 1448 -73.6667 1577.33 -135 1788 c 1
 14 1788 l 1
 72 1573 l 2
 96 1484.33 130 1440 174 1440 c 0
 208 1440 234 1464.33 252 1513 c 0
 255.333 1523 266.5 1563.17 285.5 1633.5 c 128
 304.5 1703.83 323 1749.67 341 1771 c 1
 363 1816.33 411.333 1839 486 1839 c 0
 610 1839 671.667 1762 671 1608 c 1
739 97 m 1
 799 99 829 133.667 829 201 c 0
 829 267 799 301.333 739 304 c 0
 688.333 305.333 663.667 269.333 665 196 c 0
 665 132 689.667 99 739 97 c 1
EndSplineSet
EndChar
StartChar: uni0E45
Encoding: 187 3653 189
OldEncoding: 3653
Width: 1000
Flags: W
HStem: 989 160<447 482>
VStem: 723 160<-380 757>
Fore
883 753 m 2
 883 -380 l 1
 723 -380 l 1
 723 729 l 2
 723 901 635.333 987.667 460 989 c 1
 342 987.667 268 928.333 238 811 c 1
 65 837 l 1
 83.6667 927 125.5 1001.5 190.5 1060.5 c 128
 255.5 1119.5 341.667 1149 449 1149 c 0
 598.333 1149 708 1114.5 778 1045.5 c 128
 848 976.5 883 879 883 753 c 2
EndSplineSet
EndChar
StartChar: uni0E46
Encoding: 188 3654 190
OldEncoding: 3654
Width: 1100
Flags: W
VStem: 788 160<-374 817>
Fore
352 607 m 1
 413.333 610.333 442.667 647.333 440 718 c 1
 436 778 407.333 808 354 808 c 0
 300 806.667 271.667 775 269 713 c 1
 263.667 649 291.333 613.667 352 607 c 1
788 -374 m 1
 788 817 l 1
 778.667 899.667 749 955.667 699 985 c 1
 555 887 l 1
 396 985 l 1
 368.667 966.333 349 935.333 337 892 c 1
 357 901.333 379.667 904 405 900 c 1
 491.667 891.333 536 835.333 538 732 c 0
 540.667 585.333 474.667 512 340 512 c 0
 194 511.333 127.333 610.667 140 810 c 1
 148 876.667 171.833 941.667 211.5 1005 c 128
 251.167 1068.33 312.667 1118.33 396 1155 c 1
 396 1154.33 449 1118.33 555 1047 c 1
 699 1155 l 1
 778.333 1141.67 839.667 1095.83 883 1017.5 c 128
 926.333 939.167 948 863 948 789 c 2
 948 -374 l 1
 788 -374 l 1
EndSplineSet
EndChar
StartChar: uni0E47
Encoding: 189 3655 191
OldEncoding: 3655
Width: 0
Flags: W
HStem: 1284 125<-492 -468> 1284 176<-468 -445> 1372 152<-754 -746> 1660 118<-662 -602>
VStem: -575 62<1516 1528> -385 93<1476 1519>
Fore
-453 1583 m 0x5c
 -477.667 1581.67 -495.667 1570 -507 1548 c 1
 -513 1528 l 1
 -513 1517 l 1
 -511.667 1491 -498.333 1473.67 -473 1465 c 0
 -465 1461.67 -455.667 1460 -445 1460 c 0
 -419 1461.33 -400.667 1473 -390 1495 c 0
 -386.667 1502.33 -385 1510.33 -385 1519 c 0
 -385 1545.67 -397.333 1564.67 -422 1576 c 0
 -430.667 1580.67 -441 1583 -453 1583 c 0x5c
-526 1434 m 0
 -558 1454 -574.333 1483.33 -575 1522 c 0
 -575 1533.33 -573.333 1543.67 -570 1553 c 0
 -554.667 1596.33 -523 1623 -475 1633 c 0
 -467.667 1634.33 -460 1635.33 -452 1636 c 1
 -414 1634 l 1
 -365.333 1627.33 -331.333 1604.67 -312 1566 c 0
 -298.667 1539.33 -292 1509.33 -292 1476 c 0
 -292 1446.67 -297 1419.67 -307 1395 c 0
 -332.333 1333.67 -375 1297.67 -435 1287 c 0
 -445.667 1285 -456.667 1284 -468 1284 c 0x9c
 -543.333 1284 -607.333 1300.33 -660 1333 c 2
 -709 1362 l 1
 -723.667 1368.67 -738.667 1372 -754 1372 c 0x3c
 -774.667 1372 -786 1354 -788 1318 c 0
 -789.333 1296 -791.667 1284.67 -795 1284 c 0x5c
 -893.667 1284 -963.667 1320.33 -1005 1393 c 0
 -1025 1428.33 -1035 1467.33 -1035 1510 c 0
 -1035 1528.67 -1033 1546.33 -1029 1563 c 0
 -1005.67 1654.33 -948 1716.33 -856 1749 c 0
 -854 1749.67 -851.667 1750.33 -849 1751 c 0
 -799 1767.67 -729.667 1776.67 -641 1778 c 0
 -581 1778.67 -539.667 1782.33 -517 1789 c 0
 -470.333 1803 -435.667 1827.33 -413 1862 c 0
 -405.667 1872 -400.333 1882.67 -397 1894 c 1
 -255 1894 l 1
 -259.667 1840.67 -288.333 1790 -341 1742 c 0
 -378.333 1708 -417.667 1685.67 -459 1675 c 0
 -491 1666.33 -547.333 1661.33 -628 1660 c 0
 -708 1659.33 -767.667 1649.67 -807 1631 c 0
 -851 1609.67 -877 1578.33 -885 1537 c 1
 -887 1505 l 1
 -881 1472 l 1
 -873 1444 -859 1430 -839 1430 c 1
 -834 1461 l 1
 -822 1503 -795.333 1524 -754 1524 c 0x3c
 -732 1524 -705 1511.33 -673 1486 c 0
 -633.667 1455.33 -602.667 1435.33 -580 1426 c 0
 -551.333 1414.67 -519.667 1409 -485 1409 c 0x9c
 -471.667 1409 -461.667 1411.67 -455 1417 c 1
 -488 1418 l 1
 -500 1420.67 -512.667 1426 -526 1434 c 0
EndSplineSet
EndChar
StartChar: uni0E48
Encoding: 190 3656 192
OldEncoding: 3656
Width: 0
Flags: W
Fore
-368 2195 m 1
 -163 2195 l 1
 -191 1826 l 1
 -333 1826 l 1
 -368 2195 l 1
EndSplineSet
Substitution: 0 65534 'loww' uni0E48.low
Substitution: 0 65534 'amni' uni0E4D
EndChar
StartChar: uni0E49
Encoding: 191 3657 193
OldEncoding: 3657
Width: 0
Flags: W
HStem: 1882 63<-543 -525> 2102 68<-539 -516>
VStem: -679 73<2010 2030> -448 99<2009 2026>
Fore
67 2156 m 1
 33.6667 2020.67 -51 1910.33 -187 1825 c 0
 -293.667 1757.67 -408.333 1718 -531 1706 c 1
 -591 1703 l 1
 -591 1783 l 1
 -559 1791 -532.333 1810 -511 1840 c 0
 -503 1851.33 -495.667 1869 -489 1893 c 1
 -505.667 1885.67 -523.667 1882 -543 1882 c 0
 -577 1882 -608.667 1894.67 -638 1920 c 0
 -665.333 1943.33 -679 1976.67 -679 2020 c 2
 -679 2030 l 1
 -677 2068.67 -663 2101 -637 2127 c 0
 -611 2153 -578.333 2167.33 -539 2170 c 1
 -517 2170 l 1
 -475.667 2166.67 -444 2157.67 -422 2143 c 0
 -410.667 2135 -399.333 2125 -388 2113 c 0
 -362 2083.67 -349 2049 -349 2009 c 2
 -349 1998 l 1
 -353 1942.67 -365.667 1897.33 -387 1862 c 1
 -397 1848 l 1
 -282.333 1890.67 -193.667 1956.67 -131 2046 c 0
 -106.333 2080.67 -87.6667 2117.33 -75 2156 c 1
 67 2156 l 1
-525 1945 m 0
 -499.667 1945 -478.667 1957 -462 1981 c 0
 -452.667 1994.33 -448 2008.67 -448 2024 c 0
 -448 2048.67 -460 2069.67 -484 2087 c 0
 -497.333 2097 -511 2102 -525 2102 c 0
 -552.333 2102 -574.667 2090 -592 2066 c 0
 -601.333 2053.33 -606 2039.33 -606 2024 c 0
 -606 1994 -592.333 1971.33 -565 1956 c 0
 -552.333 1948.67 -539 1945 -525 1945 c 0
EndSplineSet
Substitution: 0 65534 'loww' uni0E49.low
Substitution: 0 65534 'amni' uni0E4D
EndChar
StartChar: uni0E4A
Encoding: 192 3658 194
OldEncoding: 3658
Width: 0
Flags: W
HStem: 1668 68<-676 -640> 1856 58<-644 -631>
VStem: -872 127<1859 1888> -273 122<1840 1876>
Fore
-579 1799 m 0
 -580.333 1822.33 -591.667 1839.33 -613 1850 c 0
 -621 1854 -629.333 1856 -638 1856 c 2
 -643 1856 l 2
 -667.667 1854 -684.333 1841 -693 1817 c 1
 -696 1794 l 1
 -696 1792 l 1
 -695.333 1767.33 -684.667 1750.33 -664 1741 c 0
 -656.667 1737.67 -648.667 1736 -640 1736 c 0
 -614.667 1736 -596.333 1747.67 -585 1771 c 0
 -581 1779 -579 1788.33 -579 1799 c 0
-155 1839 m 1
 -10 2169 l 1
 125 2169 l 2
 124.333 2169 81.3333 2056.67 -4 1832 c 0
 -36.6667 1746.67 -120 1695 -254 1677 c 0
 -277.333 1673.67 -301 1672 -325 1672 c 1
 -290.333 1725.33 -273 1781.33 -273 1840 c 0
 -273 1876.67 -280.333 1910.33 -295 1941 c 0
 -311 1974.33 -334.333 2000.67 -365 2020 c 1
 -507 1902 l 1
 -605 1988 l 1
 -624.333 2004 -638.333 2014.67 -647 2020 c 1
 -694.333 2000.67 -725 1965.67 -739 1915 c 0
 -743 1900.33 -745 1885.67 -745 1871 c 0
 -745 1859 -743.667 1847.67 -741 1837 c 1
 -739.667 1846.33 -733.333 1859 -722 1875 c 0
 -704 1901 -675 1914 -635 1914 c 0
 -623 1914 -612.667 1912.67 -604 1910 c 0
 -562 1896.67 -536.667 1868.67 -528 1826 c 0
 -526.667 1820 -525.667 1813.67 -525 1807 c 1
 -527 1774 l 1
 -533.667 1732 -555.333 1702.67 -592 1686 c 0
 -616.667 1674 -644.667 1668 -676 1668 c 0
 -704 1668 -730 1672.33 -754 1681 c 0
 -803.333 1699.67 -838 1737.67 -858 1795 c 0
 -867.333 1822.33 -872 1852.67 -872 1886 c 0
 -872 1893.33 -871.667 1900.67 -871 1908 c 0
 -866.333 1980 -825 2044.33 -747 2101 c 0
 -713.667 2124.33 -680.333 2142 -647 2154 c 1
 -507 2036 l 1
 -365 2154 l 1
 -307.667 2134.67 -257.667 2097.33 -215 2042 c 1
 -172.333 1988.67 -151 1933.33 -151 1876 c 0
 -151 1863.33 -152.333 1851 -155 1839 c 1
EndSplineSet
Substitution: 0 65534 'loww' uni0E4A.low
Substitution: 0 65534 'amni' uni0E4D
EndChar
StartChar: uni0E4B
Encoding: 193 3659 195
OldEncoding: 3659
Width: 0
Flags: W
HStem: 1812 142<-590 -448 -306 -164>
VStem: -448 142<1670 1812 1954 2096>
Fore
-164 1812 m 1
 -306 1812 l 1
 -306 1670 l 1
 -448 1670 l 1
 -448 1812 l 1
 -590 1812 l 1
 -590 1954 l 1
 -448 1954 l 1
 -448 2096 l 1
 -306 2096 l 1
 -306 1954 l 1
 -164 1954 l 1
 -164 1812 l 1
EndSplineSet
Substitution: 0 65534 'loww' uni0E4B.low
Substitution: 0 65534 'amni' uni0E4D
EndChar
StartChar: uni0E4C
Encoding: 194 3660 196
OldEncoding: 3660
Width: 0
Flags: W
VStem: -617 113<1792 1806>
Fore
28 2169 m 1
 11.3333 2122.33 -32.3333 2076 -103 2030 c 2
 -133 2010 l 2
 -162.333 1989.33 -209.333 1970 -274 1952 c 1
 -321 1942 l 1
 -273.667 1932 -241.667 1906 -225 1864 c 1
 -211 1817 l 1
 -209 1789 l 1
 -209.667 1764.33 -219.667 1734.33 -239 1699 c 0
 -259 1661.67 -297.333 1637 -354 1625 c 0
 -366 1623 -377.667 1621.67 -389 1621 c 1
 -432 1624 l 1
 -488.667 1632.67 -532 1651.33 -562 1680 c 2
 -565 1683 l 2
 -595.667 1715.67 -613 1756.33 -617 1805 c 1
 -617 1831 l 1
 -611.667 1891 -590.333 1937 -553 1969 c 0
 -519 1998.33 -453.667 2023.33 -357 2044 c 0
 -315 2053.33 -289 2059.67 -279 2063 c 0
 -231 2079 -190 2102.33 -156 2133 c 0
 -142.667 2145.67 -133 2157.67 -127 2169 c 1
 28 2169 l 1
-409 1885 m 0
 -444.333 1885 -471 1871.33 -489 1844 c 1
 -499 1821 l 1
 -502.333 1812.33 -504 1802.67 -504 1792 c 0
 -504 1774.67 -497.667 1758 -485 1742 c 1
 -463.667 1717.33 -436.667 1705 -404 1705 c 1
 -364 1710.33 -336.667 1728 -322 1758 c 0
 -316.667 1769.33 -314 1781.67 -314 1795 c 0
 -314 1834.33 -330.667 1861.33 -364 1876 c 0
 -377.333 1882 -392.333 1885 -409 1885 c 0
EndSplineSet
Substitution: 0 65534 'loww' uni0E4C.low
EndChar
StartChar: uni0E4D
Encoding: 195 3661 197
OldEncoding: 3661
Width: 0
Flags: W
HStem: 1213 72<-269 -251> 1441 73<-269 -251>
VStem: -412 69<1362 1374> -183 70<1362 1374>
Fore
-262 1514 m 0
 -220.667 1514 -185.333 1499.33 -156 1470 c 0
 -127.333 1440 -113 1404 -113 1362 c 0
 -113 1321.33 -127.333 1286.33 -156 1257 c 0
 -185.333 1227.67 -220.667 1213 -262 1213 c 0
 -302.667 1213 -338 1227.67 -368 1257 c 0
 -397.333 1286.33 -412 1321.33 -412 1362 c 0
 -412 1404 -397.333 1440 -368 1470 c 0
 -338.667 1499.33 -303.333 1514 -262 1514 c 0
-263 1285 m 0
 -241 1285 -222.333 1292.33 -207 1307 c 0
 -191 1322.33 -183 1340.67 -183 1362 c 0
 -183 1383.33 -191 1402 -207 1418 c 0
 -222.333 1433.33 -241 1441 -263 1441 c 0
 -284.333 1441 -303 1433.33 -319 1418 c 0
 -335 1402 -343 1383.33 -343 1362 c 0
 -343 1340.67 -335 1322.33 -319 1307 c 0
 -303 1292.33 -284.333 1285 -263 1285 c 0
EndSplineSet
Substitution: 0 65534 'G007' uni0E4B
Substitution: 0 65534 'G006' uni0E4A
Substitution: 0 65534 'G005' uni0E49
Substitution: 0 65534 'G004' uni0E48
EndChar
StartChar: uni0E4E
Encoding: 196 3662 198
OldEncoding: 3662
Width: 0
Flags: W
HStem: 1444 110<-240 -135> 1686 112<-272 -168> 1925 111<-288 -254>
VStem: -543 123<1616 1628> -520 123<1859 1877>
Fore
-102 1901 m 1xe8
 -165.333 1917 -221.333 1925 -270 1925 c 0
 -354.667 1925 -397 1905.33 -397 1866 c 0xe8
 -397 1820.67 -344 1798 -238 1798 c 2
 -168 1798 l 1
 -168 1686 l 1
 -233 1686 l 2
 -357.667 1686 -420 1666 -420 1626 c 0
 -420 1606 -401.333 1589 -364 1575 c 0
 -326.667 1561 -276.333 1554 -213 1554 c 2
 -135 1554 l 1
 -135 1444 l 1
 -219 1444 l 2
 -319 1444 -398 1461 -456 1495 c 128
 -514 1529 -543 1569.33 -543 1616 c 0xf0
 -543 1644 -533 1669.83 -513 1693.5 c 128
 -493 1717.17 -466.667 1733.67 -434 1743 c 1
 -491.333 1772.33 -520 1815.33 -520 1872 c 0
 -520 1921.33 -498.667 1961 -456 1991 c 0
 -413.333 2021 -354.333 2036 -279 2036 c 0
 -223 2036 -164 2028.33 -102 2013 c 1
 -102 1901 l 1xe8
EndSplineSet
EndChar
StartChar: uni0E4F
Encoding: 197 3663 199
OldEncoding: 3663
Width: 1250
Flags: W
HStem: -21 121<592 642> 258 103<608 626> 658 105<608 626> 917 123<592 642>
VStem: 97 109<490 524> 363 101<490 524> 770 100<490 524> 1029 108<490 524>
Fore
617 917 m 0
 503.667 917 407 877 327 797 c 0
 246.333 717 206 620.667 206 508 c 0
 206 395.333 246.333 299 327 219 c 0
 407 139.667 503.667 100 617 100 c 0
 730.333 100 827.333 139.667 908 219 c 0
 988.667 299 1029 395.333 1029 508 c 0
 1029 620.667 988.667 717 908 797 c 0
 827.333 877 730.333 917 617 917 c 0
617 361 m 0
 661.667 361 698.333 375 727 403 c 0
 755.667 431 770 466.333 770 509 c 0
 770 552.333 755.667 588 727 616 c 0
 698.333 644 661.667 658 617 658 c 0
 572.333 658 535.667 644 507 616 c 0
 478.333 588 464 552.333 464 509 c 0
 464 466.333 478.333 431 507 403 c 0
 535.667 375 572.333 361 617 361 c 0
616 1040 m 0
 760 1040 883 988 985 884 c 0
 1086.33 780.667 1137 655.667 1137 509 c 0
 1137 363 1086.33 238 985 134 c 0
 883 30.6667 760 -21 616 -21 c 0
 473.333 -21 351.333 30.6667 250 134 c 0
 148 238 97 363 97 509 c 0
 97 655.667 148 780.667 250 884 c 0
 351.333 988 473.333 1040 616 1040 c 0
616 258 m 0
 542 258 481.333 282 434 330 c 0
 386.667 377.333 363 437.667 363 511 c 0
 363 583.667 386.667 644 434 692 c 0
 481.333 739.333 542 763 616 763 c 0
 690 763 750.667 739.333 798 692 c 0
 846 644 870 583.667 870 511 c 0
 870 437.667 846 377.333 798 330 c 1
 750.667 282 690 258 616 258 c 0
EndSplineSet
EndChar
StartChar: uni0E50
Encoding: 198 3664 200
OldEncoding: 3664
Width: 1250
Flags: W
HStem: -10 173<597 647> 751 173<613 625>
VStem: 150 172<437 481> 939 173<437 479>
Fore
625 163 m 0
 711.667 163 785.667 192 847 250 c 128
 908.333 308 939 377 939 457 c 0
 939 540.333 907.333 610.667 844 668 c 0
 783.333 723.333 710.333 751 625 751 c 0
 540.333 750.333 468.333 721 409 663 c 0
 351 605.667 322 537 322 457 c 0
 322 369.667 354 297.333 418 240 c 0
 475.333 188.667 544.333 163 625 163 c 0
622 -10 m 0
 502.667 -10 398.667 28.3333 310 105 c 0
 222.667 180.333 170.667 275.333 154 390 c 0
 151.333 412 150 434.667 150 458 c 0
 150 576 189.667 679 269 767 c 0
 345 850.333 439.333 900.667 552 918 c 0
 575.333 922 598.667 924 622 924 c 1
 685 921 l 1
 800.333 907 898 859.667 978 779 c 0
 1061.33 695 1105.67 595 1111 479 c 0
 1111.67 471.667 1112 464.667 1112 458 c 0
 1112 346.667 1073.33 247 996 159 c 0
 921.333 73.6667 828 20.3333 716 -1 c 0
 685.333 -7 654 -10 622 -10 c 0
EndSplineSet
EndChar
StartChar: uni0E51
Encoding: 199 3665 201
OldEncoding: 3665
Width: 1300
Flags: W
HStem: 203 159<572 573> 409 76<620 647> 603 84<645 655> 765 159<600 623>
VStem: 212 178<519 556> 709 144<462 548> 933 174<450 487>
Fore
930 529 m 0
 908 647 842.333 721 733 751 c 0
 699.667 760.333 663 765 623 765 c 0
 551 765 492 740 446 690 c 0
 428.667 671.333 415.667 651 407 629 c 0
 395.667 600.333 390 571 390 541 c 0
 390 513.667 394.667 488.333 404 465 c 0
 406 460.333 408.333 456 411 452 c 0
 440.333 395.333 491.333 365.667 564 363 c 0
 566.667 363 569.667 362.667 573 362 c 0
 586.333 362 599 364 611 368 c 0
 639.667 376.667 657.667 390.333 665 409 c 1
 667 421 l 1
 655.667 413 640 409 620 409 c 1
 586 412 l 1
 575.333 414.667 566 418 558 422 c 0
 521.333 440.667 499 473 491 519 c 1
 489 550 l 1
 491 599.333 513 637 555 663 c 0
 564.333 669 574.333 673.667 585 677 c 0
 605.667 683.667 628.333 687 653 687 c 0
 680.333 687 706 683 730 675 c 0
 770.667 662.333 802.667 632.333 826 585 c 0
 832 574.333 836.333 563.667 839 553 c 0
 849 521 853.667 490.667 853 462 c 0
 853 426 845.667 392 831 360 c 0
 799 289.333 745.667 242 671 218 c 0
 640.333 208 607.333 203 572 203 c 0
 479.333 203 397.667 232.333 327 291 c 0
 300.333 313.667 277.667 339 259 367 c 0
 227.667 414.333 212 476 212 552 c 0
 212 606 221 652.667 239 692 c 0
 240.333 694 241.333 695.667 242 697 c 0
 308.667 831.667 415 906.333 561 921 c 0
 577.667 923 594.667 924 612 924 c 2
 688 921 l 1
 854 904.333 972 835.667 1042 715 c 0
 1066.67 672.333 1084.33 624 1095 570 c 0
 1103 530.667 1107 491.667 1107 453 c 0
 1107 338.333 1073.67 240.333 1007 159 c 0
 932.333 66.3333 818.333 12 665 -4 c 0
 639.667 -6.66667 612.333 -8.66667 583 -10 c 1
 514 -8 l 1
 402 0.666667 306.667 30.6667 228 82 c 0
 212 92.6667 197.667 103.667 185 115 c 1
 271 254 l 1
 335.667 196.667 416.667 161.667 514 149 c 0
 534.667 146.333 554.667 145 574 145 c 2
 581 145 l 2
 668.333 146.333 746.333 172.333 815 223 c 0
 829.667 234.333 843.333 246.333 856 259 c 0
 902 307 928 370.667 934 450 c 1
 933 501 l 1
 932.333 511 931.333 520.333 930 529 c 0
585 545 m 0
 585 520.333 596 502.667 618 492 c 0
 626.667 487.333 636.333 485 647 485 c 0
 678.333 485 698 499.667 706 529 c 0
 708 535 709 541.333 709 548 c 0
 709 569.333 698 585.333 676 596 c 0
 666.667 600.667 656.333 603 645 603 c 0
 618.333 602.333 600 590.667 590 568 c 0
 586.667 560.667 585 553 585 545 c 0
EndSplineSet
EndChar
StartChar: uni0E52
Encoding: 200 3666 202
OldEncoding: 3666
Width: 1350
Flags: W
HStem: 0 173<588 1041> 343 110<649 661> 571 108<651 661>
VStem: 456 135<513 570> 715 111<504 518> 1041 173<173 536>
Fore
591 513 m 0
 591 489 602 471.333 624 460 c 0
 632.667 455.333 642.333 453 653 453 c 0
 684.333 453 704 467.667 712 497 c 0
 714 503 715 509.333 715 516 c 0
 715 537.333 704 553.333 682 564 c 0
 673.333 568.667 663 571 651 571 c 0
 624.333 570.333 606 558.667 596 536 c 0
 592.667 528.667 591 521 591 513 c 0
656 0 m 2
 582 0 524.667 1.33333 484 4 c 0
 444 6 391.667 35.3333 327 92 c 0
 317 100.667 307 110 297 120 c 0
 263.667 153.333 242 215.667 232 307 c 1
 208 611 l 1
 187.333 801 143 975.333 75 1134 c 1
 269 1134 l 1
 329 979.333 370.333 788 393 560 c 0
 405.667 426 413.667 350.667 417 334 c 0
 423.667 293.333 433 266 445 252 c 0
 481 210 517.667 185.333 555 178 c 0
 571 174.667 595 173 627 173 c 2
 657 173 l 1
 1041 174 l 1
 1041 506 l 2
 1041 570 1028.67 623.667 1004 667 c 0
 987.333 695 967.333 718.667 944 738 c 2
 936 744 l 1
 936 743.333 901.333 720 832 674 c 1
 718 744 l 1
 693.333 732.667 671.667 711 653 679 c 1
 680 679 l 1
 718 675 752 656.667 782 624 c 0
 790 616 796.667 607.333 802 598 c 0
 818 570 826 541 826 511 c 0
 826 469 810.667 430 780 394 c 0
 751.333 360 711 343 659 343 c 0
 635.667 343 612.333 347 589 355 c 0
 579 358.333 569.333 362.667 560 368 c 0
 490.667 405.333 456 472.667 456 570 c 2
 456 586 l 1
 458.667 664 482 732 526 790 c 0
 545.333 816 578.333 845 625 877 c 0
 659 899.667 690 915.333 718 924 c 1
 718 923.333 756 892.333 832 831 c 1
 936 924 l 1
 979.333 912.667 1023 887 1067 847 c 1
 1100 815 l 1
 1102 813 l 2
 1143.33 765 1171.67 720.333 1187 679 c 0
 1205 631 1214 573.333 1214 506 c 2
 1214 0 l 1
 656 0 l 2
EndSplineSet
EndChar
StartChar: uni0E53
Encoding: 201 3667 203
OldEncoding: 3667
Width: 1400
Flags: W
HStem: 0 21G<1053 1229> 753 171<391 412 965 985>
VStem: 89 173<538 561> 436 115<148 165> 644 130<216 256.483> 1129 170<489 517>
Fore
315 136 m 0
 321 114 335 100 357 94 c 1
 378 92 l 1
 382.667 92.6667 387 93.3333 391 94 c 0
 421 102.667 436 122 436 152 c 0
 436 158.667 435.333 165 434 171 c 0
 428.667 191 414.667 203.667 392 209 c 1
 370 210 l 1
 366 209.333 362 208.333 358 207 c 0
 332.667 199.667 318 184 314 160 c 1
 314 140 l 1
 314.667 138.667 315 137.333 315 136 c 0
191 108 m 0
 157 182 128.333 284.667 105 416 c 0
 95 476 89.6667 524.333 89 561 c 1
 93 622 l 1
 106.333 738 150 821.667 224 873 c 0
 272 907 331.667 924 403 924 c 1
 458 922 l 1
 544 912.667 614.333 878.333 669 819 c 0
 684.333 801.667 696.333 784.667 705 768 c 1
 739.667 828.667 788 872.667 850 900 c 0
 886.667 916 925.667 924 967 924 c 0
 1187 924 1297.67 779 1299 489 c 1
 1295 387 l 1
 1287 275.667 1265 146.667 1229 0 c 1
 1053 0 l 1
 1094.33 188 1118.33 327.667 1125 419 c 1
 1129 511 l 1
 1127 672.333 1078.33 753 983 753 c 0
 923 753 875.333 723 840 663 c 0
 823.333 634.333 812.333 603.333 807 570 c 0
 791 474.667 780.333 372.667 775 264 c 0
 774.333 245.333 774 229.333 774 216 c 1
 644 216 l 1
 644 292 632.333 391.667 609 515 c 0
 605 539 601 558.333 597 573 c 0
 578.333 645 544.667 696.667 496 728 c 0
 470.667 744.667 442.667 753 412 753 c 0
 323.333 753 274 701 264 597 c 1
 262 540 l 1
 262 463.333 273.667 392 297 326 c 2
 301 314 l 1
 326.333 326 353.667 332 383 332 c 0
 422.333 332 455.667 321.333 483 300 c 0
 528.333 264.667 551 219 551 163 c 0
 551 133 543.667 102 529 70 c 0
 507 22 462 -5 394 -11 c 1
 348 -11 l 2
 345.333 -10.3333 343 -10 341 -10 c 0
 277 -2.66667 229.333 32 198 94 c 0
 195.333 98.6667 193 103.333 191 108 c 0
EndSplineSet
EndChar
StartChar: uni0E54
Encoding: 202 3668 204
OldEncoding: 3668
Width: 1550
Flags: W
HStem: -6 164<574 608> 76 352<1028 1038> 580 112<1036 1040> 762 162<638 944>
VStem: 127 176<441 491> 813 148<459 502> 1112 115<489 506>
Fore
1462 1262 m 1xbe
 1447.33 1096.67 1393 972 1299 888 c 0
 1205 804 1076.33 762 913 762 c 2
 653 762 l 2
 419.667 762 303 661.667 303 461 c 0
 303 373 330.5 300.5 385.5 243.5 c 128
 440.5 186.5 508.667 158 590 158 c 0xbe
 651.333 158 768.667 182.333 942 231 c 1
 906.667 257 876.333 291.667 851 335 c 0
 825.667 378.333 813 419.667 813 459 c 0
 813 533 834 590.333 876 631 c 0
 918.667 671.667 972 692 1036 692 c 0
 1088.67 692 1133.67 673.333 1171 636 c 0
 1208.33 599.333 1227 555.333 1227 504 c 0
 1227 454.667 1210 411.333 1176 374 c 0
 1141.33 337.333 1095.33 317 1038 313 c 1
 1069.33 281.667 1103.67 262 1141 254 c 0
 1246.33 229.333 1326.67 193 1382 145 c 1
 1253 -2 l 1
 1227 22 1198 41 1166 55 c 0
 1134.67 69 1089.33 76 1030 76 c 0x7e
 987.333 76 924.333 64 841 40 c 0
 735 9.33333 648 -6 580 -6 c 0
 454 -6 347 40 259 132 c 128
 171 224 127 336.333 127 469 c 0
 127 617.667 177 730.667 277 808 c 128
 377 885.333 508.667 924 672 924 c 2
 918 924 l 2
 1130 924 1250 1036.67 1278 1262 c 1
 1462 1262 l 1xbe
1036 428 m 0x7e
 1056.67 428 1074.67 435.333 1090 450 c 0
 1104.67 464 1112 481.333 1112 502 c 0
 1112 524 1104.67 542.667 1090 558 c 0
 1075.33 572.667 1057.33 580 1036 580 c 0
 1015.33 580 997.667 572.5 983 557.5 c 128
 968.333 542.5 961 524 961 502 c 0
 961 481.333 968.333 464 983 450 c 0
 997.667 435.333 1015.33 428 1036 428 c 0x7e
EndSplineSet
EndChar
StartChar: uni0E55
Encoding: 203 3669 205
OldEncoding: 3669
Width: 1550
Flags: W
HStem: -6 164<574 608> 76 352<1028 1038> 580 112<1036 1040> 762 160<782 913> 1073 113<793 800>
VStem: 127 176<441 491> 602 115<985 1003> 813 148<459 502> 868 115<985 1003> 1112 115<489 506>
Fore
1462 1262 m 1xbec0
 1447.33 1096.67 1393 972 1299 888 c 0
 1205 804 1076.33 762 913 762 c 2
 653 762 l 2
 419.667 762 303 661.667 303 461 c 0
 303 373 330.5 300.5 385.5 243.5 c 128
 440.5 186.5 508.667 158 590 158 c 0xbec0
 651.333 158 768.667 182.333 942 231 c 1
 906.667 257 876.333 291.667 851 335 c 0
 825.667 378.333 813 419.667 813 459 c 0
 813 533 834 590.333 876 631 c 0
 918.667 671.667 972 692 1036 692 c 0
 1088.67 692 1133.67 673.333 1171 636 c 0
 1208.33 599.333 1227 555.333 1227 504 c 0
 1227 454.667 1210 411.333 1176 374 c 0
 1141.33 337.333 1095.33 317 1038 313 c 1
 1069.33 281.667 1103 262 1139 254 c 0
 1244.33 229.333 1324.67 193 1380 145 c 1
 1253 -2 l 1
 1227 22 1198 41 1166 55 c 0
 1134.67 69 1089.33 76 1030 76 c 0x7f40
 987.333 76 924.333 64 841 40 c 0
 735 9.33333 648 -6 580 -6 c 0
 454 -6 347 40 259 132 c 128
 171 224 127 336.333 127 469 c 0
 127 602.333 170 708.667 256 788 c 0
 341.333 867.333 462 912 618 922 c 1
 607.333 948 602 973 602 997 c 0
 602 1049 620.667 1093.33 658 1130 c 0
 695.333 1167.33 740.333 1186 793 1186 c 0
 845 1186 889.667 1167.33 927 1130 c 0
 964.333 1093.33 983 1049 983 997 c 0
 983 970.333 978.333 946.667 969 926 c 1
 1149.67 944.667 1252.67 1056.67 1278 1262 c 1
 1462 1262 l 1xbec0
793 922 m 0
 813 922 830.667 929.333 846 944 c 0
 860.667 958 868 975 868 995 c 0
 868 1017 860.667 1035.33 846 1050 c 0
 831.333 1065.33 813.667 1073 793 1073 c 0
 771.667 1073 753.667 1065.5 739 1050.5 c 128
 724.333 1035.5 717 1017 717 995 c 0
 717 975 724.667 958 740 944 c 0
 754.667 929.333 772.333 922 793 922 c 0
1036 428 m 0x7ec0
 1056.67 428 1074.67 435.333 1090 450 c 0
 1104.67 464 1112 481.333 1112 502 c 0
 1112 524 1104.67 542.667 1090 558 c 0
 1075.33 572.667 1057.33 580 1036 580 c 0
 1015.33 580 997.667 572.5 983 557.5 c 128x7ec0
 968.333 542.5 961 524 961 502 c 0x7f40
 961 481.333 968.333 464 983 450 c 0
 997.667 435.333 1015.33 428 1036 428 c 0x7ec0
EndSplineSet
EndChar
StartChar: uni0E56
Encoding: 204 3670 206
OldEncoding: 3670
Width: 1300
Flags: W
HStem: -16 155<719 743> 481 113<549 557> 760 168<653 687>
VStem: 328 149<338 403> 629 112<399 417> 1020 176<436 465>
Fore
422 885 m 1
 498 913.667 575 928 653 928 c 0
 813 928 943.333 882.667 1044 792 c 0
 1145.33 702 1196 583.333 1196 436 c 0
 1196 300.667 1150.33 191.333 1059 108 c 0
 967.667 25.3333 854.333 -16 719 -16 c 0
 607.667 -16 514.667 19.6667 440 91 c 0
 365.333 162.333 328 244.667 328 338 c 0
 328 412.667 349.333 474 392 522 c 0
 435.333 570 488.333 594 551 594 c 0
 603 594 647.667 575.333 685 538 c 0
 722.333 501.333 741 457.333 741 406 c 0
 741 356 724 312.667 690 276 c 0
 656.667 239.333 611.667 219 555 215 c 1
 566.333 195 588.667 177.333 622 162 c 0
 654.667 146.667 687 139 719 139 c 0
 806.333 139 878.333 166.5 935 221.5 c 128
 991.667 276.5 1020 348 1020 436 c 0
 1020 534.667 986.333 613.333 919 672 c 0
 851.667 730.667 763 760 653 760 c 0
 540.333 760 438.667 740.667 348 702 c 1
 247.333 944.667 135.333 1131.33 12 1262 c 1
 260 1262 l 1
 337.333 1140.67 391.333 1015 422 885 c 1
553 330 m 0
 573.667 330 591.333 337.333 606 352 c 0
 621.333 366 629 383 629 403 c 0
 629 425 621.5 443.5 606.5 458.5 c 128
 591.5 473.5 573.667 481 553 481 c 0
 532.333 481 514.667 473.333 500 458 c 1
 484.667 443.333 477 425 477 403 c 0
 477 383 484.667 366 500 352 c 0
 514.667 337.333 532.333 330 553 330 c 0
EndSplineSet
EndChar
StartChar: uni0E57
Encoding: 205 3671 207
OldEncoding: 3671
Width: 1540
Flags: W
HStem: -16 112<393 406> 248 114<382 406> 760 164<406 416 799 801>
VStem: 127 176<436 481> 469 115<170 180> 514 174<467 519.926> 899 178<436 481> 1229 188<319 1130>
Fore
1417 334 m 2xfb
 1417 111.333 1297 -6.93889e-18 1057 0 c 2
 791 0 l 1
 791 10 l 1
 817.667 52.6667 842.333 117 865 203 c 0
 887.667 289 899 366.667 899 436 c 0
 899 550 891 632.5 875 683.5 c 128
 859 734.5 833.667 760 799 760 c 0
 725 760 688 662.333 688 467 c 1
 514 467 l 1xf7
 514 662.333 478 760 406 760 c 0
 337.333 760 303 652 303 436 c 0
 303 388.667 305 359.333 309 348 c 1
 329 357.333 357.667 362 395 362 c 0
 449 362 494 343.333 530 306 c 0
 566 268 584 223.333 584 172 c 0
 584 120 565.333 75.6667 528 39 c 0
 490 2.33333 445 -16 393 -16 c 0
 309.667 -16 244.667 23 198 101 c 0
 150.667 179 127 290.667 127 436 c 0
 127 761.333 220 924 406 924 c 0
 498 924 563.333 874.667 602 776 c 1
 642.667 874.667 708.333 924 799 924 c 0
 984.333 924 1077 761.333 1077 436 c 0
 1077 349.333 1065.33 263.333 1042 178 c 1
 1057 178 l 2
 1171.67 178 1229 231.333 1229 338 c 2
 1229 1130 l 1
 1417 1130 l 1
 1417 334 l 2xfb
393 96 m 0
 423 96 445 109 459 135 c 0
 465.667 147 469 160 469 174 c 0xfb
 469 202.667 456.333 224 431 238 c 0
 419 244.667 406.333 248 393 248 c 0
 363.667 248 341.667 235.667 327 211 c 0
 320.333 199.667 317 187.333 317 174 c 0
 317 142.667 330.333 119.667 357 105 c 0
 368.333 99 380.333 96 393 96 c 0
EndSplineSet
EndChar
StartChar: uni0E58
Encoding: 206 3672 208
OldEncoding: 3672
Width: 1580
Flags: W
HStem: -12 166<1155 1168> 283 166<713 743> 309 115<1198 1216>
VStem: 127 176<433 485> 532 168<141 181> 1014 114<484.628 513> 1280 178<381 498>
Fore
1462 1262 m 1xde
 1447.33 1099.33 1393 974.667 1299 888 c 0
 1230.33 824.667 1123.67 787.333 979 776 c 0
 953.667 774 872.667 771.667 736 769 c 0
 606 766.333 511.667 752.667 453 728 c 0
 391.667 701.333 349.333 658.667 326 600 c 1
 312 555 l 1
 306 527 303 495.667 303 461 c 0
 303 382.333 325.333 315.333 370 260 c 0
 414.667 205.333 468.667 175.333 532 170 c 1
 532 251.333 548 318.167 580 370.5 c 128
 612 422.833 656.333 449 713 449 c 0xde
 747.667 449 783.333 439.333 820 420 c 0
 856 401.333 903.667 357 963 287 c 0
 1013.67 227.667 1052 190.667 1078 176 c 0
 1104.67 161.333 1130.33 154 1155 154 c 0
 1193.67 154 1225.33 169.333 1250 200 c 0
 1274 230 1286.67 271.333 1288 324 c 1
 1268.67 314 1240 309 1202 309 c 0xbe
 1148.67 309 1104 328 1068 366 c 0
 1032 403.333 1014 448 1014 500 c 0
 1014 551.333 1032.67 595.333 1070 632 c 0
 1107.33 669.333 1152 688 1204 688 c 0
 1278.67 688 1339.67 659.667 1387 603 c 0
 1434.33 546.333 1458 472.333 1458 381 c 0
 1458 257.667 1430 161.333 1374 92 c 0
 1318 22.6667 1245 -12 1155 -12 c 0
 1110.33 -12 1064.33 1.33333 1017 28 c 0
 969.667 54 910.667 110 840 196 c 0
 792 254 759.667 283 743 283 c 0
 714.333 283 700 235.667 700 141 c 2
 700 0 l 1
 575 0 l 2
 446.333 0 339.333 44.6667 254 134 c 0
 169.333 223.333 127 335 127 469 c 0
 127 615 177 728 277 808 c 0
 353.667 869.333 465.667 905.667 613 917 c 0
 629 918.333 705.333 921 842 925 c 0
 968.667 929 1061 944.333 1119 971 c 0
 1215.67 1015 1268.33 1102 1277 1232 c 0
 1277.67 1242 1278 1252 1278 1262 c 1
 1462 1262 l 1xde
1204 424 m 0xbe
 1234 424 1256 436.667 1270 462 c 0
 1276.67 472.667 1280 484.667 1280 498 c 0
 1280 529.333 1267 552 1241 566 c 1
 1219 574 l 1
 1204 575 l 2
 1173.33 575 1151 561.667 1137 535 c 1
 1129 513 l 1
 1128.33 508.333 1128 503.333 1128 498 c 0
 1128 469.333 1140.67 448 1166 434 c 0
 1177.33 427.333 1190 424 1204 424 c 0xbe
EndSplineSet
EndChar
StartChar: uni0E59
Encoding: 207 3673 209
OldEncoding: 3673
Width: 1500
Flags: W
HStem: -16 112<393 400> 248 114<382 400> 555 166<1102 1120> 760 164<467 480 874 880>
VStem: 127 176<436 481> 127 190<174 436> 469 115<170 176>
DStem: 621 546 768 604 825 0 999 0
Fore
1399 1130 m 1xfa
 1388.33 912 1358.67 761.667 1310 679 c 0
 1260.67 596.333 1197.33 555 1120 555 c 0
 1088 555 1057.33 564 1028 582 c 0
 999.333 599.333 967.667 637.333 933 696 c 0
 908.333 738.667 888.667 760 874 760 c 0
 840 760 804.667 708 768 604 c 1
 999 0 l 1
 825 0 l 1
 621 546 l 1
 594.333 616 569.333 669.333 546 706 c 0
 523.333 742 497 760 467 760 c 0
 414.333 760 373.833 732 345.5 676 c 128
 317.167 620 303 540 303 436 c 0
 303 395.333 305 366 309 348 c 1
 329 357.333 357.667 362 395 362 c 0
 449 362 494 343.333 530 306 c 0
 566 268 584 223.333 584 172 c 0
 584 120 565.333 75.6667 528 39 c 0
 490 2.33333 445 -16 393 -16 c 0
 309.667 -16 244.667 23 198 101 c 0
 150.667 179 127 290.667 127 436 c 0
 127 593.333 156 714 214 798 c 0
 272.667 882 357 924 467 924 c 0
 570.333 924 648.667 874.667 702 776 c 1
 744.667 874.667 802 924 874 924 c 0
 898.667 924 922.833 916 946.5 900 c 128
 970.167 884 999 848.667 1033 794 c 0
 1063.67 745.333 1087.33 721 1104 721 c 0
 1163.33 721 1200 857.333 1214 1130 c 1
 1399 1130 l 1xfa
393 96 m 0
 413.667 96 431.333 103.333 446 118 c 0
 461.333 133.333 469 152 469 174 c 0
 469 194 461.333 211.333 446 226 c 0
 431.333 240.667 413.667 248 393 248 c 128
 372.333 248 354.667 240.667 340 226 c 0
 324.667 211.333 317 194 317 174 c 0xf6
 317 152 324.5 133.5 339.5 118.5 c 128
 354.5 103.5 372.333 96 393 96 c 0
EndSplineSet
EndChar
StartChar: uni0E5A
Encoding: 208 3674 210
OldEncoding: 3674
Width: 1400
Flags: W
HStem: 0 21G<845 1025 1065 1253> 646 212<325 487>
VStem: 845 180<0 1120> 1065 188<0 1120>
Fore
1025 1120 m 1
 1025 0 l 1
 845 0 l 1
 845 777 l 1
 789 727.667 737 694.667 689 678 c 1
 631 662 l 1
 584.333 651.333 536.333 646 487 646 c 0
 392.333 646 314.667 663.333 254 698 c 1
 207.333 721.333 171.667 758 147 808 c 0
 133.667 834 126.333 859.667 125 885 c 0
 121.667 950.333 143.667 1005 191 1049 c 0
 223 1079 261.333 1097 306 1103 c 0
 366 1111.67 418.333 1096.67 463 1058 c 0
 495 1030 514.667 995 522 953 c 0
 531.333 895 511.333 845 462 803 c 1
 483.333 793.667 520.333 795.667 573 809 c 0
 693.667 839.667 775.333 906 818 1008 c 0
 832 1042 841 1079.33 845 1120 c 1
 1025 1120 l 1
317 994 m 0
 289 989.333 270 975 260 951 c 1
 255 929 l 1
 256 909 l 1
 261.333 886.333 276 870.667 300 862 c 0
 308 859.333 316.333 858 325 858 c 0
 327.667 858 330.667 858.333 334 859 c 0
 366 863.667 387.333 878.667 398 904 c 0
 401.333 912 403 920.333 403 929 c 0
 403 931.667 402.667 934.333 402 937 c 0
 398.667 960.333 385 977.667 361 989 c 0
 351 993 341 995 331 995 c 0
 326.333 995 321.667 994.667 317 994 c 0
1253 0 m 1
 1065 0 l 1
 1065 1120 l 1
 1253 1120 l 1
 1253 0 l 1
EndSplineSet
EndChar
StartChar: uni0E5B
Encoding: 209 3675 211
OldEncoding: 3675
Width: 2370
Flags: W
HStem: -10 158<593 608> 218 108<1971 2358> 340 167<1760 1776> 351 264<1445 1452> 812 174<551 597>
VStem: 133 154<483 511>
Fore
1776 340 m 0xec
 1764.67 340 1750.67 318.333 1734 275 c 0
 1708 209 1689 166.333 1677 147 c 0
 1653.67 111.667 1628 94 1600 94 c 0
 1569.33 94 1542.67 126.667 1520 192 c 1
 1483 312 l 1
 1472.33 338 1461.33 351 1450 351 c 0xdc
 1438.67 351 1426 327.667 1412 281 c 0
 1390.67 211 1375 166 1365 146 c 0
 1349 115.333 1330.67 97 1310 91 c 1
 1292 88 l 1
 1241.33 88 1204.67 127.333 1182 206 c 0
 1179.33 216.667 1170.33 260.667 1155 338 c 0
 1151.67 353.333 1148.67 366 1146 376 c 1
 1136.67 374.667 1125 356.667 1111 322 c 0
 1082.33 254.667 1057 205.667 1035 175 c 0
 1025 161.667 1014.67 149.333 1004 138 c 1
 940 54 838.333 5.66667 699 -7 c 0
 669.667 -9 638 -10 604 -10 c 0
 482.667 -8.66667 374.667 38 280 130 c 0
 270 140 270 140 260 150 c 0
 191.333 222.667 151 304.667 139 396 c 0
 135 422.667 133 451.667 133 483 c 0
 133 603 160 704.333 214 787 c 0
 228 808.333 243.333 827.333 260 844 c 0
 348 930 445 977 551 985 c 0
 560.333 985.667 569.333 986 578 986 c 0
 707.333 986 805 949 871 875 c 1
 892 848 l 1
 938.667 780.667 961.667 701.667 961 611 c 0
 960.333 573.667 955.333 539.667 946 509 c 0
 945.333 507.667 944.667 506 944 504 c 0
 915.333 420.667 861.333 358 782 316 c 1
 730 287.333 673.333 272.667 612 272 c 0
 539.333 270.667 480 296 434 348 c 0
 403.333 382.667 386 421.333 382 464 c 0
 374 544 392.667 611.333 438 666 c 0
 450.667 681.333 464.667 694.667 480 706 c 0
 515.333 731.333 553.667 740 595 732 c 0
 612.333 728.667 629.333 722.667 646 714 c 0
 675.333 698 695.333 676.333 706 649 c 1
 708 642 l 2
 715.333 618.667 716.667 594.333 712 569 c 1
 703 540 l 1
 703 538.667 702.667 537.667 702 537 c 0
 688 507.667 663.333 486.333 628 473 c 0
 601.333 463 577 460.667 555 466 c 2
 540 471 l 1
 539.333 463.667 549.333 455 570 445 c 0
 608.667 426.333 647.333 423.333 686 436 c 0
 724.667 448.667 754.333 477.667 775 523 c 0
 787.667 549.667 794.667 579.333 796 612 c 0
 799.333 689.333 767.333 746 700 782 c 0
 662.667 802 620 812 572 812 c 0
 513.333 812 458 793 406 755 c 0
 394 747 384 738.667 376 730 c 0
 316.667 667.333 287 585 287 483 c 0
 287 402.333 306.667 335.333 346 282 c 0
 353.333 272.667 361.333 263.333 370 254 c 0
 402 218.667 446 190.333 502 169 c 0
 540 154.333 575.333 147.333 608 148 c 0
 752.667 152.667 858.333 197.333 925 282 c 1
 966 340 l 2xec
 986 368.667 1010.33 418.333 1039 489 c 0
 1062.33 546.333 1083.33 582.667 1102 598 c 0
 1116 609.333 1132.33 615 1151 615 c 0
 1201.67 615 1235 579.333 1251 508 c 1
 1272 383 l 1
 1280 364 l 1
 1283.33 359.333 1287.33 357 1292 357 c 0
 1310.67 357 1324.67 376.667 1334 416 c 1
 1355 518 l 1
 1371.67 578.667 1402 611 1446 615 c 0
 1452 615 1452 615 1457 615 c 0xdc
 1496.33 615 1525.33 584.667 1544 524 c 1
 1578 390 l 1
 1588 362 1600.67 348 1616 348 c 0
 1630.67 348 1644.33 362.667 1657 392 c 0
 1674.33 432.667 1685 456.333 1689 463 c 0
 1707.67 492.333 1731.33 507 1760 507 c 0
 1783.33 507 1805.33 490.333 1826 457 c 2
 1867 389 l 1
 1896.33 347 1933.67 326 1979 326 c 2
 2358 326 l 1
 2358 218 l 1
 1973 218 l 2
 1908.33 218 1852 248.667 1804 310 c 0
 1788 329.333 1778.67 339.333 1776 340 c 0xec
632 605 m 0
 632 628.333 621.333 644.667 600 654 c 1
 580 658 l 2
 579 658 579 658 578 658 c 0
 554.667 658 538 647.667 528 627 c 0
 524.667 619 523.333 610.667 524 602 c 0
 524.667 578.667 535.667 562.667 557 554 c 0
 564.333 551.333 572 550 580 550 c 0
 604 550 620 561 628 583 c 0
 630.667 589.667 632 597 632 605 c 0
EndSplineSet
EndChar
StartChar: afii61664
Encoding: 210 8204 212
OldEncoding: 8204
Width: 0
Flags: W
VStem: -36 72<-275 1289>
Fore
36 1289 m 1
 36 -275 l 1
 -36 -275 l 1
 -36 1289 l 1
 36 1289 l 1
EndSplineSet
EndChar
StartChar: afii301
Encoding: 211 8205 213
OldEncoding: 8205
Width: 0
Flags: W
VStem: -36 72<-275 1114>
DStem: -219 1364 -170 1413 -48 1196 0 1242 -48 1196 -36 1114 -219 1027 -170 978 36 1114 48 1196 170 978 219 1027 170 1413 219 1364 0 1242 48 1196
Fore
36 -275 m 1
 -36 -275 l 1
 -36 1114 l 1
 -170 978 l 1
 -219 1027 l 1
 -48 1196 l 1
 -219 1364 l 1
 -170 1413 l 1
 0 1242 l 1
 170 1413 l 1
 219 1364 l 1
 48 1196 l 1
 219 1027 l 1
 170 978 l 1
 36 1114 l 1
 36 -275 l 1
EndSplineSet
EndChar
StartChar: afii299
Encoding: 212 8206 214
OldEncoding: 8206
Width: 0
Flags: W
HStem: 1163 71<-36 301>
VStem: -36 71<-275 1163>
DStem: 164 1364 213 1413 301 1234 430 1198 301 1163 430 1198 164 1033 213 984
Fore
430 1198 m 1
 213 984 l 1
 164 1033 l 1
 301 1163 l 1
 35 1163 l 1
 35 -275 l 1
 -36 -275 l 1
 -36 1234 l 1
 301 1234 l 1
 164 1364 l 1
 213 1413 l 1
 430 1198 l 1
EndSplineSet
EndChar
StartChar: afii300
Encoding: 213 8207 215
OldEncoding: 8207
Width: 0
Flags: W
HStem: 1163 71<-302 -36>
VStem: -36 71<-275 1234>
DStem: -431 1198 -302 1163 -214 984 -165 1033 -214 1413 -165 1364 -431 1198 -302 1234
Fore
35 -275 m 1
 -36 -275 l 1
 -36 1163 l 1
 -302 1163 l 1
 -165 1033 l 1
 -214 984 l 1
 -431 1198 l 1
 -214 1413 l 1
 -165 1364 l 1
 -302 1234 l 1
 35 1234 l 1
 35 -275 l 1
EndSplineSet
EndChar
StartChar: uni2010
Encoding: 214 8208 216
OldEncoding: 8208
Width: 973
Flags: W
HStem: 580 165<190 815>
Fore
190 745 m 1
 815 745 l 1
 815 580 l 1
 190 580 l 1
 190 745 l 1
EndSplineSet
EndChar
StartChar: endash
Encoding: 215 8211 217
OldEncoding: 8211
Width: 1125
Flags: W
HStem: 572 160<-4 1122>
Fore
1122 572 m 1
 -4 572 l 1
 -4 732 l 1
 1122 732 l 1
 1122 572 l 1
EndSplineSet
EndChar
StartChar: emdash
Encoding: 216 8212 218
OldEncoding: 8212
Width: 1886
Flags: W
HStem: 572 160<-4 1866>
Fore
1866 572 m 1
 -4 572 l 1
 -4 732 l 1
 1866 732 l 1
 1866 572 l 1
EndSplineSet
EndChar
StartChar: afii00208
Encoding: 217 8213 219
OldEncoding: 8213
Width: 1862
Flags: W
HStem: 572 160<110 1752>
Fore
1752 572 m 1
 110 572 l 1
 110 732 l 1
 1752 732 l 1
 1752 572 l 1
EndSplineSet
EndChar
StartChar: underscoredbl
Encoding: 218 8215 220
OldEncoding: 8215
Width: 1118
Flags: W
HStem: -423 130<-16 1134> -212 130<-16 1134>
Fore
1134 -212 m 1
 -16 -212 l 1
 -16 -82 l 1
 1134 -82 l 1
 1134 -212 l 1
1134 -423 m 1
 -16 -423 l 1
 -16 -293 l 1
 1134 -293 l 1
 1134 -423 l 1
EndSplineSet
EndChar
StartChar: quoteleft
Encoding: 219 8216 221
OldEncoding: 8216
Width: 450
Flags: W
Fore
335 997 m 1
 197 997 l 1
 -64 1556 l 1
 178 1556 l 1
 335 997 l 1
EndSplineSet
EndChar
StartChar: quoteright
Encoding: 220 8217 222
OldEncoding: 8217
Width: 580
Flags: W
Fore
496 1556 m 1
 235 997 l 1
 97 997 l 1
 254 1556 l 1
 496 1556 l 1
EndSplineSet
EndChar
StartChar: quotesinglbase
Encoding: 221 8218 223
OldEncoding: 8218
Width: 432
Flags: W
Fore
386 283 m 1
 125 -276 l 1
 -13 -276 l 1
 144 283 l 1
 386 283 l 1
EndSplineSet
EndChar
StartChar: quotereversed
Encoding: 222 8219 224
OldEncoding: 8219
Width: 432
Flags: W
Fore
335 1556 m 1
 178 997 l 1
 -64 997 l 1
 197 1556 l 1
 335 1556 l 1
EndSplineSet
EndChar
StartChar: quotedblleft
Encoding: 223 8220 225
OldEncoding: 8220
Width: 850
Flags: W
Fore
725 997 m 1
 591 997 l 1
 330 1556 l 1
 568 1556 l 1
 725 997 l 1
331 997 m 1
 197 997 l 1
 -64 1556 l 1
 174 1556 l 1
 331 997 l 1
EndSplineSet
EndChar
StartChar: quotedblright
Encoding: 224 8221 226
OldEncoding: 8221
Width: 1000
Flags: W
Fore
896 1556 m 1
 635 997 l 1
 501 997 l 1
 658 1556 l 1
 896 1556 l 1
502 1556 m 1
 241 997 l 1
 107 997 l 1
 264 1556 l 1
 502 1556 l 1
EndSplineSet
EndChar
StartChar: quotedblbase
Encoding: 225 8222 227
OldEncoding: 8222
Width: 814
Flags: W
Fore
781 283 m 1
 520 -276 l 1
 386 -276 l 1
 543 283 l 1
 781 283 l 1
387 283 m 1
 126 -276 l 1
 -8 -276 l 1
 149 283 l 1
 387 283 l 1
EndSplineSet
EndChar
StartChar: dagger
Encoding: 226 8224 228
OldEncoding: 8224
Width: 1118
Flags: W
HStem: 1034 124<135 498 620 983>
VStem: 493 127<135 1039 1158 1556>
DStem: 493 1556 625 1556 498 1158 620 1158 498 1039 620 1039 493 135 625 135
Fore
983 1034 m 1
 620 1039 l 1
 625 135 l 1
 493 135 l 1
 498 1039 l 1
 135 1034 l 1
 135 1163 l 1
 498 1158 l 1
 493 1556 l 1
 625 1556 l 1
 620 1158 l 1
 983 1163 l 1
 983 1034 l 1
EndSplineSet
EndChar
StartChar: daggerdbl
Encoding: 227 8225 229
OldEncoding: 8225
Width: 1118
Flags: W
HStem: 507 124<135 498 620 983> 1044 124<135 498 620 983>
VStem: 493 127<124 512 1168 1556>
DStem: 493 1556 625 1556 498 1168 620 1168 498 512 620 512 493 124 625 124
Fore
983 507 m 1
 620 512 l 1
 625 124 l 1
 493 124 l 1
 498 512 l 1
 135 507 l 1
 135 636 l 1
 498 631 l 1
 498 1049 l 1
 135 1044 l 1
 135 1173 l 1
 498 1168 l 1
 493 1556 l 1
 625 1556 l 1
 620 1168 l 1
 983 1173 l 1
 983 1044 l 1
 620 1049 l 1
 620 631 l 1
 983 636 l 1
 983 507 l 1
EndSplineSet
EndChar
StartChar: bullet
Encoding: 228 8226 230
OldEncoding: 8226
Width: 950
Flags: W
Fore
817 662 m 0
 817 565 782 483 714 414 c 128
 644 345 562 311 465 311 c 0
 368 311 286 345 217 414 c 128
 148 483 114 565 114 662 c 128
 114 759 148 841 217 910 c 128
 286 979 368 1013 465 1013 c 0
 562 1013 645 979 714 910 c 0
 783 841 817 759 817 662 c 0
EndSplineSet
EndChar
StartChar: ellipsis
Encoding: 229 8230 231
OldEncoding: 8230
Width: 1650
Flags: W
HStem: 0 223<177 381 735 939 1293 1497>
VStem: 177 204<0 223> 735 204<0 223> 1293 204<0 223>
CounterMasks: 1 00
Fore
1497 0 m 1
 1293 0 l 1
 1293 223 l 1
 1497 223 l 1
 1497 0 l 1
939 0 m 1
 735 0 l 1
 735 223 l 1
 939 223 l 1
 939 0 l 1
381 0 m 1
 177 0 l 1
 177 223 l 1
 381 223 l 1
 381 0 l 1
EndSplineSet
EndChar
StartChar: perthousand
Encoding: 230 8240 232
OldEncoding: 8240
Width: 2848
Flags: W
HStem: -29 133<1545 1559 2389 2407> 634 133<455 471> 721 133<1545 1559 2389 2407> 1384 133<455 471>
VStem: 102 178<1075 1108> 629 178<1076 1108> 1192 178<412 452> 1719 178<413 452> 2036 178<412 452> 2563 178<413 452>
DStem: 1308 1489 1473 1489 528 0 693 0
Fore
807 1076 m 0xdfc0
 807 926 777 815 716 742 c 128
 656 670 569 634 455 634 c 0
 339 634 251 671 192 744 c 128
 132 817 102 928 102 1075 c 0
 102 1224 132 1335 193 1408 c 128
 254 1481 341 1517 455 1517 c 0
 571 1517 659 1480 718 1407 c 128
 777 1334 807 1223 807 1076 c 0xdfc0
1473 1489 m 1
 693 0 l 1
 528 0 l 1
 1308 1489 l 1
 1473 1489 l 1
1897 413 m 0
 1897 263 1867 152 1806 80 c 128
 1746 7 1659 -29 1545 -29 c 0
 1429 -29 1341 8 1282 81 c 128
 1222 154 1192 265 1192 412 c 0
 1192 561 1222 672 1283 745 c 128
 1344 818 1431 854 1545 854 c 0xbfc0
 1661 854 1749 817 1808 744 c 128
 1867 671 1897 560 1897 413 c 0
629 1076 m 0
 629 1177 617 1254 594 1306 c 128
 570 1358 524 1384 455 1384 c 128
 386 1384 340 1358 316 1305 c 128
 292 1252 280 1176 280 1075 c 0
 280 975 291 899 314 846 c 128
 337 793 384 767 455 767 c 0xdfc0
 524 767 570 793 594 846 c 128
 617 899 629 975 629 1076 c 0
1719 413 m 0
 1719 514 1707 591 1684 643 c 128
 1660 695 1614 721 1545 721 c 128xbfc0
 1476 721 1430 695 1406 642 c 128
 1382 589 1370 513 1370 412 c 0
 1370 312 1381 236 1404 183 c 128
 1427 130 1474 104 1545 104 c 0
 1614 104 1660 130 1684 183 c 128
 1707 236 1719 312 1719 413 c 0
2741 413 m 0
 2741 263 2711 152 2650 80 c 128
 2590 7 2503 -29 2389 -29 c 0
 2273 -29 2185 8 2126 81 c 128
 2066 154 2036 265 2036 412 c 0
 2036 561 2066 672 2127 745 c 128
 2188 818 2275 854 2389 854 c 0
 2505 854 2593 817 2652 744 c 128
 2711 671 2741 560 2741 413 c 0
2563 413 m 0
 2563 514 2551 591 2528 643 c 128
 2504 695 2458 721 2389 721 c 128
 2320 721 2274 695 2250 642 c 128
 2226 589 2214 513 2214 412 c 0
 2214 312 2225 236 2248 183 c 128
 2271 130 2318 104 2389 104 c 0
 2458 104 2504 130 2528 183 c 128
 2551 236 2563 312 2563 413 c 0
EndSplineSet
EndChar
StartChar: minute
Encoding: 231 8242 233
OldEncoding: 8242
Width: 602
Flags: W
Fore
571 1489 m 1
 273 870 l 1
 137 870 l 1
 331 1489 l 1
 571 1489 l 1
EndSplineSet
EndChar
StartChar: second
Encoding: 232 8243 234
OldEncoding: 8243
Width: 972
Flags: W
Fore
567 1489 m 1
 269 870 l 1
 137 870 l 1
 331 1489 l 1
 567 1489 l 1
961 1489 m 1
 663 870 l 1
 531 870 l 1
 725 1489 l 1
 961 1489 l 1
EndSplineSet
EndChar
StartChar: guilsinglleft
Encoding: 233 8249 235
OldEncoding: 8249
Width: 784
Flags: W
DStem: 123 608 302 652 633 172 633 371 633 1132 633 933 123 697 302 652
Fore
633 172 m 1
 123 608 l 1
 123 697 l 1
 633 1132 l 1
 633 933 l 1
 302 652 l 1
 633 371 l 1
 633 172 l 1
EndSplineSet
EndChar
StartChar: guilsinglright
Encoding: 234 8250 236
OldEncoding: 8250
Width: 784
Flags: W
DStem: 151 933 151 1132 482 652 661 697 482 652 661 608 151 371 151 172
Fore
661 608 m 1
 151 172 l 1
 151 371 l 1
 482 652 l 1
 151 933 l 1
 151 1132 l 1
 661 697 l 1
 661 608 l 1
EndSplineSet
EndChar
StartChar: uni203E
Encoding: 236 8254 238
OldEncoding: 8254
Width: 1118
Flags: W
HStem: 1658 131<-48 1118>
Fore
1118 1658 m 1
 -48 1658 l 1
 -48 1789 l 1
 1118 1789 l 1
 1118 1658 l 1
EndSplineSet
EndChar
StartChar: fraction
Encoding: 237 8260 239
OldEncoding: 8260
Width: 886
Flags: W
HStem: 0 21G<-29 136>
DStem: 751 1489 916 1489 -29 0 136 0
Fore
916 1489 m 1
 136 0 l 1
 -29 0 l 1
 751 1489 l 1
 916 1489 l 1
EndSplineSet
EndChar
StartChar: uni207F
Encoding: 238 8319 240
OldEncoding: 8319
Width: 1010
Flags: W
HStem: 1368 151<541 586>
VStem: 125 171<566 1254 566 1488> 718 172<566 1163>
Fore
890 566 m 1
 718 566 l 1
 718 1088 l 2
 718 1135 717 1176 714 1210 c 128
 711 1244 704 1273 691 1298 c 0
 679 1322 661 1340 637 1351 c 128
 613 1362 581 1368 541 1368 c 0
 499 1368 458 1357 418 1336 c 128
 377 1314 337 1287 296 1254 c 1
 296 566 l 1
 125 566 l 1
 125 1488 l 1
 296 1488 l 1
 296 1388 l 1
 345 1430 392 1462 437 1485 c 128
 482 1508 532 1519 586 1519 c 0
 683 1519 758 1489 810 1428 c 128
 864 1368 890 1280 890 1163 c 2
 890 566 l 1
EndSplineSet
EndChar
StartChar: dottedcircle
Encoding: 239 9676 241
OldEncoding: 9676
Width: 1255
Flags: W
HStem: 7 121<599.301 620> 68 121<905 907> 98 121<346 352> 234 121<1071 1079> 249 121<203 215> 445 121<70.3007 87> 679 121<97 103 1132 1143> 868 121<203 215> 891 121<1025 1031> 1011 121<392 394> 1034 121<825.232 847> 1079 121<618 620>
VStem: 22 121<505 507> 37 121<727.301 744> 143 121<297.301 312 928 936> 286 121<158 168> 332 121<1071 1081> 551 121<55.3007 72> 558 121<1139 1144> 777 121<1082.3 1099> 845 121<128 136> 965 121<939.301 954> 1011 121<282.301 297> 1072 121<727.232 744> 1086 121<498 508>
Fore
143 928 m 0x0702
 143 945 149 960 160 972 c 128
 171 983 186 989 203 989 c 0
 220 989 235 983 246 972 c 128
 258 960 264 945 264 928 c 0
 264 911 258 896 246 885 c 128
 235 874 220 868 203 868 c 0
 186 868 171 874 160 885 c 128
 149 896 143 911 143 928 c 0x0702
332 1071 m 0x064080
 332 1088 338 1103 349 1114 c 128
 360 1126 375 1132 392 1132 c 0
 409 1132 424 1126 436 1114 c 128
 447 1103 453 1088 453 1071 c 0
 453 1054 447 1039 436 1028 c 128
 424 1017 409 1011 392 1011 c 0
 375 1011 360 1017 349 1028 c 128
 338 1039 332 1054 332 1071 c 0x064080
558 1139 m 0x061020
 558 1156 564 1171 575 1182 c 128
 586 1194 601 1200 618 1200 c 0
 635 1200 650 1194 662 1182 c 128
 673 1171 679 1156 679 1139 c 0
 679 1122 673 1107 662 1096 c 128
 650 1085 635 1079 618 1079 c 0
 601 1079 586 1085 575 1096 c 128
 564 1107 558 1122 558 1139 c 0x061020
22 505 m 0x0608
 22 522 28 537 39 548 c 128
 50 560 65 566 82 566 c 0
 99 566 114 560 126 548 c 128
 137 537 143 522 143 505 c 0
 143 488 137 473 126 462 c 128
 114 451 99 445 82 445 c 0
 65 445 50 451 39 462 c 128
 28 473 22 488 22 505 c 0x0608
143 309 m 0x0e02
 143 326 149 341 160 352 c 128
 171 364 186 370 203 370 c 0
 220 370 235 364 246 352 c 128
 258 341 264 326 264 309 c 0
 264 292 258 277 246 266 c 128
 235 255 220 249 203 249 c 0
 186 249 171 255 160 266 c 128
 149 277 143 292 143 309 c 0x0e02
286 158 m 0x2601
 286 175 292 190 303 202 c 128
 314 213 329 219 346 219 c 0
 363 219 378 213 390 202 c 128
 401 190 407 175 407 158 c 0
 407 141 401 126 390 115 c 128
 378 104 363 98 346 98 c 0
 329 98 314 104 303 115 c 128
 292 126 286 141 286 158 c 0x2601
551 67 m 0x860040
 551 84 557 99 568 110 c 128
 579 122 594 128 611 128 c 0
 628 128 643 122 654 110 c 128
 666 99 672 84 672 67 c 0
 672 50 666 35 654 24 c 128
 643 13 628 7 611 7 c 0
 594 7 579 13 568 24 c 128
 557 35 551 50 551 67 c 0x860040
845 128 m 0x860008
 845 145 851 160 862 172 c 128
 873 183 888 189 905 189 c 0x460008
 922 189 937 183 948 172 c 128
 960 160 966 145 966 128 c 0x860008
 966 111 960 96 948 85 c 128
 937 74 922 68 905 68 c 0x460008
 888 68 873 74 862 85 c 128
 851 96 845 111 845 128 c 0x860008
1011 294 m 0x160002
 1011 311 1017 326 1028 338 c 128
 1039 349 1054 355 1071 355 c 0
 1088 355 1103 349 1114 338 c 128
 1126 326 1132 311 1132 294 c 0
 1132 277 1126 262 1114 251 c 128
 1103 240 1088 234 1071 234 c 0
 1054 234 1039 240 1028 251 c 128
 1017 262 1011 277 1011 294 c 0x160002
1086 498 m 0x06000080
 1086 515 1092 530 1103 542 c 128
 1114 553 1129 559 1146 559 c 0
 1163 559 1178 553 1190 542 c 128
 1201 530 1207 515 1207 498 c 0
 1207 481 1201 466 1190 455 c 128
 1178 444 1163 438 1146 438 c 0
 1129 438 1114 444 1103 455 c 128
 1092 466 1086 481 1086 498 c 0x06000080
1072 739 m 0x060001
 1072 756 1078 771 1089 782 c 128
 1100 794 1115 800 1132 800 c 0x060002
 1149 800 1164 794 1176 782 c 128
 1187 771 1193 756 1193 739 c 0x060001
 1193 722 1187 707 1176 696 c 128
 1164 685 1149 679 1132 679 c 0x060002
 1115 679 1100 685 1089 696 c 128
 1078 707 1072 722 1072 739 c 0x060001
965 951 m 0x068004
 965 968 971 983 982 994 c 128
 993 1006 1008 1012 1025 1012 c 0
 1042 1012 1057 1006 1068 994 c 128
 1080 983 1086 968 1086 951 c 0
 1086 934 1080 919 1068 908 c 128
 1057 897 1042 891 1025 891 c 0
 1008 891 993 897 982 908 c 128
 971 919 965 934 965 951 c 0x068004
777 1094 m 0x062010
 777 1111 783 1126 794 1138 c 128
 805 1149 820 1155 837 1155 c 0
 854 1155 869 1149 880 1138 c 128
 892 1126 898 1111 898 1094 c 0
 898 1077 892 1062 880 1051 c 128
 869 1040 854 1034 837 1034 c 0
 820 1034 805 1040 794 1051 c 128
 783 1062 777 1077 777 1094 c 0x062010
37 739 m 0x0604
 37 756 43 771 54 782 c 128
 65 794 80 800 97 800 c 0
 114 800 129 794 140 782 c 128
 152 771 158 756 158 739 c 0
 158 722 152 707 140 696 c 128
 129 685 114 679 97 679 c 0
 80 679 65 685 54 696 c 128
 43 707 37 722 37 739 c 0x0604
EndSplineSet
EndChar
StartChar: uni0E10.descless
Encoding: 240 63232 242
OldEncoding: 63232
Width: 1100
Flags: W
HStem: -10 160<642 662> 589 108<293 310> 912 153<920 953> 998 151<516 566>
VStem: 369 153<428 490> 762 160<279 535>
Fore
294 589 m 0xcc
 263 589 238 574 219 543 c 0
 209 526 204 509 204 492 c 2
 204 485 l 1
 207 439 225 408 256 391 c 0
 267 385 280 382 294 382 c 1
 330 385 353 400 362 429 c 0
 367 444 369 464 369 490 c 1
 366 541 353 572 329 583 c 0
 320 587 308 589 294 589 c 0xcc
762 529 m 2
 762 583 711 625 610 656 c 0
 481 695 306 731 85 762 c 1
 99 829 126 894 166 957 c 0
 203 1016 255 1063 321 1099 c 0
 382 1132 459 1149 554 1149 c 0xdc
 631 1149 702 1134 769 1103 c 0
 824 1078 885 1065 953 1065 c 0
 979 1065 1002 1067 1022 1072 c 1
 983 917 l 1
 966 913 947 911 925 912 c 0xec
 863 912 809 922 763 941 c 0
 760 942 758 943 756 944 c 0
 681 980 609 998 541 998 c 0xdc
 532 998 522 998 513 997 c 0
 453 993 402 967 359 918 c 0
 346 903 336 887 329 872 c 1
 468 849 l 1
 617 815 725 780 792 744 c 0
 879 698 922 641 922 574 c 2
 922 279 l 2
 922 168 884 87 809 36 c 0
 763 5 707 -10 642 -10 c 0
 455 -10 362 88 362 283 c 2
 362 317 l 1
 351 303 329 294 298 290 c 0
 286 288 l 1
 252 291 l 1
 217 296 186 312 159 339 c 0
 109 389 95 460 117 551 c 0
 128 594 155 631 198 661 c 0
 231 684 268 696 310 697 c 0
 314 697 314 697 319 697 c 0
 373 696 418 678 455 642 c 0
 500 599 522 527 522 428 c 2
 522 283 l 2
 522 194 562 150 642 150 c 0
 718 150 758 189 761 268 c 0
 762 271 762 275 762 279 c 2
 762 529 l 2
EndSplineSet
EndChar
StartChar: uni0E34.left
Encoding: 241 63233 243
OldEncoding: 63233
Width: 0
Flags: W
HStem: 1271 91<-1401 -1174> 1479 111<-949 -904>
Fore
-456 1176 m 1
 -599 1207 -809 1233 -1086 1255 c 0
 -1217 1266 -1322 1271 -1401 1271 c 1
 -1380 1340 -1332 1407 -1257 1472 c 0
 -1229 1496 -1201 1516 -1173 1532 c 0
 -1105 1571 -1025 1590 -934 1590 c 0
 -914 1590 -894 1589 -874 1587 c 0
 -784 1577 -701 1542 -624 1481 c 0
 -617 1476 -610 1470 -603 1464 c 0
 -530 1399 -481 1303 -456 1176 c 1
-641 1308 m 1
 -646 1340 -671 1373 -714 1408 c 0
 -767 1451 -827 1474 -892 1479 c 1
 -949 1479 l 1
 -1032 1474 -1098 1446 -1147 1396 c 1
 -1169 1370 l 2
 -1171 1367 -1173 1365 -1174 1362 c 1
 -1086 1360 l 1
 -943 1353 -811 1339 -692 1318 c 0
 -671 1315 -654 1311 -641 1308 c 1
EndSplineSet
EndChar
StartChar: uni0E35.left
Encoding: 242 63234 244
OldEncoding: 63234
Width: 0
Flags: W
HStem: 1259 101<-1422 -1185> 1447 131<-977 -940>
VStem: -649 150<1461 1671>
Fore
-499 1196 m 1
 -496 1185 -494 1174 -492 1164 c 1
 -636 1195 -846 1221 -1123 1244 c 0
 -1247 1254 -1347 1259 -1422 1259 c 0
 -1429 1259 -1429 1259 -1437 1259 c 1
 -1416 1328 -1368 1395 -1293 1460 c 0
 -1265 1484 -1237 1504 -1209 1520 c 0
 -1141 1559 -1062 1578 -971 1578 c 0
 -950 1578 -930 1577 -911 1575 c 0
 -820 1565 -737 1530 -660 1469 c 0
 -657 1466 -653 1464 -649 1461 c 1
 -649 1671 l 1
 -499 1671 l 1
 -499 1196 l 1
-691 1306 m 1
 -706 1337 -738 1368 -785 1397 c 0
 -831 1426 -879 1442 -928 1447 c 1
 -977 1448 l 1
 -1043 1444 -1101 1425 -1151 1390 c 0
 -1166 1380 -1177 1370 -1185 1360 c 1
 -1087 1360 -963 1349 -813 1328 c 0
 -760 1321 -720 1313 -691 1306 c 1
EndSplineSet
EndChar
StartChar: uni0E36.left
Encoding: 243 63235 245
OldEncoding: 63235
Width: 0
Flags: W
HStem: 1269 89<-1523 -1276> 1459 129<-1059 -1026> 1514 113<-597 -586>
VStem: -523 110<1432.98 1459>
Fore
-766 1494 m 1xd0
 -756 1531 -739 1560 -715 1581 c 0
 -681 1612 -642 1627 -597 1627 c 0xb0
 -542 1627 -496 1607 -459 1566 c 0
 -428 1533 -413 1494 -413 1448 c 0
 -413 1391 -436 1344 -481 1308 c 0
 -515 1281 -555 1267 -601 1267 c 1
 -595 1250 -588 1219 -579 1174 c 1
 -722 1205 -932 1231 -1209 1254 c 0
 -1340 1264 -1445 1269 -1523 1269 c 1
 -1502 1338 -1455 1405 -1380 1470 c 0
 -1352 1494 -1324 1514 -1296 1530 c 0
 -1228 1569 -1148 1588 -1057 1588 c 0
 -1037 1588 -1017 1587 -997 1585 c 0
 -916 1576 -839 1545 -766 1494 c 1xd0
-597 1514 m 0
 -625 1514 -646 1502 -659 1479 c 1
 -666 1469 -669 1458 -669 1446 c 0
 -669 1419 -657 1398 -632 1384 c 0
 -621 1378 -610 1375 -597 1375 c 0
 -565 1375 -543 1388 -530 1414 c 0
 -525 1424 -523 1435 -523 1446 c 0
 -523 1474 -536 1494 -563 1507 c 1
 -586 1514 l 1
 -591 1514 -591 1514 -597 1514 c 0
-773 1304 m 1
 -788 1335 -819 1367 -865 1400 c 0
 -915 1435 -965 1454 -1015 1459 c 1xd0
 -1059 1460 l 1
 -1122 1455 -1182 1433 -1237 1394 c 1
 -1266 1369 l 2
 -1270 1366 -1273 1362 -1276 1358 c 1
 -1177 1358 -1052 1347 -900 1326 c 0
 -844 1319 -802 1311 -773 1304 c 1
EndSplineSet
EndChar
StartChar: uni0E37.left
Encoding: 244 63236 246
OldEncoding: 63236
Width: 0
Flags: W
HStem: 1431 20G<-1065 -1009>
VStem: -730 150<1465 1667>
Fore
-809 1516 m 1
 -794 1516 -770 1500 -735 1469 c 0
 -733 1467 -731 1466 -730 1465 c 1
 -730 1667 l 1
 -580 1667 l 1
 -580 1230 l 1
 -578 1173 l 1
 -721 1204 -936 1230 -1223 1253 c 0
 -1342 1263 -1434 1268 -1499 1268 c 1
 -1468 1361 -1403 1440 -1302 1506 c 0
 -1247 1543 -1177 1566 -1094 1576 c 1
 -1034 1579 l 1
 -1007 1578 -982 1575 -959 1570 c 1
 -959 1668 l 1
 -809 1668 l 1
 -809 1516 l 1
-792 1315 m 1
 -811 1354 -843 1387 -889 1414 c 0
 -926 1436 -966 1448 -1009 1451 c 1
 -1065 1451 l 1
 -1147 1444 -1209 1415 -1251 1362 c 2
 -1253 1359 l 1
 -1131 1354 l 1
 -961 1343 -848 1330 -792 1315 c 1
EndSplineSet
EndChar
StartChar: uni0E48.low_left
Encoding: 245 63237 247
OldEncoding: 63237
Width: 0
Flags: W
VStem: -618 142<1300 1580>
Fore
-618 1580 m 1
 -476 1580 l 1
 -476 1300 l 1
 -618 1300 l 1
 -618 1580 l 1
EndSplineSet
EndChar
StartChar: uni0E49.low_left
Encoding: 246 63238 248
OldEncoding: 63238
Width: 0
Flags: W
HStem: 1283 71<-903 -879> 1483 82<-896 -873>
VStem: -1036 90<1413 1425> -817 111<1404 1421>
Fore
-879 1354 m 0
 -858 1354 -840 1364 -827 1385 c 0
 -820 1396 -817 1407 -817 1419 c 0
 -817 1440 -827 1458 -848 1472 c 0
 -859 1479 -869 1483 -879 1483 c 0
 -903 1483 -922 1472 -936 1450 c 0
 -943 1441 -946 1430 -946 1419 c 0
 -946 1394 -934 1375 -910 1362 c 0
 -900 1357 -890 1354 -879 1354 c 0
-290 1551 m 1
 -323 1416 -408 1305 -544 1220 c 0
 -651 1153 -765 1113 -888 1101 c 1
 -948 1098 l 1
 -948 1178 l 1
 -916 1186 -889 1205 -868 1235 c 0
 -858 1249 -850 1270 -844 1297 c 1
 -861 1288 -881 1283 -903 1283 c 0
 -938 1283 -969 1294 -995 1315 c 0
 -1022 1338 -1036 1372 -1036 1415 c 0
 -1036 1425 l 0
 -1034 1464 -1020 1496 -994 1522 c 0
 -968 1548 -935 1562 -896 1565 c 1
 -874 1565 l 1
 -833 1562 -801 1553 -779 1538 c 0
 -768 1530 -756 1520 -745 1508 c 0
 -719 1479 -706 1444 -706 1404 c 0
 -706 1399 -706 1399 -706 1393 c 0
 -710 1338 -723 1292 -744 1257 c 1
 -754 1243 l 1
 -639 1286 -551 1352 -488 1441 c 0
 -463 1476 -445 1512 -432 1551 c 1
 -290 1551 l 1
EndSplineSet
EndChar
StartChar: uni0E4A.low_left
Encoding: 247 63239 249
OldEncoding: 63239
Width: 0
Flags: W
HStem: 1187 88<-1128 -1092>
VStem: -1324 127<1388 1408> -725 122<1359 1396>
Fore
-1049 1318 m 1
 -1050 1335 -1060 1347 -1077 1353 c 1
 -1093 1356 l 1
 -1112 1355 -1124 1345 -1129 1326 c 1
 -1130 1313 l 1
 -1129 1295 -1121 1283 -1105 1278 c 0
 -1100 1276 -1096 1275 -1092 1275 c 0
 -1073 1276 -1059 1284 -1052 1301 c 1
 -1049 1318 l 1
-606 1358 m 1
 -461 1688 l 1
 -327 1688 l 2
 -328 1688 -371 1576 -456 1351 c 0
 -489 1266 -572 1214 -706 1196 c 0
 -729 1193 -753 1192 -777 1191 c 1
 -742 1244 -725 1300 -725 1359 c 0
 -725 1396 -732 1430 -746 1460 c 0
 -762 1494 -786 1520 -817 1539 c 1
 -959 1422 l 1
 -1057 1508 l 1
 -1076 1523 -1089 1534 -1098 1539 c 1
 -1145 1520 -1176 1486 -1191 1435 c 0
 -1195 1420 -1197 1405 -1197 1390 c 0
 -1197 1369 -1193 1351 -1185 1336 c 1
 -1186 1361 l 1
 -1185 1373 -1181 1384 -1174 1394 c 0
 -1156 1420 -1127 1433 -1087 1434 c 0
 -1074 1434 -1064 1433 -1056 1430 c 0
 -1014 1417 -989 1389 -980 1346 c 0
 -979 1340 -978 1334 -977 1327 c 1
 -979 1293 l 1
 -986 1251 -1007 1222 -1043 1205 c 0
 -1068 1193 -1097 1187 -1128 1187 c 0
 -1156 1187 -1182 1192 -1205 1201 c 0
 -1255 1220 -1290 1257 -1309 1314 c 0
 -1319 1342 -1324 1373 -1324 1406 c 0
 -1324 1413 -1324 1420 -1323 1427 c 0
 -1318 1499 -1277 1563 -1198 1620 c 0
 -1165 1644 -1132 1662 -1098 1673 c 1
 -959 1556 l 1
 -817 1673 l 1
 -760 1654 -709 1617 -666 1562 c 0
 -624 1508 -603 1453 -603 1396 c 0
 -603 1383 -604 1371 -606 1358 c 1
EndSplineSet
EndChar
StartChar: uni0E4B.low_left
Encoding: 248 63240 250
OldEncoding: 63240
Width: 0
Flags: W
HStem: 1170 142<-896 -754 -612 -470> 1434 20G<-754 -612>
VStem: -754 142<1028 1170 1312 1454>
Fore
-470 1170 m 1
 -612 1170 l 1
 -612 1028 l 1
 -754 1028 l 1
 -754 1170 l 1
 -896 1170 l 1
 -896 1312 l 1
 -754 1312 l 1
 -754 1454 l 1
 -612 1454 l 1
 -612 1312 l 1
 -470 1312 l 1
 -470 1170 l 1
EndSplineSet
EndChar
StartChar: uni0E4C.low_left
Encoding: 249 63241 251
OldEncoding: 63241
Width: 0
Flags: W
HStem: 1436 20G<-863.5 -837.5>
VStem: -1054 113<1363 1377>
Fore
-409 1740 m 1
 -426 1693 -469 1647 -540 1601 c 0
 -567 1583 -567 1583 -570 1581 c 0
 -599 1560 -646 1541 -711 1523 c 1
 -758 1513 l 1
 -711 1503 -679 1477 -662 1435 c 1
 -648 1388 l 1
 -646 1360 l 1
 -647 1335 -657 1305 -676 1270 c 0
 -696 1233 -734 1208 -791 1196 c 0
 -803 1194 -815 1193 -826 1192 c 1
 -869 1195 l 1
 -926 1204 -969 1222 -999 1251 c 0
 -1000 1252 -1000 1252 -1002 1254 c 0
 -1033 1287 -1050 1327 -1054 1376 c 1
 -1054 1402 l 1
 -1049 1462 -1027 1508 -990 1540 c 0
 -956 1569 -891 1594 -794 1615 c 0
 -752 1624 -726 1631 -716 1634 c 0
 -668 1650 -627 1673 -593 1704 c 0
 -580 1717 -570 1729 -564 1740 c 1
 -409 1740 l 1
-846 1456 m 0
 -881 1456 -908 1442 -926 1415 c 1
 -936 1392 l 1
 -939 1383 -941 1374 -941 1363 c 0
 -941 1346 -935 1329 -922 1313 c 1
 -901 1288 -874 1276 -841 1276 c 1
 -801 1281 -774 1299 -759 1329 c 0
 -754 1340 -751 1353 -751 1366 c 0
 -751 1405 -768 1432 -801 1447 c 0
 -814 1453 -829 1456 -846 1456 c 0
EndSplineSet
EndChar
StartChar: uni0E48.low
Encoding: 250 63242 252
OldEncoding: 63242
Width: 0
Flags: W
VStem: -310 142<1306 1586>
AnchorPoint: "AboveBase" -180 1227 mark 0
Fore
-310 1586 m 1
 -168 1586 l 1
 -168 1306 l 1
 -310 1306 l 1
 -310 1586 l 1
EndSplineSet
Substitution: 0 65534 'amni' uni0E4D
EndChar
